SplineFontDB: 3.2
FontName: Cooper-Black
FullName: Cooper* Black
FamilyName: Cooper*
Weight: Black
Copyright: 
Version: 0.1
ItalicAngle: 0
UnderlinePosition: -200
UnderlineWidth: 100
Ascent: 1600
Descent: 400
InvalidEm: 0
LayerCount: 2
Layer: 0 0 "Back" 1
Layer: 1 0 "Fore" 0
XUID: [1021 31 -699969567 16487490]
FSType: 0
OS2Version: 0
OS2_WeightWidthSlopeOnly: 0
OS2_UseTypoMetrics: 1
CreationTime: 1460762150
ModificationTime: 1700926997
PfmFamily: 17
TTFWeight: 400
TTFWidth: 5
LineGap: 0
VLineGap: 0
OS2TypoAscent: 2500
OS2TypoAOffset: 0
OS2TypoDescent: -850
OS2TypoDOffset: 0
OS2TypoLinegap: 0
OS2WinAscent: 2500
OS2WinAOffset: 0
OS2WinDescent: 850
OS2WinDOffset: 0
HheadAscent: 2500
HheadAOffset: 0
HheadDescent: -850
HheadDOffset: 0
OS2CapHeight: 1500
OS2XHeight: 1040
OS2FamilyClass: 256
OS2Vendor: 'it* '
OS2UnicodeRanges: 00000001.00000000.00000000.00000000
Lookup: 3 0 0 "'swsh' Swash in Latin lookup 1" { "'swsh' Swash in Latin lookup 1-1"  } ['swsh' ('DFLT' <'dflt' > 'latn' <'dflt' > ) ]
Lookup: 4 0 1 "'liga' Standard Ligatures lookup" { "'liga' Standard Ligatures lookup"  } ['liga' ('DFLT' <'dflt' > 'grek' <'dflt' > 'latn' <'dflt' > ) ]
Lookup: 258 0 0 "'kern' Horizontal Kerning lookup 0" { "'kern' Horizontal Kerning lookup 0-1" [300,0,4] } ['kern' ('DFLT' <'dflt' > 'grek' <'dflt' > 'latn' <'dflt' > ) ]
MarkAttachClasses: 1
DEI: 91125
KernClass2: 12 12 "'kern' Horizontal Kerning lookup 0-1"
 113 A L Agrave Aacute Acircumflex Atilde Adieresis Aring Amacron Abreve Aogonek Lacute uni013B Lslash uni01CD uni0394
 73 D O Q Eth Ograve Oacute Ocircumflex Otilde Odieresis Oslash Dcaron Dcroat
 17 F P F.swsh P.swsh
 11 K X uni0136
 107 V W Y Yacute Wcircumflex Ycircumflex Ydieresis Wgrave Wacute Wdieresis uni1E86 uni1E88 Ygrave T.swsh Y.swsh
 88 b o ograve oacute ocircumflex otilde odieresis oslash thorn omacron obreve ohungarumlaut
 48 h m n hbar nacute uni0146 ncaron napostrophe eng

StartChar: zero
Encoding: 48 48 0
Width: 1230
VWidth: 1920
Flags: HMW
LayerCount: 2
Fore
SplineSet
40 576 m 260
 40 970 326 1235 623 1235 c 260
 865 1235 1190 1025 1190 598 c 260
 1190 187 934 -35 644 -35 c 260
 380 -35 40 152 40 576 c 260
666 304 m 260
 725 304 743 345 743 410 c 260
 743 705 662 897 581 897 c 260
 528 897 485 858 485 774 c 260
 485 466 588 304 666 304 c 260
EndSplineSet
EndChar

StartChar: A
Encoding: 65 65 1
Width: 1714
VWidth: 1920
Flags: HMW
AnchorPoint: "ogonek" 1449 0 basechar 0
AnchorPoint: "bottom" 764 0 basechar 0
AnchorPoint: "top" 804 1400 basechar 0
LayerCount: 2
Fore
SplineSet
499 273 m 2
 496 265 l 2
 492.424804688 255.465820312 492 247 492 240 c 0
 492 225.939453125 498.388671875 217.086914062 511 211.444335938 c 0
 534.646484375 200.862304688 581 192 601 178.620117188 c 0
 618.139648438 167.153320312 628 144.29296875 628 111 c 0
 628 -6 506 -29 313 -29 c 0
 122 -29 0 -19 0 109 c 0
 0 151.11328125 18 175 38.7080078125 188 c 0
 66.8720703125 205.680664062 116 202 150.413085938 239 c 0
 187.00390625 278.340820312 229.33984375 348.342773438 284 472 c 2
 467 886 l 2
 540 1060 545 1156 545 1224 c 0
 545 1345 626 1466 781 1466 c 0
 910 1466 1035 1380 1115 1216 c 0
 1277.171875 883.546875 1387.109375 670.951171875 1527 358 c 0
 1550.02441406 306.4921875 1566.48339844 263.375976562 1588.78027344 244 c 0
 1621 216 1654.09472656 225.7734375 1686.23925781 203 c 0
 1706 189 1714 170.493164062 1714 121 c 0
 1714 82.1435546875 1701.73046875 26.8232421875 1606 -2.2646484375 c 0
 1542.87792969 -21.443359375 1441.77441406 -23 1290 -23 c 0
 1130.18652344 -23 1023.45214844 -21.693359375 958 2.4169921875 c 0
 904.587890625 22.0908203125 878 59.623046875 878 102 c 0
 878 153 892 182 910 193 c 0
 931.33203125 206.036132812 952.701171875 206.381835938 975 217 c 0
 996 227 1001 244 1001 253 c 0
 1001 257 1000.80859375 261.146484375 1000 266 c 2
 999 270 l 2
 996.40625 280.375 988.546875 300.732421875 953 310 c 0
 918.258789062 319.057617188 836 323 757 323 c 0
 688 323 644 318 593 318 c 0
 526.654296875 318 510.30859375 303.15625 499 273 c 2
749 614 m 0
 816 614 872 606 889 606 c 0
 897 606 898 610 898 616 c 0
 898 625 885.463867188 650.138671875 877 665 c 2
 791 816 l 2
 772 850 760 865 743 865 c 0
 725 865 721 854 701 810 c 2
 652 698 l 2
 641.098632812 673.08203125 629 646 629 631 c 0
 629 617 639 613 652 613 c 0
 664 613 682 614 749 614 c 0
EndSplineSet
AlternateSubs2: "'swsh' Swash in Latin lookup 1-1" A.swsh
EndChar

StartChar: B
Encoding: 66 66 2
Width: 1487
VWidth: 1920
Flags: HMW
AnchorPoint: "top" 806 1400 basechar 0
AnchorPoint: "bottom" 827 0 basechar 0
LayerCount: 2
Fore
SplineSet
759 198 m 0
 863 198 913 277 913 387 c 0
 913 507 870.078125 590.563476562 780 598 c 0
 762.49609375 599.4453125 750 600 733 600 c 0
 690 600 673 590 673 549 c 0
 673 504 673 452 673 405 c 0
 673 351 673.3984375 287.803710938 680 258 c 0
 688.206054688 220.950195312 701 198 759 198 c 0
710 819 m 0
 836 819 861 912 861 1032 c 0
 861 1172 795 1216 713 1216 c 0
 662 1216 665.17578125 1194.95019531 663 1139 c 0
 661.28515625 1094.91796875 662 1062 662 1024 c 0
 662 981 662.5859375 884.041992188 664 860 c 0
 666 826 681 819 710 819 c 0
517 -18 m 0
 431 -18 274 -30 179 -30 c 0
 86 -30 39 6 39 61 c 0
 39 124 59.0810546875 144.377929688 108 173 c 0
 168.448242188 208.3671875 190 309 190 670 c 2
 190 880 l 2
 190 1005 186.4765625 1062.71386719 180 1134 c 0
 176.259765625 1175.171875 160 1197 133 1211 c 0
 113.46875 1221.12695312 84.8134765625 1227.20019531 67 1239 c 0
 44.5517578125 1253.87011719 27 1268 27 1322 c 0
 27 1396 80 1440 187 1440 c 0
 255 1440 299 1431 401 1431 c 0
 553 1431 683 1440 842 1440 c 0
 1139 1440 1343 1388 1343 1078 c 0
 1343 982 1304.1328125 903.120117188 1238 843 c 0
 1205 813 1195 798 1195 786 c 0
 1195 773 1220.50585938 757.9765625 1257 741 c 0
 1403.88476562 672.671875 1460 567 1460 428 c 0
 1460 159 1263 -27 932 -27 c 0
 813 -27 631 -18 517 -18 c 0
EndSplineSet
AlternateSubs2: "'swsh' Swash in Latin lookup 1-1" B.swsh
EndChar

StartChar: C
Encoding: 67 67 3
Width: 1476
VWidth: 1920
Flags: HMW
AnchorPoint: "top" 797 1400 basechar 0
AnchorPoint: "bottom" 789 0 basechar 0
LayerCount: 2
Fore
SplineSet
789 -30 m 0
 342 -30 50 278 50 688 c 0
 50 1065 314 1429 799 1429 c 0
 1059 1429 1093 1356 1163 1356 c 0
 1199 1356 1204 1377 1262 1377 c 0
 1372 1377 1449 1171 1449 1005 c 0
 1449 843 1346 789 1251 789 c 0
 1156 789 1126.453125 834.340820312 1078 936 c 0
 1030.14160156 1036.41210938 891 1122 774 1122 c 0
 629 1122 559 1016 559 878 c 0
 559 548 765 356 972 356 c 0
 1122.63378906 356 1186.171875 407.209960938 1263 468.170898438 c 0
 1287.71582031 487.783203125 1310.80859375 502 1347 502 c 0
 1387 502 1437 449 1437 377 c 0
 1437 271 1376.79882812 175.416992188 1337 132 c 0
 1326 120 1311 106 1289 97.22265625 c 0
 1270.37890625 89.7919921875 1247.54785156 81.90625 1219 81 c 0
 1156 79 1053 -30 789 -30 c 0
EndSplineSet
EndChar

StartChar: D
Encoding: 68 68 4
Width: 1691
VWidth: 1920
Flags: HMW
AnchorPoint: "top" 808 1400 basechar 0
AnchorPoint: "bottom" 659 0 basechar 0
LayerCount: 2
Fore
SplineSet
823 219 m 0
 889.32421875 219 940.751953125 244.5859375 980.177734375 284 c 0
 1069.15039062 372.947265625 1097 532.322265625 1097 627 c 0
 1097 1017 1003 1199 783 1199 c 0
 740 1199 723 1197 711 1188 c 0
 694 1175 695.765625 1135.11328125 695 1098 c 0
 693 1001 693 889 693 778 c 0
 693 576 697.375 530.880859375 705 325 c 0
 707 271 711.122070312 257.1484375 725 239 c 0
 738 222 779 219 823 219 c 0
693 -28 m 0
 545 -28 490 -23 389 -23 c 0
 323 -23 279 -34 184 -34 c 0
 91 -34 27 25 27 92 c 0
 27 122.348632812 35.486328125 146.798828125 54.4375 164 c 0
 78.13671875 185.51171875 125.086914062 185.715820312 148 204.38671875 c 0
 170.55078125 222.762695312 175.885742188 248.469726562 179 272 c 0
 187.100585938 333.208007812 200 464 200 660 c 2
 200 900 l 2
 200 1067.48046875 194.415039062 1153.55957031 161.169921875 1194 c 0
 136.865234375 1223.56542969 97.6484375 1220.97753906 78.4814453125 1241 c 0
 61.9775390625 1258.24121094 49 1280.20898438 49 1327 c 0
 49 1401 111 1449 218 1449 c 0
 286 1449 402 1447 504 1447 c 0
 631 1447 734 1459 937 1459 c 0
 1384 1459 1641 1147 1641 737 c 0
 1641 471.225585938 1537.01855469 183.875 1253 45.8505859375 c 0
 1109.72753906 -23.775390625 903.416992188 -28 693 -28 c 0
EndSplineSet
AlternateSubs2: "'swsh' Swash in Latin lookup 1-1" D.swsh
EndChar

StartChar: E
Encoding: 69 69 5
Width: 1406
VWidth: 1920
Flags: HMW
AnchorPoint: "ogonek" 1029 0 basechar 0
AnchorPoint: "top" 683 1400 basechar 0
AnchorPoint: "bottom" 614 0 basechar 0
LayerCount: 2
Fore
SplineSet
364 -23 m 0
 278 -23 196 -28 111 -28 c 0
 50 -28 31 20 31 64 c 0
 31 113 45 139 90 149 c 0
 121.9765625 156.10546875 140.03125 172.061523438 153 200 c 0
 165.239257812 226.3671875 185 285 190 378 c 0
 198.815429688 541.958007812 202 602 202 800 c 0
 202 992 191.162109375 1053.02636719 180 1120 c 0
 172.043945312 1167.73535156 153.198242188 1195.31933594 130.337890625 1211 c 0
 106.084960938 1227.63574219 75.4384765625 1229.25 55 1243.85449219 c 0
 37.6962890625 1256.21875 27 1273.66796875 27 1307 c 0
 27 1401 82 1434 239 1434 c 0
 307 1434 387 1430 449 1430 c 0
 571 1430 845 1430 964 1430 c 0
 1107 1430 1086 1456 1163 1456 c 0
 1256 1456 1320 1308 1320 1118 c 0
 1320 1044 1272 1000 1204 1000 c 0
 1154 1000 1143.43554688 1017.33007812 1104 1087 c 0
 1074 1140 1037.44628906 1167.70800781 964 1186 c 0
 913.430664062 1198.59472656 871 1200 809 1200 c 0
 684 1200 657.895507812 1170.67382812 649 1143 c 0
 640 1115 639 1021 639 898 c 0
 639 851 639.244140625 832.657226562 667 825 c 0
 696 817 723 817 758 817 c 0
 802 817 828.223632812 847.982421875 831 885 c 0
 834 925 837 946 842 971 c 0
 848.578125 1003.88964844 868 1039 926 1039 c 0
 1013 1039 1052 940 1052 716 c 0
 1052 470 992 392 908 392 c 0
 859 392 841 429 841 497 c 0
 841 543 828 601 739 601 c 0
 684 601 668.040039062 593.782226562 659 570 c 0
 648.620117188 542.69140625 651 481 651 446 c 0
 651 385 655 340 673 244 c 0
 677.071289062 222.288085938 681.888671875 214.497070312 708 209 c 0
 746 201 793 200 849 200 c 0
 934 200 970.8671875 206.427734375 1014 216 c 0
 1053.28808594 224.71875 1112.24316406 271.819335938 1148 323 c 0
 1199 396 1195 474 1286 474 c 0
 1374 474 1391 407 1391 329 c 0
 1391 196 1282 -46 1216 -46 c 0
 1172 -46 1072 -21 934 -21 c 0
 817 -21 706 -23 621 -23 c 0
 534 -23 448 -23 364 -23 c 0
EndSplineSet
AlternateSubs2: "'swsh' Swash in Latin lookup 1-1" E.swsh
EndChar

StartChar: F
Encoding: 70 70 6
Width: 1311
VWidth: 1920
Flags: HMW
AnchorPoint: "top" 600 1400 basechar 0
AnchorPoint: "bottom" 420 0 basechar 0
LayerCount: 2
Fore
SplineSet
420 -40 m 0
 311.2890625 -40 156 -35 81 5.845703125 c 0
 46.7646484375 24.490234375 27 58.0888671875 27 99 c 0
 27 144.061523438 45.4892578125 158.587890625 62.330078125 172 c 0
 81.3115234375 187.1171875 112.255859375 190.932617188 136 208.40625 c 0
 154.841796875 222.272460938 161.540039062 239.224609375 168 268 c 0
 177.989257812 312.499023438 184 451 184 590 c 2
 184 870 l 2
 184 1131.32519531 163 1178 136.372070312 1196 c 0
 119.41796875 1207.4609375 78 1215 62.916015625 1229 c 0
 50.6474609375 1240.38671875 35 1257.03515625 35 1303 c 0
 35 1377 104 1419 181 1419 c 0
 249 1419 384 1413 486 1413 c 0
 608 1413 847 1415 966 1415 c 0
 1059 1415 1111 1434 1158 1434 c 0
 1239 1434 1321 1254 1321 1104 c 0
 1321 1020 1285 968 1218 968 c 0
 1158 968 1133 1009 1099 1053 c 0
 1062.05957031 1100.80566406 1018 1138 952 1154 c 0
 890.743164062 1168.85058594 818 1176 756 1176 c 0
 691 1176 666.431640625 1162.95410156 660 1104 c 0
 654 1049 651.3984375 1025.96484375 650 998 c 0
 649 978 646 938 646 908 c 0
 646 861 645.654296875 848.134765625 684 842 c 0
 709 838 725 836 746 836 c 0
 784 836 816 865 824 898 c 0
 830.125976562 923.268554688 828.2265625 953.443359375 835 970 c 0
 844 992 865 1023 920 1023 c 0
 1004 1023 1045 870 1045 706 c 0
 1045 530 1020 359 916 359 c 0
 864 359 831.00390625 385.780273438 822 429 c 0
 817 453 824 506 816 531 c 0
 808.755859375 553.638671875 796.602539062 566.23828125 782 575 c 0
 772 581 761 584 743 586 c 0
 721.134765625 588.4296875 711 589 690 589 c 0
 660 589 652 573 652 549 c 0
 652 509 650 481 650 436 c 2
 650 328 l 2
 650 258.376953125 669.522460938 225.987304688 695.552734375 207 c 0
 722.860351562 187.081054688 762.333007812 191.872070312 789 176.427734375 c 0
 812.666015625 162.721679688 832 137.940429688 832 95 c 0
 832 40.9423828125 810 7 753 -14.09375 c 0
 696.060546875 -35.1650390625 562.502929688 -40 420 -40 c 0
EndSplineSet
AlternateSubs2: "'swsh' Swash in Latin lookup 1-1" F.swsh
EndChar

StartChar: G
Encoding: 71 71 7
Width: 1642
VWidth: 1920
Flags: HMW
AnchorPoint: "top" 804 1400 basechar 0
AnchorPoint: "bottom" 806 0 basechar 0
LayerCount: 2
Fore
SplineSet
818 -39 m 0
 361 -39 50 233 50 693 c 0
 50 1070 313 1439 798 1439 c 0
 1018 1439 1071 1384 1121 1384 c 0
 1167 1384 1174 1407 1242 1407 c 0
 1322 1407 1452 1269 1452 1093 c 0
 1452 931 1367 881 1272 881 c 0
 1177 881 1129.55664062 943.65234375 1100 989 c 0
 1027 1101 934 1162 817 1162 c 0
 682 1162 572 1036 572 818 c 0
 572 458 763 255 930 255 c 0
 997 255 1033 308 1033 359 c 0
 1033 411.00390625 1017.18945312 431.599609375 991 441.9609375 c 0
 961.1171875 453.783203125 901.782226562 441.362304688 866 460.401367188 c 0
 841.29296875 473.547851562 821 500.740234375 821 549 c 0
 821 605.319335938 841.017578125 632.815429688 880 657.424804688 c 0
 960.56640625 708.28515625 1112.32226562 727 1267 727 c 0
 1395.41308594 727 1487.03515625 709.819335938 1545 677.913085938 c 0
 1597.09179688 649.240234375 1622 608.674804688 1622 558 c 0
 1622 511.216796875 1596.83007812 480.305664062 1577 468.279296875 c 0
 1547.79980469 450.5703125 1512.70019531 457.939453125 1485.36816406 439 c 0
 1466.51464844 425.935546875 1460.91796875 400.045898438 1454 357 c 0
 1445 301 1421 254 1396 213 c 0
 1316 83 1185 -39 818 -39 c 0
EndSplineSet
AlternateSubs2: "'swsh' Swash in Latin lookup 1-1" G.swsh
EndChar

StartChar: H
Encoding: 72 72 8
Width: 1598
VWidth: 1920
Flags: HMW
AnchorPoint: "top" 799 1400 basechar 0
AnchorPoint: "bottom" 789 0 basechar 0
LayerCount: 2
Fore
SplineSet
171 591 m 2
 171 841 l 2
 171 1048 170 1156 129 1171 c 0
 100 1181 77 1184 57 1199 c 0
 38 1213 30 1246 30 1265 c 0
 30 1310 44 1339 76 1365 c 0
 129 1408 233 1428 409 1428 c 0
 555 1428 646 1419 699 1391 c 0
 746 1367 763 1329 763 1271 c 0
 763 1238 745 1214 725 1198 c 0
 703 1180 685.793945312 1184.22753906 667 1167 c 0
 643 1145 633 1095 633 974 c 0
 633 900 633 875 677 873 c 0
 715 871 765 869 787 869 c 0
 835 869 870 870 913 875 c 0
 959 880 975 883 975 943 c 0
 975 1007 966 1077 951 1136 c 0
 943.518554688 1165.42871094 938 1172 915 1183 c 0
 898.736328125 1190.77832031 879 1200 865 1216 c 0
 856 1227 846 1250 846 1279 c 0
 846 1363 898 1391 965 1410 c 0
 1024 1427 1107 1432 1198 1432 c 0
 1354 1432 1445 1417 1489 1397 c 0
 1541 1374 1571 1342 1571 1287 c 0
 1571 1263 1566 1231 1547 1212 c 0
 1525 1191 1488 1183 1465 1168 c 0
 1435 1148 1428 1075 1428 814 c 2
 1428 614 l 2
 1428 367 1442.09277344 270.248046875 1463 243 c 0
 1478.23339844 223.146484375 1505.88378906 224.583007812 1528.25878906 204 c 0
 1545.26757812 188.353515625 1559 162.752929688 1559 129 c 0
 1559 89.0849609375 1543.52832031 58.033203125 1507 33.7060546875 c 0
 1461.98828125 3.7294921875 1383.96582031 -15 1251 -15 c 0
 1053.79199219 -15 965.6015625 -8.60546875 901 23.416015625 c 0
 863.796875 41.8564453125 844 66.0458984375 844 121 c 0
 844 155.513671875 853.97265625 179.71484375 865.489257812 194 c 0
 881.630859375 214.022460938 902.1484375 219.092773438 923 234.591796875 c 0
 937.01171875 245.006835938 952.379882812 258.12890625 957 282 c 0
 963 313 967 334 967 397 c 0
 967 438 968 493 968 541 c 0
 968 584 959.90234375 590.142578125 918 593 c 0
 874 596 842 596 784 596 c 0
 754 596 710 593 672 588 c 0
 632 583 628 559 628 524 c 0
 628 465 630 444 631 402 c 0
 632 342 639 310 642 278 c 0
 644 256 650 245 661 238 c 0
 678 227 707 222 723 207 c 0
 738 194 750 171 750 129 c 0
 750 80 715 39 653 14 c 0
 590 -11 500 -20 401 -20 c 0
 299 -20 180 -19 104 13 c 0
 57 33 27 64 27 115 c 0
 27 150 33.822265625 174.064453125 52 193 c 0
 76 218 95.87890625 214.69140625 127 231 c 0
 156.774414062 246.603515625 171 380 171 591 c 2
EndSplineSet
EndChar

StartChar: I
Encoding: 73 73 9
Width: 836
VWidth: 1920
Flags: HMW
AnchorPoint: "ogonek" 478 0 basechar 0
AnchorPoint: "top" 417 1400 basechar 0
AnchorPoint: "bottom" 408 0 basechar 0
LayerCount: 2
Fore
SplineSet
178 611 m 2
 178 871 l 2
 178 1068 172 1162 142 1192 c 0
 117.250976562 1216.74902344 83.787109375 1227.1640625 68 1243 c 0
 50.111328125 1260.94433594 46 1288 46 1308 c 0
 46 1361 77 1388 123 1408 c 0
 181.094726562 1433.25878906 267 1448 408 1448 c 0
 534 1448 647.325195312 1434.42285156 698 1415 c 0
 759.62890625 1391.37890625 806 1367 806 1296 c 0
 806 1269 799.744140625 1233.83984375 772 1219 c 0
 738.724609375 1201.20214844 725.599609375 1201.20019531 696 1179 c 0
 656 1149 642 1056 642 865 c 2
 642 624 l 2
 642 518 646 330 668 273 c 0
 677.662109375 247.966796875 684.942382812 232.598632812 702 224 c 0
 722.76953125 213.530273438 738 212 757 203 c 0
 794.622070312 185.178710938 809 154 809 111 c 0
 809 40 745.799804688 17.7841796875 699 6 c 0
 633.051757812 -10.6064453125 525 -28 404 -28 c 0
 288 -28 188 -13 111 13 c 0
 60.3583984375 30.099609375 27 66 27 109 c 0
 27 144 34.779296875 168.256835938 50 185 c 0
 70 207 97 213 109 223 c 0
 123.596679688 235.163085938 141 246 152 272 c 0
 176 330 178 417 178 611 c 2
EndSplineSet
EndChar

StartChar: J
Encoding: 74 74 10
Width: 922
VWidth: 1920
Flags: HMW
AnchorPoint: "top" 503 1400 basechar 0
LayerCount: 2
Fore
SplineSet
281 101 m 2
 281 921 l 2
 281 1091.32910156 261.954101562 1161.72949219 226.973632812 1193 c 0
 206.133789062 1211.62890625 169.889648438 1218.05273438 150.546875 1233 c 0
 132.362304688 1247.05273438 120 1257.99511719 120 1308 c 0
 120 1341.51757812 139.904296875 1373.29589844 184 1395.17480469 c 0
 243.633789062 1424.76464844 346.489257812 1445 499 1445 c 0
 622.633789062 1445 740.40234375 1432.56152344 812 1401.71777344 c 0
 869.776367188 1376.828125 895 1346.81445312 895 1300 c 0
 895 1265.10546875 884.538085938 1248.36328125 865.327148438 1235 c 0
 838.557617188 1216.37988281 798.180664062 1207.13574219 775.029296875 1169 c 0
 748.240234375 1124.87207031 747 1025.10058594 747 844 c 2
 747 224 l 2
 747 -269 546 -459 209 -459 c 0
 -105 -459 -239 -341 -239 -196 c 0
 -239 -79 -152 17 -14 17 c 0
 249 17 166 -232 233 -232 c 0
 245 -232 262 -221 269 -193 c 0
 280 -150 281 -46 281 101 c 2
EndSplineSet
EndChar

StartChar: K
Encoding: 75 75 11
Width: 1720
VWidth: 1920
Flags: HMW
AnchorPoint: "top" 790 1400 basechar 0
AnchorPoint: "bottom" 871 0 basechar 0
LayerCount: 2
Fore
SplineSet
179 591 m 2
 179 811 l 2
 179 1012.61035156 160.838867188 1108.10644531 134.278320312 1152 c 0
 110.907226562 1190.62304688 85.1298828125 1187.03515625 64.0458984375 1212 c 0
 50.1328125 1228.47460938 37 1247.00488281 37 1290 c 0
 37 1346 71.693359375 1375.50683594 106 1391 c 0
 168 1419 305 1440 436 1440 c 0
 541.77734375 1440 604.154296875 1436.41796875 652 1422.34863281 c 0
 728 1400 764 1363.12011719 764 1296 c 0
 764 1254.19140625 755.38671875 1235.08984375 739.797851562 1223 c 0
 726.412109375 1212.61914062 704.133789062 1207.43457031 686.208007812 1190 c 0
 674.197265625 1178.31835938 664.076171875 1162.96386719 656 1138 c 0
 645 1104 638 1073 638 1030 c 0
 638 981 638 948 655 940 c 0
 667.955078125 933.903320312 684.025390625 935.9453125 697 942 c 0
 712 949 728.661132812 961.026367188 749 990 c 2
 855 1141 l 2
 869.22265625 1161.25976562 887 1180 887 1196 c 0
 887 1207.74609375 883.430664062 1213.27148438 878.604492188 1220 c 0
 873.478515625 1227.14648438 860.8515625 1239.38476562 853.122070312 1251 c 0
 846.479492188 1260.98144531 840 1270.98730469 840 1293 c 0
 840 1415 1006 1439 1216 1439 c 0
 1393 1439 1548 1419 1548 1301 c 0
 1548 1224 1482 1188 1364 1188 c 0
 1257 1188 1245.14453125 1170.18359375 1178 1096 c 2
 1054 959 l 2
 1031.77441406 934.444335938 1040.29492188 885.788085938 1079 839 c 2
 1510 318 l 2
 1547.51855469 272.647460938 1567 257 1593 239 c 0
 1620.36816406 220.052734375 1667 203 1685 187 c 0
 1710.73925781 164.120117188 1720 146 1720 102 c 0
 1720 4 1647 -20 1537 -20 c 0
 1513 -20 1181 -26 1150 -25 c 0
 1117 -24 1108 -15 1074 26 c 2
 755 412 l 2
 727 446 694 456 674 440 c 0
 659 428 653 399 653 367 c 2
 653 316 l 2
 653 269.80078125 669.15625 238.759765625 686.911132812 220 c 0
 708.59765625 197.086914062 741.489257812 192.559570312 761.767578125 171 c 0
 775.102539062 156.822265625 783 138.995117188 783 107 c 0
 783 -6 677 -28 402 -28 c 0
 206 -28 152 -19 105 0 c 0
 55.5234375 20.0009765625 27 59 27 94 c 0
 27 130.118164062 36.5810546875 145.515625 52.4443359375 161 c 0
 71.0400390625 179.151367188 104.9296875 188.473632812 127.415039062 229 c 0
 157.079101562 282.46484375 179 383.734375 179 591 c 2
EndSplineSet
EndChar

StartChar: L
Encoding: 76 76 12
Width: 1256
VWidth: 1920
Flags: HMW
AnchorPoint: "top" 411 1390 basechar 0
AnchorPoint: "bottom" 672 0 basechar 0
LayerCount: 2
Fore
SplineSet
352 -13 m 0
 266 -13 241 -21 156 -21 c 0
 63 -21 32 54 32 101 c 0
 32 128 43.330078125 149.358398438 55 162 c 0
 67 175 86 190 112 199 c 0
 137.514648438 207.83203125 158 227 168 262 c 0
 186.326171875 326.141601562 196 419 196 590 c 2
 196 801 l 2
 196 1028 187 1135 154 1161 c 0
 134.36328125 1176.47167969 102.80078125 1180.57910156 75 1194 c 0
 46 1208 27 1231 27 1270 c 0
 27 1324 44.1982421875 1349.59960938 107 1381 c 0
 175 1415 308 1437 467 1437 c 0
 603 1437 694 1422 751 1400 c 0
 801.498046875 1380.50976562 830 1344 830 1289 c 0
 830 1244 812 1220 766 1203 c 0
 744.42578125 1195.02734375 727.345703125 1189.70117188 708 1171 c 0
 678 1142 667 1105 667 814 c 2
 667 558 l 2
 667 388 671.952148438 319.985351562 683 285 c 0
 695 247 750 236 809 236 c 0
 894 236 925 246 967 274 c 0
 1021.20507812 310.13671875 1041 372 1060 435 c 0
 1074.48339844 483.0234375 1094 499 1135 499 c 0
 1220 499 1266 417 1266 347 c 0
 1266 204 1167 -45 1061 -45 c 0
 997 -45 962 -10 894 -10 c 0
 777 -10 704 -15 619 -15 c 0
 502 -15 436 -13 352 -13 c 0
EndSplineSet
EndChar

StartChar: M
Encoding: 77 77 13
Width: 1847
VWidth: 1920
Flags: HMW
AnchorPoint: "top" 923 1400 basechar 0
AnchorPoint: "bottom" 924 0 basechar 0
LayerCount: 2
Fore
SplineSet
203 634 m 2
 211 840 l 2
 216.8984375 1045.69824219 206.08203125 1126.96484375 174.365234375 1168 c 0
 147.712890625 1202.48144531 106 1198 84.115234375 1224 c 0
 70.5546875 1240.11035156 59 1257.47949219 59 1302 c 0
 59 1337.23339844 68 1366.56933594 119 1395.42675781 c 0
 169.244140625 1423.85742188 259.989257812 1442 458 1442 c 0
 559 1442 610.424804688 1429.43066406 631 1418 c 0
 667 1398 704.446289062 1325.65039062 718 1300 c 2
 904 948 l 2
 937.970703125 883.01171875 952 859 970 859 c 0
 985 859 1002.63964844 880.022460938 1039 948 c 2
 1223 1292 l 2
 1243.61621094 1330.54296875 1265.32519531 1374.765625 1315 1403.47460938 c 0
 1358.96679688 1428.88378906 1425.47167969 1434 1534 1434 c 0
 1661.35449219 1434 1739 1418 1771 1393.99023438 c 0
 1800.39257812 1371.93652344 1820 1343.89941406 1820 1296 c 0
 1820 1254.13476562 1807.92089844 1237.01660156 1789.65039062 1224 c 0
 1770 1210 1738 1195 1710.53320312 1164 c 0
 1672.07910156 1120.59960938 1665.25195312 1021.66210938 1663 804 c 2
 1660 514 l 2
 1658.26660156 346.47265625 1669.40722656 261.756835938 1695.1171875 225 c 0
 1716.4296875 194.53125 1746 200 1769.05273438 181 c 0
 1783.30371094 169.25390625 1790 151.76171875 1790 111 c 0
 1790 64.240234375 1760.88964844 25.4345703125 1710 0.0791015625 c 0
 1646.34960938 -31.634765625 1550.3203125 -44 1454 -44 c 0
 1329.13183594 -44 1202.02636719 -39.490234375 1126 -9.6240234375 c 0
 1077.70214844 9.349609375 1053 42.134765625 1053 89 c 0
 1053 130.288085938 1062.33691406 148.131835938 1074.8515625 162 c 0
 1095.05078125 184.384765625 1119.13574219 188.172851562 1143.61621094 210 c 0
 1164.77441406 228.865234375 1187 263.676757812 1187 361 c 2
 1187 451 l 2
 1187 536 1178 556 1149 556 c 0
 1125 556 1103.2578125 511.46484375 1074 456 c 2
 863 56 l 2
 834.825195312 2.5888671875 819 -9 807 -9 c 0
 793 -9 782.708007812 1.38671875 759 55 c 2
 583 453 l 2
 559.833007812 505.388671875 531 558 509 558 c 0
 485 558 469.856445312 543.965820312 464 428 c 2
 461 333 l 2
 460.1015625 304.5546875 459 295.658203125 459 268 c 0
 459 242.360351562 464.62109375 219.172851562 476.0703125 205 c 0
 494.665039062 181.981445312 532.35546875 177.5546875 553.884765625 160 c 0
 572.469726562 144.845703125 582 126.563476562 582 97 c 0
 582 -21 467 -35 301 -35 c 0
 128 -35 27 -17 27 72 c 0
 27 103.986328125 34.7265625 129.443359375 52.451171875 149 c 0
 74.546875 173.37890625 117.841796875 175.643554688 144.430664062 203 c 0
 164.79296875 223.950195312 169.51171875 259.55859375 176 297 c 0
 186.591796875 358.12109375 198.263671875 468.8203125 203 634 c 2
EndSplineSet
AlternateSubs2: "'swsh' Swash in Latin lookup 1-1" M.swsh
EndChar

StartChar: N
Encoding: 78 78 14
Width: 1700
VWidth: 1920
Flags: HMW
AnchorPoint: "top" 854 1400 basechar 0
AnchorPoint: "bottom" 805 0 basechar 0
LayerCount: 2
Fore
SplineSet
215 551 m 2
 215 688 l 2
 215 943 190 1051 172 1117 c 0
 165 1142 160.87109375 1157.85742188 141 1176 c 0
 118 1197 77 1205 55 1226 c 0
 36 1244 27 1256 27 1288 c 0
 27 1332 59 1375 95 1397 c 0
 137 1422 261 1434 442 1434 c 0
 537 1434 552 1401 599 1359 c 2
 1106 898 l 2
 1133 873 1166 853 1197 853 c 0
 1230 853 1244 910 1244 1016 c 2
 1244 1056 l 2
 1244 1126 1221 1173 1202 1196 c 0
 1175 1228 1144 1214 1120 1238 c 0
 1108 1250 1096 1273 1096 1304 c 0
 1096 1402 1141 1442 1367 1442 c 0
 1590 1442 1673 1407 1673 1318 c 0
 1673 1280 1663 1255 1642 1238 c 0
 1614 1215 1565 1210 1547 1170 c 0
 1527 1127 1510 979 1510 819 c 2
 1510 439 l 2
 1510 55 1458 -14 1386 -14 c 0
 1350 -14 1301 17 1274 42 c 2
 663 597 l 2
 623 634 583 657 561 657 c 0
 537 657 504 646 504 471 c 2
 504 424 l 2
 504 377 518 287 533 256 c 0
 544 233 569.24609375 214.41015625 597 206 c 0
 630 196 652 165 652 125 c 0
 652 27 529 -25 363 -25 c 0
 200 -25 64 -1 64 104 c 0
 64 145.58203125 79.400390625 172.74609375 100.28515625 189 c 0
 124.778320312 208.0625 156.815429688 215.497070312 180.3984375 264 c 0
 204.67578125 313.9296875 215 430.774414062 215 551 c 2
EndSplineSet
AlternateSubs2: "'swsh' Swash in Latin lookup 1-1" N.swsh
EndChar

StartChar: O
Encoding: 79 79 15
Width: 1618
VWidth: 1920
Flags: HMW
AnchorPoint: "bottom" 830 0 basechar 0
AnchorPoint: "top" 808 1400 basechar 0
LayerCount: 2
Fore
SplineSet
59 671 m 256
 59 1132 411 1450 846 1450 c 256
 1273 1450 1559 1114 1559 718 c 256
 1559 295 1227 -55 800 -55 c 256
 357 -55 59 256 59 671 c 256
894 254 m 256
 998 254 1064 341 1064 451 c 256
 1064 779 912 1132 731 1132 c 256
 645 1132 569 1056 569 917 c 256
 569 614 711 254 894 254 c 256
EndSplineSet
EndChar

StartChar: P
Encoding: 80 80 16
Width: 1410
VWidth: 1920
Flags: HMW
AnchorPoint: "top" 632 1400 basechar 0
AnchorPoint: "bottom" 433 0 basechar 0
LayerCount: 2
Fore
SplineSet
714 744 m 0
 840 744 901 833 901 973 c 0
 901 1103 818 1199 736 1199 c 0
 718.169921875 1199 699.963867188 1195.12011719 691.216796875 1184 c 0
 676.571289062 1165.38183594 673 1100.98535156 673 1044 c 2
 673 968 l 2
 673 916 673.328125 818.9375 676 794 c 0
 679 766 676 744 714 744 c 0
683 476 m 2
 683 393 l 2
 683 283.475585938 702.064453125 242.139648438 727.229492188 218 c 0
 751.33203125 194.879882812 786.560546875 191.66015625 809.344726562 176 c 0
 827.106445312 163.791992188 838 147.720703125 838 113 c 0
 838 67.9912109375 818.520507812 25.96484375 763 -1.49609375 c 0
 702.149414062 -31.59375 598.20703125 -45 434 -45 c 0
 332.454101562 -45 223.404296875 -43.869140625 146 -17.9111328125 c 0
 83.02734375 3.20703125 41 43.462890625 41 91 c 0
 41 124.712890625 52.126953125 152.696289062 75.6279296875 168 c 0
 97.859375 182.4765625 138.825195312 187.124023438 165.934570312 219 c 0
 194 252 206 375.245117188 206 591 c 2
 206 898 l 2
 206 1088.08789062 196.7734375 1164.17871094 163.55859375 1190 c 0
 129.791992188 1216.24902344 75.8359375 1205.81640625 52 1228.45605469 c 0
 39.162109375 1240.65039062 27 1249.46972656 27 1298 c 0
 27 1382 102 1417 169 1417 c 0
 237 1417 286 1411 388 1411 c 0
 550 1411 727 1446 896 1446 c 0
 1173 1446 1383 1306 1383 1036 c 0
 1383 712 1191 507 897 507 c 0
 756 507 726 508 709 508 c 0
 699 508 683 501 683 476 c 2
EndSplineSet
AlternateSubs2: "'swsh' Swash in Latin lookup 1-1" P.swsh
EndChar

StartChar: Q
Encoding: 81 81 17
Width: 1618
VWidth: 1920
Flags: HMW
AnchorPoint: "top" 895 1400 basechar 0
LayerCount: 2
Fore
SplineSet
1113 -81 m 0
 1190.45703125 -107.729492188 1270 -122 1351 -122 c 0
 1430 -122 1462 -108 1475 -102 c 0
 1483.12109375 -98.251953125 1490 -93 1503 -93 c 0
 1536 -93 1568 -142 1568 -192 c 0
 1568 -311 1355 -455 1117 -455 c 0
 759 -455 385 -128 199 -128 c 0
 178 -128 137 -129 124 -129 c 0
 80 -129 56 -108 56 -72 c 0
 56 -21 98 87 206 87 c 0
 228 87 241.017578125 84.6240234375 252 84 c 0
 268.782226562 83.0458984375 280.002929688 88.173828125 284.443359375 96 c 0
 289.311523438 104.578125 286.03125 116.3984375 273 127 c 0
 155 223 50 412 50 672 c 0
 50 1154 390 1445 836 1445 c 0
 1295 1445 1565 1076 1565 658 c 0
 1565 318 1343 32 1114 -38 c 0
 1092.93945312 -44.4375 1075 -41 1075 -53 c 0
 1075 -66 1085.60644531 -71.546875 1113 -81 c 0
888 254 m 256
 992 254 1058 341 1058 451 c 256
 1058 779 906 1132 725 1132 c 256
 639 1132 563 1056 563 917 c 256
 563 614 705 254 888 254 c 256
EndSplineSet
EndChar

StartChar: R
Encoding: 82 82 18
Width: 1615
VWidth: 1920
Flags: HMW
AnchorPoint: "top" 760 1400 basechar 0
AnchorPoint: "bottom" 881 0 basechar 0
LayerCount: 2
Fore
SplineSet
657 526 m 2
 657 414 l 2
 657 329.081054688 663.65625 250.068359375 683.8046875 217 c 0
 707.538085938 178.047851562 739.620117188 173.676757812 766.44921875 152 c 0
 784.141601562 137.705078125 798 125.377929688 798 83 c 0
 798 42.373046875 766.985351562 3.2646484375 697 -14.76171875 c 0
 639.123046875 -29.669921875 551.174804688 -37 423 -37 c 0
 270.174804688 -37 172.244140625 -34.5888671875 113 -14.1328125 c 0
 56.251953125 5.4609375 35 42.107421875 35 87 c 0
 35 132.892578125 45.748046875 150.274414062 64.7060546875 164 c 0
 84.8740234375 178.6015625 122.689453125 174.653320312 144.388671875 225 c 0
 168.877929688 281.819335938 182 411.59765625 182 611 c 2
 182 890 l 2
 182 1048.96289062 176.147460938 1140.24609375 142.1328125 1185 c 0
 117.677734375 1217.17675781 73.8251953125 1217.18554688 51.0166015625 1235 c 0
 35.798828125 1246.88574219 27 1267.05761719 27 1299 c 0
 27 1364 85 1425 212 1425 c 0
 310 1425 466 1417 568 1417 c 0
 720 1417 773 1426 922 1426 c 0
 1179 1426 1368 1276 1368 1066 c 0
 1368 909 1309 801 1198 754 c 0
 1179.83789062 746.309570312 1158 732 1158 714 c 0
 1158 697 1180.17675781 681.688476562 1197 677 c 0
 1258 660 1342.66308594 624.7421875 1388 525 c 0
 1463 360 1433.35839844 230.635742188 1496 192 c 0
 1528.75488281 171.797851562 1551 171 1567 163 c 0
 1591.14941406 150.924804688 1600 136 1600 105 c 0
 1600 9 1478 -61 1288 -61 c 0
 1148 -61 1039.49414062 -24.560546875 989 42 c 0
 901 158 896.958007812 358.974609375 827 497 c 0
 790 570 751 571 719 571 c 0
 698 571 683.592773438 569.979492188 673 565 c 0
 663.602539062 560.583007812 657 551 657 526 c 2
721 800 m 0
 827 800 855 882 855 1012 c 0
 855 1122 813 1197 721 1197 c 0
 696 1197 670 1197 661 1171 c 0
 653.135742188 1148.28125 646 1088 646 1013 c 2
 646 938 l 2
 646 886 647 853 649 828 c 0
 652 800 673 800 721 800 c 0
EndSplineSet
AlternateSubs2: "'swsh' Swash in Latin lookup 1-1" R.swsh
EndChar

StartChar: S
Encoding: 83 83 19
Width: 1273
VWidth: 1920
Flags: HMW
AnchorPoint: "top" 607 1400 basechar 0
AnchorPoint: "bottom" 607 0 basechar 0
LayerCount: 2
Fore
SplineSet
281 411 m 0
 341 301 463 257 552 257 c 256
 652 257 705 284 705 335 c 256
 705 391 674.834960938 413.911132812 503 464 c 0
 239.28515625 540.87109375 49 688 49 963 c 256
 49 1273 325 1439 613 1439 c 256
 777 1439 799 1409 837 1409 c 0
 874 1409 903 1440 947 1440 c 0
 1052 1440 1185 1241 1185 1104 c 0
 1185 1021 1119 959 1054 959 c 0
 1008.94726562 959 973.78125 974.134765625 941 1002.50195312 c 0
 916.475585938 1023.72460938 891.874023438 1049.45605469 866 1072.92871094 c 0
 819.073242188 1115.5 761.65625 1151 683 1151 c 256
 616 1151 571 1119 571 1069 c 256
 571 991 677 974 799 942 c 0
 1034.84570312 880.138671875 1233 777 1233 508 c 256
 1233 191 942 -35 593 -35 c 256
 384 -35 209.78125 21.6279296875 130 101 c 0
 96.3046875 134.522460938 40 294 40 419 c 0
 40 493 73 535 130 535 c 0
 206 535 257.4140625 454.240234375 281 411 c 0
EndSplineSet
EndChar

StartChar: T
Encoding: 84 84 20
Width: 1385
VWidth: 1920
Flags: HMW
AnchorPoint: "top" 678 1400 basechar 0
AnchorPoint: "bottom" 678 0 basechar 0
LayerCount: 2
Fore
SplineSet
454 631 m 2
 454 861 l 2
 454 989 451.740234375 1070.84863281 431 1096 c 0
 411.608398438 1119.515625 385.330078125 1118.44824219 365 1086 c 0
 327.393554688 1025.97753906 296 980 249 923 c 0
 214.829101562 881.55859375 178 873 129 873 c 0
 41 873 0 947 0 1032 c 0
 0 1222 149 1439 232 1439 c 0
 289 1439 291 1420 404 1420 c 2
 946 1420 l 2
 1069 1420 1080 1450 1147 1450 c 0
 1230 1450 1385 1281 1385 1081 c 0
 1385 926 1302 895 1224 895 c 0
 1175 895 1134 910 1102 951 c 0
 1059.58203125 1005.34765625 1053.09179688 1053.90820312 1004 1103 c 0
 984 1123 965 1124 951 1114 c 0
 932.073242188 1100.48046875 922 1014 922 874 c 2
 922 614 l 2
 922 458 930.198242188 403.122070312 935 350 c 0
 940.051757812 294.114257812 954.890625 271.8125 977 256.325195312 c 0
 1004.39453125 237.135742188 1043.08398438 232.6796875 1068.11523438 216 c 0
 1089.10058594 202.015625 1104 182.626953125 1104 127 c 0
 1104 68.486328125 1064 29 1001 3.994140625 c 0
 939.141601562 -20.55859375 838.907226562 -35 680 -35 c 0
 494.1875 -35 404.069335938 -23.1787109375 338 16.6904296875 c 0
 275.952148438 54.1318359375 268 95.0029296875 268 124 c 0
 268 155.838867188 280.760742188 176.875 298.217773438 195 c 0
 324.958007812 222.763671875 373.670898438 223.211914062 402.950195312 250 c 0
 420.372070312 265.939453125 425.936523438 294.63671875 432 321 c 0
 446.069335938 382.171875 454 457 454 631 c 2
EndSplineSet
AlternateSubs2: "'swsh' Swash in Latin lookup 1-1" T.swsh
EndChar

StartChar: U
Encoding: 85 85 21
Width: 1672
VWidth: 1920
Flags: HMW
AnchorPoint: "ogonek" 1109 0 basechar 0
AnchorPoint: "top" 873 1400 basechar 0
AnchorPoint: "bottom" 814 0 basechar 0
LayerCount: 2
Fore
SplineSet
1494 884 m 2
 1486 534 l 18
 1477.78417969 154.004882812 1256 -45 799 -45 c 0
 402 -45 164 151 164 528 c 2
 164 891 l 2
 164 1058.97265625 148.349609375 1096.8359375 124.16015625 1125 c 0
 103.830078125 1148.67089844 74.8525390625 1153.52636719 55.2861328125 1171 c 0
 39.298828125 1185.27636719 27 1205.09570312 27 1258 c 0
 27 1296.27441406 42.123046875 1333.9296875 85 1363.26074219 c 0
 152.170898438 1409.20996094 256.822265625 1445 428 1445 c 0
 562.883789062 1445 661.03515625 1438.2734375 726 1412.16992188 c 0
 793.315429688 1385.12207031 825 1336.00683594 825 1287 c 0
 825 1239.56445312 809.272460938 1215.54492188 794.704101562 1204 c 0
 775.024414062 1188.40429688 748.552734375 1180.19824219 725.50390625 1164 c 0
 692.548828125 1140.83984375 674 1089.88671875 674 867 c 2
 674 648 l 2
 674 388 782 325 959 325 c 0
 1136 325 1198 409 1198 658 c 2
 1198 947 l 2
 1198 1060.12011719 1187.23144531 1155.40332031 1160.875 1187 c 0
 1133.20410156 1220.17285156 1088.65234375 1213.54296875 1065.35546875 1235 c 0
 1048.12597656 1250.86816406 1036 1261.84472656 1036 1304 c 0
 1036 1399 1138 1455 1344 1455 c 0
 1537 1455 1645 1395 1645 1310 c 0
 1645 1261.17480469 1632.75683594 1240.97167969 1615.23144531 1226 c 0
 1593.52636719 1207.45703125 1543.71875 1204.9375 1519.03613281 1158 c 0
 1495.82519531 1113.86035156 1497.14648438 1029.51367188 1494 884 c 2
EndSplineSet
EndChar

StartChar: V
Encoding: 86 86 22
Width: 1626
VWidth: 1920
Flags: HMW
AnchorPoint: "top" 839 1400 basechar 0
AnchorPoint: "bottom" 800 0 basechar 0
LayerCount: 2
Fore
SplineSet
1095 1058 m 0
 1107 1086 1119 1123 1119 1154 c 0
 1119 1174 1113 1193 1097 1203 c 0
 1077 1215 1057 1218 1042 1235 c 0
 1034 1243 1022 1260 1022 1292 c 0
 1022 1406 1186 1435 1359 1435 c 0
 1550 1435 1636 1369 1636 1301 c 0
 1636 1259 1619 1233 1595 1218 c 0
 1562 1197 1517 1210 1482 1187 c 0
 1438 1158 1414 1096 1373 998 c 2
 1169 514 l 2
 1081 306 1018 146 988 85 c 0
 947 0 899 -67 804 -67 c 0
 685 -67 632.666015625 29.85546875 575 164 c 0
 434 492 333.002929688 675.069335938 201 1000 c 0
 173.452148438 1067.80957031 148.947265625 1112.78222656 110.990234375 1134 c 0
 77 1153 47 1144 19.333984375 1163 c 0
 0.1669921875 1176.1640625 -10 1200.18457031 -10 1234 c 0
 -10 1298.01855469 26.20703125 1340.65234375 94 1371.95800781 c 0
 188.0078125 1415.37011719 335.448242188 1425 456 1425 c 0
 575.634765625 1425 688.798828125 1410.93359375 753 1369.61230469 c 0
 794.598632812 1342.83789062 811 1300.56054688 811 1257 c 0
 811 1220.82128906 791.3125 1199.96386719 772 1192.14648438 c 0
 757.841796875 1186.41503906 746.814453125 1188.54199219 732.256835938 1181 c 0
 720.802734375 1175.06640625 717 1166.76074219 717 1140 c 0
 717 1108 740.228515625 1063.72265625 751 1035 c 0
 769 987 792 943 822 882 c 0
 843.732421875 837.810546875 884 733 926 733 c 0
 963 733 981 801 1005 854 c 0
 1036 924 1051.24121094 955.896484375 1095 1058 c 0
EndSplineSet
EndChar

StartChar: W
Encoding: 87 87 23
Width: 2364
VWidth: 1920
Flags: HMW
AnchorPoint: "top" 1156 1400 basechar 0
AnchorPoint: "bottom" 1158 0 basechar 0
LayerCount: 2
Fore
SplineSet
1842 1055 m 4
 1858 1103 1873 1134 1873 1165 c 4
 1873 1191.30957031 1858.15332031 1209.8203125 1838.8203125 1220 c 4
 1819.39257812 1230.22949219 1799.5234375 1236.65234375 1784 1248.16503906 c 4
 1772.72558594 1256.52636719 1758 1272.81835938 1758 1310 c 4
 1758 1424 1883 1441 2096 1441 c 4
 2327 1441 2374 1384 2374 1316 c 4
 2374 1276.76367188 2361 1256 2335.25878906 1240 c 4
 2302.15917969 1219.42578125 2251.03222656 1222.6328125 2210.67773438 1191 c 4
 2166.35351562 1156.25488281 2122.93066406 1054.03808594 2088 973 c 4
 1910.33203125 560.810546875 1807 261 1720 60 c 4
 1683 -25 1653 -71 1568 -71 c 4
 1489 -71 1460 5 1402 139 c 4
 1333 299 1284 411 1223 573 c 4
 1207 615 1196 623 1178 623 c 4
 1160 623 1146 603 1130 557 c 4
 1047 321 1006 198 946 60 c 4
 909 -25 879 -71 794 -71 c 4
 725 -71 681 -65 623 69 c 4
 482 397 349.240234375 715.548828125 196 1028 c 4
 173.864257812 1073.13476562 140.146484375 1148.31054688 107 1160.82519531 c 4
 77.9365234375 1171.79882812 56.337890625 1166.51660156 28.451171875 1178 c 4
 3.7080078125 1188.18847656 -10 1211.0703125 -10 1249 c 4
 -10 1283.16210938 2.943359375 1324.86230469 49 1355.68652344 c 4
 120.85546875 1403.77734375 258.97265625 1430 444 1430 c 4
 562.1015625 1430 668.41015625 1417.19628906 732 1384.4375 c 4
 772.938476562 1363.34765625 795 1332.81542969 795 1296 c 4
 795 1269.31933594 792.326171875 1259.71582031 782.41796875 1249 c 4
 772.916015625 1238.72363281 759.8984375 1228.9921875 749.02734375 1217 c 4
 739.5625 1206.55859375 734 1190.99609375 734 1164 c 4
 734 1132 757.767578125 1087.91894531 768 1059 c 4
 791 994 805 963 849 869 c 4
 869.546875 825.104492188 896 766 921 766 c 4
 942 766 949.828125 788.655273438 976 841 c 4
 986 861 996 882 1012 920 c 4
 1024.39941406 949.44921875 1034 973 1034 988 c 4
 1034 1004 1026.39355469 1023.01464844 1011 1056 c 4
 1004 1071 996 1094 986 1119 c 4
 965.279296875 1170.80273438 960.509765625 1188.69140625 942.513671875 1199 c 4
 924.8046875 1209.14453125 908.513671875 1217.56347656 888.815429688 1235 c 4
 873 1249 865 1265.32714844 865 1298 c 4
 865 1357.91894531 895.325195312 1383.71191406 958 1403.44335938 c 4
 1037.80761719 1428.56835938 1166.71777344 1430 1304 1430 c 4
 1399.57617188 1430 1503.79980469 1425.05371094 1569 1401.37109375 c 4
 1618.40625 1383.42578125 1642 1351.31445312 1642 1322 c 4
 1642 1290.65234375 1635.13964844 1267.95703125 1620.27050781 1257 c 4
 1603.45898438 1244.61132812 1579.87890625 1237.67773438 1560.63476562 1228 c 4
 1541.72363281 1218.49023438 1527 1202.33105469 1527 1175 c 4
 1527 1143 1536.86621094 1124.953125 1547 1096 c 4
 1568 1036 1587 997 1633 881 c 4
 1650.86621094 835.946289062 1674 778 1705 778 c 4
 1731 778 1746.50976562 810.319335938 1772 863 c 4
 1787 894 1811.8984375 964.6953125 1842 1055 c 4
EndSplineSet
EndChar

StartChar: X
Encoding: 88 88 24
Width: 1596
VWidth: 1920
Flags: HMW
LayerCount: 2
Fore
SplineSet
919 1088 m 10
 950 1145 l 2
 965.551757812 1173.59472656 974 1191 974 1212 c 0
 974 1223.10546875 965.970703125 1232.30761719 957 1237.78515625 c 0
 941.174804688 1247.44824219 927.192382812 1248.41015625 910 1257.10742188 c 0
 898.8671875 1262.73828125 882 1281.12890625 882 1305 c 0
 882 1409 957 1442 1220 1442 c 0
 1471 1442 1486 1354 1486 1316 c 0
 1486 1266.1171875 1465.03125 1236.71191406 1427 1221.4140625 c 0
 1388.60449219 1205.96972656 1349.70703125 1210.19921875 1314 1202.18066406 c 0
 1278.51855469 1194.21289062 1239.90136719 1176.23925781 1169 1076 c 2
 1024 871 l 2
 1014.06640625 856.955078125 1004 846 1004 838 c 0
 1004 830 1014.23535156 818.430664062 1022 808 c 2
 1386 319 l 2
 1413.33105469 276.907226562 1432.45410156 257.188476562 1460 242.627929688 c 0
 1495.72753906 223.743164062 1535.07324219 218.079101562 1560 201.705078125 c 0
 1582.17871094 187.13671875 1596 165.612304688 1596 131 c 0
 1596 74.310546875 1570.22753906 32.5712890625 1502 3.8759765625 c 0
 1432.85253906 -25.2060546875 1320.36816406 -35 1188 -35 c 0
 1023.35058594 -35 922.947265625 -32.4384765625 862 -17.109375 c 0
 790 1 768 43.365234375 768 81 c 0
 768 116.287109375 777.573242188 140.86328125 789.290039062 155 c 0
 806.458984375 175.71484375 830.405273438 178.317382812 840 183.086914062 c 0
 846.650390625 186.392578125 849 195.315429688 849 203 c 0
 849 225 838.65625 240.609375 826 260 c 2
 731 406 l 2
 715.7578125 429.424804688 708 434 696 434 c 0
 685 434 673.3515625 420.01953125 656 393 c 2
 586 284 l 2
 565.256835938 251.69921875 555 233 555 214 c 0
 555 194.30078125 560.84375 183.1796875 569.942382812 171 c 0
 580.436523438 156.954101562 603.287109375 147.211914062 617.215820312 134 c 0
 631.684570312 120.275390625 642 102.806640625 642 74 c 0
 642 -10 563 -45 300 -45 c 0
 49 -45 0 -8 0 70 c 0
 0 136.581054688 35.7822265625 166.428710938 66 176.982421875 c 0
 93.412109375 186.556640625 127.495117188 178.93359375 167 187.155273438 c 0
 213.9375 196.923828125 264.227539062 249.228515625 316 325 c 2
 508 606 l 2
 519.166015625 622.341796875 536 648 536 662 c 0
 536 672 532.883789062 675.821289062 523 689 c 2
 235 1073 l 2
 211.342773438 1104.54296875 180.495117188 1132.26464844 152 1152.50390625 c 0
 123.073242188 1173.04980469 82.9267578125 1168.98046875 54 1190.43261719 c 0
 31.087890625 1207.42382812 17 1228.94433594 17 1264 c 0
 17 1315.42871094 37.498046875 1348.32519531 76 1372.13867188 c 0
 161.381835938 1424.94628906 331.384765625 1438 535 1438 c 0
 638.2734375 1438 709.677734375 1430.16796875 756 1409.8046875 c 0
 813.646484375 1384.46289062 833 1341.359375 833 1289 c 0
 833 1250.57617188 824.703125 1235.01953125 812.848632812 1224 c 0
 803.166015625 1214.99902344 792.735351562 1208.15332031 782.708984375 1203 c 0
 773.831054688 1198.43652344 767 1192.34472656 767 1181 c 0
 767 1168 771.014648438 1159.42773438 784 1145 c 2
 838 1085 l 2
 852.029296875 1070.97070312 867 1052 879 1052 c 0
 892 1052 910 1073 919 1088 c 10
EndSplineSet
EndChar

StartChar: Y
Encoding: 89 89 25
Width: 1527
VWidth: 1920
Flags: HMW
AnchorPoint: "top" 860 1400 basechar 0
LayerCount: 2
Fore
SplineSet
925 1093 m 2
 971 1164 l 2
 983.188476562 1182.81152344 988 1192 988 1203 c 0
 988 1218.59667969 981.749023438 1224.87011719 973 1231.05078125 c 0
 961.772460938 1238.98339844 946.875976562 1239.82421875 933.901367188 1256 c 0
 926.373046875 1265.38574219 919 1274.73046875 919 1306 c 0
 919 1391 974.079101562 1443 1270 1443 c 0
 1481 1443 1527 1416 1527 1321 c 0
 1527 1276.03808594 1510.61425781 1250.25097656 1487 1234.69921875 c 0
 1454.08886719 1213.02539062 1411.31738281 1218.82226562 1364 1197.92480469 c 0
 1336.7578125 1185.89257812 1312.40820312 1162.88574219 1288 1132 c 2
 1028 803 l 2
 1003.59375 772.116210938 1003 755 1003 718 c 0
 1003 462 1003.52246094 348.12109375 1021 288 c 0
 1027.37695312 266.064453125 1035.80859375 248.369140625 1050.34960938 237 c 0
 1070.24511719 221.443359375 1104.18652344 215.623046875 1122.97460938 200 c 0
 1143.45410156 182.970703125 1151 157 1151 123 c 0
 1151 86.2275390625 1136.89160156 44.40625 1089 17.6865234375 c 0
 1034.35351562 -12.802734375 935 -33 757 -33 c 0
 654.926757812 -33 530.284179688 -31.3447265625 445 -3.6875 c 0
 385.383789062 15.646484375 345 50.2421875 345 95 c 0
 345 135.603515625 358.39453125 159.09375 378.778320312 178 c 0
 403.524414062 200.952148438 444.173828125 207.620117188 467.94921875 232 c 0
 484.768554688 249.247070312 487.646484375 272.8515625 491 298 c 0
 499.24609375 359.846679688 495 434 495 678 c 0
 495 727 484.323242188 746.122070312 465 770 c 2
 185 1116 l 2
 171.973632812 1132.09667969 153.741210938 1154.83691406 126 1169.39160156 c 0
 97.3447265625 1184.42578125 58.013671875 1190.39550781 32.6953125 1214 c 0
 10.2158203125 1234.95800781 0 1256.89160156 0 1296 c 0
 0 1341.79492188 36.119140625 1378.53027344 90 1398.09277344 c 0
 185.900390625 1432.90917969 338.069335938 1435 443 1435 c 0
 545.036132812 1435 651.663085938 1431.10742188 718 1413.73046875 c 0
 782.706054688 1396.78125 819 1355.89648438 819 1311 c 0
 819 1273.82910156 804.856445312 1259.61035156 792.017578125 1247 c 0
 783.400390625 1238.53515625 773.118164062 1230.25 765.67578125 1222 c 0
 759.294921875 1214.92578125 754 1209.67382812 754 1195 c 0
 754 1183 770.50390625 1154.65820312 781 1140 c 2
 839 1059 l 2
 845.53515625 1049.87402344 858 1045 870 1045 c 0
 892 1045 903.9765625 1060.55078125 925 1093 c 2
EndSplineSet
AlternateSubs2: "'swsh' Swash in Latin lookup 1-1" Y.swsh
EndChar

StartChar: Z
Encoding: 90 90 26
Width: 1390
VWidth: 1920
Flags: HMW
AnchorPoint: "top" 650 1400 basechar 0
LayerCount: 2
Fore
SplineSet
455 -17 m 0
 369 -17 206 -26 122 -26 c 0
 69 -26 28 4 28 45 c 0
 28 88 54.046875 118.322265625 85 174 c 2
 577 1059 l 2
 589.263671875 1081.05957031 605 1105 605 1125 c 0
 605 1163 552 1185 488 1185 c 0
 446 1185 407 1178 362 1165 c 4
 335.73046875 1157.41113281 306.384765625 1133.93261719 286.909179688 1106 c 0
 260.665039062 1068.359375 245.075195312 1018.44140625 229.0546875 983 c 0
 210.203125 941.295898438 181.962890625 915 145 915 c 0
 60 915 15 991 15 1069 c 0
 15 1192 119 1446 195 1446 c 0
 249 1446 271 1427 319 1427 c 0
 465 1427 536 1427 791 1427 c 0
 877 1427 1076 1437 1160 1437 c 0
 1223 1437 1266 1407 1266 1363 c 0
 1266 1319 1245.63867188 1289.72460938 1228 1256 c 2
 751 344 l 2
 742.908203125 328.528320312 725 298 725 277 c 0
 725 242 763 223 857 223 c 0
 939 223 957 228 998 235 c 0
 1052.09179688 244.235351562 1076.55957031 273.760742188 1098.21875 306 c 0
 1132.48339844 357.001953125 1152.40136719 419.765625 1173.92675781 458 c 0
 1185.88867188 479.24609375 1206.45410156 493 1232 493 c 0
 1317 493 1375 430 1375 352 c 0
 1375 149 1254 -40 1188 -40 c 0
 1134 -40 1085 -19 1037 -19 c 0
 891 -19 750 -17 455 -17 c 0
EndSplineSet
EndChar

StartChar: a
Encoding: 97 97 27
Width: 1186
VWidth: 1920
Flags: HMW
AnchorPoint: "ogonek" 1038 100 basechar 0
AnchorPoint: "top" 573 1000 basechar 0
LayerCount: 2
Fore
SplineSet
96 757 m 0
 96 816.956054688 116.768554688 861.916015625 162 901.739257812 c 0
 275.346679688 1001.53222656 478.015625 1050 611 1050 c 0
 833 1050 1042 953 1042 719 c 2
 1042 514 l 2
 1042 316 1065 268 1104 261 c 0
 1117.78027344 258.526367188 1131.03125 257.747070312 1140 257 c 0
 1152 256 1159 248 1159 228 c 0
 1159 112 1011 -16 834 -16 c 0
 758 -16 720 -13 666 62 c 0
 656.416015625 75.310546875 645 79 636 79 c 0
 627 79 607.162109375 67.736328125 579 43 c 0
 505 -22 412 -25 349 -25 c 0
 165 -25 27 76 27 260 c 0
 27 464 226 596 483 596 c 0
 523 596 565 591 584 591 c 0
 602 591 604 598 604 627 c 2
 604 641 l 2
 604 795 575 869 516 869 c 0
 482 869 461.397460938 852.75 438 828 c 0
 418.934570312 807.83203125 376.34765625 731.57421875 350 708 c 0
 312 674 267 646 212 646 c 0
 151 646 96 685 96 757 c 0
604 346 m 2
 604 379 l 2
 604 395.083007812 602.098632812 412.627929688 594.294921875 424 c 0
 586.797851562 434.92578125 573.69921875 440 559 440 c 0
 501 440 447 396 447 322 c 0
 447 254 472 204 535 204 c 0
 574 204 604 221 604 346 c 2
EndSplineSet
EndChar

StartChar: l
Encoding: 108 108 28
Width: 760
VWidth: 1920
Flags: HMW
AnchorPoint: "top" 404 1387 basechar 0
LayerCount: 2
Fore
SplineSet
204 591 m 6
 204 813 l 6
 204 960 186 1051 134 1082 c 4
 103.936523438 1099.921875 85.9072265625 1099.48046875 67 1106 c 4
 38 1116 20 1142 20 1172 c 4
 20 1224 39.62890625 1252.15429688 82 1279 c 4
 213 1362 436 1411 567 1411 c 4
 608 1411 633 1405 633 1361 c 4
 633 1235 614 1022 614 836 c 6
 614 604 l 6
 614 348 625 286 642 240 c 4
 650.432617188 216.576171875 662.358398438 202.889648438 675 193.133789062 c 4
 690.625976562 181.075195312 709.344726562 175.01953125 721.9140625 163 c 4
 733.356445312 152.056640625 740 138.668945312 740 110 c 4
 740 34 656 -15 417 -15 c 4
 167 -15 40 7 40 94 c 4
 40 133 59 152 78 163 c 4
 93.578125 172.018554688 116 180 131 188 c 4
 147.764648438 196.94140625 164.266601562 212.583984375 171 240 c 4
 185 297 204 427 204 591 c 6
EndSplineSet
EndChar

StartChar: v
Encoding: 118 118 29
Width: 1213
VWidth: 1920
Flags: HMW
LayerCount: 2
Fore
SplineSet
788 765 m 4
 795.291015625 782.31640625 797 796 797 809 c 4
 797 824.23828125 792.797851562 834.967773438 782 842.75390625 c 4
 775.051757812 847.763671875 760.877929688 851.456054688 749.1015625 864 c 4
 738.2734375 875.533203125 728 891.059570312 728 924 c 4
 728 1030 874 1045 994 1045 c 4
 1149 1045 1223 1037 1223 948 c 4
 1223 895 1189 852 1119 842 c 4
 1081.38183594 836.625976562 1060.28808594 821.193359375 1033 754 c 6
 856 306 l 6
 814.055664062 202.717773438 759.739257812 98.1181640625 743 61 c 4
 720 10 682 -49 623 -49 c 4
 562 -49 511.083984375 11.767578125 466 88 c 4
 356 274 290.28515625 449.249023438 206 640 c 4
 168 726 142 770 112 783.416015625 c 4
 87.37890625 794.426757812 62 789 40 798.841796875 c 4
 14.318359375 810.331054688 -10 833.065429688 -10 886 c 4
 -10 921.305664062 -2.708984375 948.931640625 23 974.868164062 c 4
 67.8115234375 1020.07617188 208.350585938 1045 364 1045 c 4
 583 1045 676 1012 676 921 c 4
 676 893 662.90625 870.31640625 624 846 c 4
 600 831 597 814 597 798 c 4
 597 788 600.430664062 779.178710938 604 770 c 4
 618 734 643 686 650 670 c 4
 661.8359375 642.946289062 675 619 699 619 c 4
 731 619 744.53125 653.6171875 759 686 c 4
 780 733 780 746 788 765 c 4
EndSplineSet
EndChar

StartChar: paragraph
Encoding: 182 182 32
Width: 2083
Flags: HMW
LayerCount: 2
Fore
SplineSet
50 698 m 0
 50 1302 610 1500 1034 1500 c 0
 1298 1500 1474.65722656 1400.62402344 1554 1347 c 0
 1605.64257812 1312.09765625 1685 1264 1685 1160 c 0
 1685 1049.90039062 1654 188 1654 28 c 0
 1654 -78.0517578125 1721 -107 1773 -107 c 0
 1825 -107 1897 -83 1939 -83 c 0
 2001 -83 2033 -124.887695312 2033 -206 c 0
 2033 -397 1768 -436 1426 -436 c 0
 1294 -436 1280 -394 1280 -315 c 0
 1280 -246 1332 768 1332 876 c 0
 1332 984 1324 1064 1276 1120 c 0
 1228 1176 1172 1208 1084 1208 c 0
 956 1208 852 1096 852 746 c 0
 852 336 938.493164062 303 1012 303 c 0
 1070 303 1070 385.231445312 1070 480 c 0
 1070 828 1008 903.252929688 1008 980 c 0
 1008 1048 1060 1090 1132 1090 c 0
 1204 1090 1238 1036 1238 962 c 0
 1238 867.501953125 1242 340.111328125 1242 268 c 0
 1242 190 1232 124 1206 98 c 0
 1168.92578125 60.92578125 1074 -42 792 -42 c 0
 480 -42 50 154 50 698 c 0
EndSplineSet
EndChar

StartChar: b
Encoding: 98 98 33
Width: 1334
VWidth: 1920
Flags: HMW
LayerCount: 2
Fore
SplineSet
164 618 m 6
 165 724 l 6
 165 910 162 958 150 1000 c 4
 144.814453125 1017.6328125 137.745117188 1039.92089844 118 1051.20996094 c 4
 91.404296875 1066.41503906 52.140625 1066.80664062 28.8232421875 1084 c 4
 11.9931640625 1096.40917969 0 1123.37304688 0 1149 c 4
 0 1200 33.3994140625 1249.28320312 83 1271 c 4
 268 1352 431 1389 552 1389 c 4
 585 1389 612 1363 612 1336 c 4
 612 1260 594 1195 594 1049 c 6
 594 993 l 6
 594 929 602 906 616 906 c 4
 629 906 645.129882812 926.85546875 683 961 c 4
 744 1016 833 1047 910 1047 c 4
 1152 1047 1299 837 1299 590 c 4
 1299 179 983 -35 683 -35 c 4
 507 -35 414 31 342 79 c 4
 321.961914062 92.3583984375 312 103 303 103 c 4
 294 103 280.540039062 95.2451171875 258 85 c 4
 236 75 205 66 175 66 c 4
 142 66 127 90 127 117 c 4
 127 161 157 215 157 322 c 4
 157 377 163.35546875 440.001953125 164 618 c 6
717 173 m 4
 806 173 838 274 838 439 c 4
 838 634 745 701 684 701 c 4
 638.833984375 701 602 678 602 573 c 6
 602 303 l 6
 602 245 619 173 717 173 c 4
EndSplineSet
EndChar

StartChar: o
Encoding: 111 111 34
Width: 1205
VWidth: 1920
Flags: HMW
AnchorPoint: "top" 606 1000 basechar 0
LayerCount: 2
Fore
SplineSet
35 496 m 260
 35 790 287 1045 644 1045 c 260
 936 1045 1170 848 1170 531 c 260
 1170 220 904 -28 574 -28 c 260
 270 -28 35 182 35 496 c 260
640 200 m 260
 699 200 734 264 734 329 c 260
 734 484 687 793 566 793 c 260
 513 793 474 741 474 667 c 260
 474 489 522 200 640 200 c 260
EndSplineSet
EndChar

StartChar: n
Encoding: 110 110 35
Width: 1372
VWidth: 1920
Flags: HMW
AnchorPoint: "bottom" 543 0 basechar 0
AnchorPoint: "top" 677.945 999.1 basechar 0
LayerCount: 2
Fore
SplineSet
156 481 m 2
 156 559 l 2
 156 626 148 672 125 701 c 0
 103.250976562 728.421875 73.0498046875 731.272460938 50 750 c 0
 34 763 20 783 20 808 c 0
 20 847 28.2294921875 876.08984375 91 910 c 0
 178 957 368 1043 528 1043 c 0
 569 1043 595 1039 595 1001 c 0
 595 972 589 935 589 907 c 0
 589 878 599 857 619 857 c 0
 632 857 642 866 662 897 c 0
 726.533203125 997.02734375 814 1028 920 1028 c 0
 1042 1028 1140.10058594 979.073242188 1184 919 c 0
 1241 841 1257 791 1257 444 c 0
 1257 388 1259.6875 298.487304688 1264 262 c 0
 1267.515625 232.251953125 1273.56542969 209.529296875 1283.44042969 195 c 0
 1295.93945312 176.608398438 1316.36328125 169.541015625 1329.21484375 158 c 0
 1343.75292969 144.9453125 1352 130.004882812 1352 99 c 0
 1352 43 1288 -16 1059 -16 c 0
 859 -16 742 -2 742 93 c 0
 742 125.651367188 748.51953125 139.340820312 759.118164062 151 c 0
 767.440429688 160.155273438 781.920898438 168.23046875 793.618164062 187 c 0
 802.321289062 200.96484375 806.383789062 221.502929688 812 256 c 0
 819.834960938 304.130859375 822 377 822 471 c 0
 822 665 773 716 692 716 c 0
 587 716 584 648 584 474 c 0
 584 358 585 283 587 247 c 0
 588.456054688 220.791992188 598 208 608 198 c 0
 624.970703125 181.029296875 636.130859375 169.836914062 646 155 c 0
 653.092773438 144.336914062 661 127 661 108 c 0
 661 6 536 -15 337 -15 c 0
 157 -15 25 33 25 110 c 0
 25 136.567382812 31.279296875 150.5625 41.3447265625 162 c 0
 55.4951171875 178.080078125 75.154296875 183.967773438 94.779296875 201 c 0
 112.873046875 216.703125 127.65625 237.473632812 136.799804688 282 c 0
 149.599609375 344.328125 156 409.299804688 156 481 c 2
EndSplineSet
EndChar

StartChar: d
Encoding: 100 100 36
Width: 1346
VWidth: 1920
Flags: HMW
LayerCount: 2
Fore
SplineSet
627 253 m 0
 696 253 741.115234375 300.14453125 746 465 c 6
 754 735 l 6
 755.362304688 780.989257812 706.803710938 811 655 811 c 0
 572 811 511 702 511 508 c 0
 511 350 558 253 627 253 c 0
35 496 m 0
 35 840 261 1045 548 1045 c 0
 606 1045 646 1031 667 1022 c 0
 693.126953125 1010.80273438 710 996 730 996 c 0
 746 996 746 1017 746 1035 c 2
 746 1041 l 2
 746 1068 746 1094 735 1118 c 0
 727.6171875 1134.10839844 718 1140 701 1147 c 0
 683.430664062 1154.234375 667.740234375 1150.57714844 643 1159 c 0
 625.595703125 1164.92480469 609 1181 609 1221 c 0
 609 1264 631 1299 681 1319 c 0
 833.397460938 1379.95898438 1033 1415 1134 1415 c 0
 1167 1415 1190 1402 1190 1372 c 0
 1190 1296 1184 1220 1184 894 c 2
 1184 604 l 2
 1184 488 1188 402 1188 355 c 0
 1188 315 1196.65527344 278.051757812 1222 262 c 0
 1252 243 1260.9140625 247.669921875 1287 235 c 0
 1322 218 1326 198 1326 162 c 0
 1326 133 1299.74023438 97.779296875 1234 59 c 0
 1133.61621094 -0.21484375 994 -33 868 -33 c 0
 798 -33 783 -29 781 8 c 0
 780.244140625 21.9794921875 779 40 779 57 c 0
 779 76 769 92 750 92 c 0
 737 92 729.872070312 81.05078125 706 60 c 0
 636.266601562 -1.494140625 590 -25 479 -25 c 0
 225 -25 35 222 35 496 c 0
EndSplineSet
EndChar

StartChar: c
Encoding: 99 99 37
Width: 1087
VWidth: 1920
Flags: HMW
AnchorPoint: "top" 603 1000 basechar 0
AnchorPoint: "bottom" 594 0 basechar 0
LayerCount: 2
Fore
SplineSet
638 1055 m 0
 904 1055 1060 895 1060 730 c 0
 1060 644 992 537 874 537 c 0
 780 537 711.276367188 571.461914062 692 640 c 0
 674 704 664 767 592 767 c 0
 509 767 466 712 466 598 c 0
 466 460 592 340 740 340 c 0
 829 340 841 389 936 389 c 0
 985 389 1028 359 1028 288 c 0
 1028 147 820 -25 550 -25 c 0
 256 -25 35 222 35 486 c 0
 35 880 341 1055 638 1055 c 0
EndSplineSet
EndChar

StartChar: e
Encoding: 101 101 38
Width: 1090
VWidth: 1920
Flags: HMW
AnchorPoint: "ogonek" 701 1 basechar 0
AnchorPoint: "bottom" 517 0 basechar 0
AnchorPoint: "top" 586 1000 basechar 0
LayerCount: 2
Fore
SplineSet
613 1055 m 0
 869 1055 1060 838 1060 633 c 0
 1060 566 1034 511 1023 499 c 0
 1006 480 993 473 909 473 c 2
 515 475 l 2
 471 475 455 465 455 438 c 0
 455 426 459 411 465 397 c 0
 496 327 573 245 685 245 c 0
 824 245 916 336 951 336 c 0
 987 336 1029 293 1029 232 c 0
 1029 131 802 -36 572 -36 c 0
 258 -36 35 175 35 509 c 0
 35 873 336 1055 613 1055 c 0
613 662 m 2
 659.998046875 661.698242188 691 673 691 707 c 0
 691 801 648 860 577 860 c 0
 513.903320312 860 480.313476562 818.254882812 464.806640625 774 c 0
 453.307617188 741.181640625 454 710.265625 454 692 c 0
 454 669 479 664 520 664 c 2
 613 662 l 2
EndSplineSet
EndChar

StartChar: f
Encoding: 102 102 39
Width: 853
VWidth: 1920
Flags: HMW
LayerCount: 2
Fore
SplineSet
136 600 m 6
 75 600 l 6
 35 600 15 615 15 655 c 4
 15 700 23 756 35 797 c 4
 40.6875 816.43359375 50 820 67 820 c 6
 92 820 l 6
 112 820 121 829 121 848 c 6
 121 851 l 6
 121 908 50 920 50 1069 c 4
 50 1334 299 1412 476 1412 c 4
 723 1412 853 1278 853 1157 c 4
 853 1064 782 992 701 992 c 4
 528 992 524 1168 416 1168 c 4
 383 1168 355 1139 355 1092 c 4
 355 976 560.704101562 918.182617188 574 865 c 6
 575 861 l 6
 581.8125 833.75 607 832 632 832 c 6
 724 832 l 6
 769 832 792 830 792 795 c 4
 792 770 783.422851562 686.977539062 781 663 c 4
 776.248046875 615.974609375 775 603 735 603 c 6
 674 603 l 6
 617 603 602 576 602 519 c 6
 602 512 l 6
 602 418 610 365 615 328 c 4
 621.03125 283.372070312 635.092773438 259.747070312 657 242.66796875 c 4
 686.178710938 219.921875 720.279296875 221.075195312 746.692382812 202 c 4
 767.036132812 187.307617188 782 159.653320312 782 126 c 4
 782 10 601 -18 372 -18 c 4
 172 -18 31 14 31 117 c 4
 31 152.939453125 53.7109375 179.978515625 72.4619140625 193 c 4
 93.4716796875 207.590820312 114.810546875 210.8828125 137.282226562 229 c 4
 155.108398438 243.372070312 163.147460938 265.475585938 167 304 c 4
 173 364 181 468 181 512 c 6
 181 536 l 6
 181 575 175 600 136 600 c 6
EndSplineSet
EndChar

StartChar: g
Encoding: 103 103 40
Width: 1154
VWidth: 1920
Flags: HMW
AnchorPoint: "top" 624 1000 basechar 0
LayerCount: 2
Fore
SplineSet
552 521 m 0
 591 521 615 560 615 625 c 0
 615 760 582 832 527 832 c 0
 480 832 457 797 457 723 c 0
 457 575 500 521 552 521 c 0
43 656 m 0
 43 900 291 1038 518 1038 c 0
 636 1038 675 1026 725 1005 c 0
 745 997 769 987 805 987 c 0
 824 987 844 996 861 1003 c 0
 941 1036 992 1107 1042 1107 c 0
 1076 1107 1121 1060 1121 988 c 0
 1121 911 1099 860 1055 814 c 0
 1036 794 1021 788 1021 777 c 0
 1021 763 1024 719 1024 693 c 0
 1024 442 757 325 527 325 c 0
 476 325 443 337 429 337 c 0
 422 337 414 335 407 331 c 0
 401 327 396 322 396 313 c 0
 396 268 462 243 519 243 c 0
 607 243 674 284 861 284 c 0
 1015 284 1139 196 1139 17 c 0
 1139 -250 828 -414 529 -414 c 0
 189 -414 27 -282 27 -137 c 0
 27 -71 64 -17 113 8 c 0
 119 11 122 13 122 17 c 0
 122 20 117 25 113 28 c 0
 88 48 27 94 27 182 c 0
 27 301 105 354 165 385 c 0
 177 391 187 394 187 399 c 0
 187 403 179 406 165 415 c 0
 97 458 43 559 43 656 c 0
330 -96 m 0
 330 -144 400 -203 559 -203 c 0
 652 -203 707 -159 707 -122 c 0
 707 -96 691 -84 645 -84 c 0
 599 -84 554 -96 463 -96 c 0
 399 -96 368 -90 352 -84 c 0
 347 -82 341 -80 338 -80 c 0
 335 -80 333 -81 332 -83 c 0
 331 -85 330 -88 330 -96 c 0
EndSplineSet
EndChar

StartChar: i
Encoding: 105 105 41
Width: 727
VWidth: 1920
Flags: HMW
AnchorPoint: "ogonek" 432 10 basechar 0
LayerCount: 2
Fore
SplineSet
38 1243 m 0
 38 1380 242 1438 399 1438 c 0
 526 1438 598 1380 598 1303 c 0
 598 1177 419 1094 232 1094 c 0
 125 1094 38 1147 38 1243 c 0
150 421 m 6
 150 479 l 6
 150 566 145.913085938 687.375 121 720 c 4
 100.389648438 746.990234375 63.64453125 748.068359375 47 763 c 4
 28.111328125 779.944335938 20 798 20 820 c 4
 20 884 45.505859375 907.36328125 155 954 c 4
 263 1000 457 1044 548 1044 c 4
 589 1044 603 1032 603 995 c 4
 603 919 598 838 598 602 c 6
 598 424 l 6
 598 348 599.228515625 302.39453125 604 269 c 4
 608.16015625 239.881835938 622.201171875 217.467773438 634.087890625 206 c 4
 650.538085938 190.129882812 668.790039062 187.036132812 684.291015625 171 c 4
 700.095703125 154.650390625 707 138.124023438 707 97 c 4
 707 1 572 -30 373 -30 c 4
 163 -30 23 -1 23 96 c 4
 23 123.165039062 30.748046875 145.361328125 45.666015625 162 c 4
 61.87109375 180.075195312 84.99609375 188.951171875 102.606445312 203 c 4
 119.252929688 216.280273438 131.759765625 233.715820312 136 251 c 4
 147.637695312 298.4296875 150 337 150 421 c 6
EndSplineSet
EndChar

StartChar: h
Encoding: 104 104 42
Width: 1372
VWidth: 1920
Flags: HMW
AnchorPoint: "top" 353 1400 basechar 0
LayerCount: 2
Fore
SplineSet
156 506 m 2
 156 674 l 2
 156 911 148 1057 125 1086 c 0
 103.250976562 1113.421875 73.0498046875 1116.27246094 50 1135 c 0
 34 1148 20 1168 20 1193 c 0
 20 1232 28.2294921875 1261.08984375 91 1295 c 0
 178 1342 371 1405 531 1405 c 0
 572 1405 598 1402 598 1364 c 0
 598 1315 589 1130 589 902 c 0
 589 873 599 852 619 852 c 0
 632 852 642 861 662 892 c 0
 726.533203125 992.02734375 814 1023 920 1023 c 0
 1042 1023 1140.10058594 974.073242188 1184 914 c 0
 1241 836 1257 786 1257 439 c 0
 1257 383 1259.6875 293.487304688 1264 257 c 0
 1267.515625 227.251953125 1273.56542969 204.529296875 1283.44042969 190 c 0
 1295.93945312 171.608398438 1316.36328125 164.541015625 1329.21484375 153 c 0
 1343.75292969 139.9453125 1352 125.004882812 1352 94 c 0
 1352 38 1288 -21 1059 -21 c 0
 859 -21 742 -7 742 88 c 0
 742 120.651367188 748.51953125 134.340820312 759.118164062 146 c 0
 767.440429688 155.155273438 781.920898438 163.23046875 793.618164062 182 c 0
 802.321289062 195.96484375 806.383789062 216.502929688 812 251 c 0
 819.834960938 299.130859375 822 372 822 466 c 0
 822 660 773 711 692 711 c 0
 587 711 584 643 584 469 c 0
 584 353 585 278 587 242 c 0
 588.456054688 215.791992188 598 203 608 193 c 0
 624.970703125 176.029296875 636.130859375 164.836914062 646 150 c 0
 653.092773438 139.336914062 661 122 661 103 c 0
 661 1 536 -20 337 -20 c 0
 157 -20 25 28 25 105 c 0
 25 131.567382812 31.279296875 145.5625 41.3447265625 157 c 0
 55.4951171875 173.080078125 75.154296875 178.967773438 94.779296875 196 c 0
 112.873046875 211.703125 127.65625 232.473632812 136.799804688 277 c 0
 149.599609375 339.328125 156 434.299804688 156 506 c 2
EndSplineSet
EndChar

StartChar: r
Encoding: 114 114 43
Width: 1133
VWidth: 1920
Flags: HMW
AnchorPoint: "bottom" 572 15 basechar 0
AnchorPoint: "top" 618 1000 basechar 0
LayerCount: 2
Fore
SplineSet
152 416 m 2
 152 501 l 6
 152 655.491210938 149.920898438 711.774414062 124.609375 737 c 4
 101.267578125 760.262695312 60.328125 756.412109375 41 772.97265625 c 4
 29.5478515625 782.78515625 21 795.2890625 21 834 c 4
 21 899 46.9072265625 918.215820312 93 938 c 4
 312 1032 521 1048 552 1048 c 4
 582 1048 592.6484375 1022.04003906 594 995 c 4
 595 975 596 952 596 927 c 4
 596 898 613 888 623 888 c 4
 641 888 664.119477852 921.083386082 678 943 c 0
 716 1003 767 1065 873 1065 c 4
 1025 1065 1118 957 1118 812 c 4
 1118 676 1023 560 897 560 c 4
 671 560 711 716 669 716 c 4
 660.163085938 716 640.634765625 714.975585938 624.291015625 698 c 4
 609.913085938 683.06640625 598 655.787109375 598 606 c 4
 598 490 602.229492188 338.8515625 614 280 c 0
 621.055664062 244.721679688 635.38671875 229.569335938 655 219.419921875 c 0
 679 207 724.60546875 199.573242188 751.50390625 183 c 0
 770.72265625 171.158203125 784 150.220703125 784 107 c 0
 784 11 622 -22 403 -22 c 0
 183 -22 20 -14 20 103 c 0
 20 145.278320312 30.1005859375 167.297851562 45.1015625 182 c 0
 72.330078125 208.686523438 88.65625 207.48046875 114.009765625 226 c 0
 129.91015625 237.615234375 136.584960938 260.479492188 139 290 c 0
 141.532226562 320.9453125 152 402 152 416 c 2
EndSplineSet
EndChar

StartChar: j
Encoding: 106 106 44
Width: 787
VWidth: 1920
Flags: HMW
LayerCount: 2
Fore
SplineSet
37 1247 m 0
 37 1384 241 1442 398 1442 c 0
 525 1442 597 1384 597 1307 c 0
 597 1181 418 1098 231 1098 c 0
 124 1098 37 1151 37 1247 c 0
162 519 m 2
 161.766601562 625.959960938 162.100585938 669.719726562 144.331054688 692 c 0
 122 720 80.873046875 720.1015625 52 741.038085938 c 0
 35.376953125 753.091796875 19 776.78125 19 811 c 0
 19 856 45.841796875 894.165039062 101 920 c 0
 284.072265625 1005.74707031 442 1038 583 1038 c 0
 624 1038 659 1020 659 973 c 0
 659 897 659 838 659 512 c 2
 659 204 l 6
 659 57 659.853515625 -38.6171875 650 -117 c 4
 628 -292 531 -386 284 -386 c 4
 137 -386 1 -326 1 -226 c 4
 1 -183 30 -140 81 -140 c 4
 98.3056640625 -140 110.93359375 -141.025390625 121 -142.1484375 c 4
 133.159179688 -143.50390625 141.583007812 -145 150 -145 c 4
 178 -145 196 -133 196 -112 c 4
 196 -87 163.296875 -74.9990234375 163 61 c 6
 162 519 l 2
EndSplineSet
EndChar

StartChar: k
Encoding: 107 107 45
Width: 1555
VWidth: 1920
Flags: HMW
AnchorPoint: "bottom" 816 0 basechar 0
LayerCount: 2
Fore
SplineSet
189 591 m 6
 189 901 l 6
 189 986.440429688 187.103515625 1052.49707031 161.948242188 1080 c 4
 130.520507812 1114.36035156 72.3232421875 1099.76367188 46 1116.828125 c 4
 30.3818359375 1126.95214844 20 1147.18164062 20 1176 c 4
 20 1211 41.6962890625 1237.48046875 86 1261 c 4
 248 1347 436 1411 547 1411 c 4
 608 1411 646 1388 646 1331 c 4
 646 1275 630 1250 630 1114 c 6
 630 796 l 6
 630 774 637 741 667 741 c 4
 681 741 690 742 714 754 c 6
 795 795 l 6
 832 814 844 820 844 834 c 4
 844 842.967773438 842.012695312 849.017578125 836.494140625 856 c 4
 831.319335938 862.548828125 821.797851562 869.040039062 815.958007812 877 c 4
 807.817382812 888.096679688 802 903.05078125 802 924 c 4
 802 986 874 1035 1084 1035 c 4
 1301 1035 1388 1003 1388 894 c 4
 1388 863 1372 848 1350 840 c 4
 1322 830 1285 834 1250 829 c 4
 1230 826 1211 818 1196 807 c 6
 1078 720 l 6
 1052 697 1053 689 1080 653 c 6
 1377 272 l 6
 1399 243 1425 226 1447 213 c 4
 1470 199 1495 194 1513 183 c 4
 1538 167 1555 145 1555 91 c 4
 1555 37 1521 -9 1431 -9 c 6
 1181 -9 l 6
 1068 -9 1007 -19 979 2 c 4
 962 15 946 36 884 122 c 6
 726 340 l 6
 707 365 696 378 679 378 c 4
 666 378 647 365 647 330 c 4
 647 299 647 263 651 237 c 4
 654.163085938 216.439453125 663.068359375 201.798828125 674.234375 191 c 4
 687.006835938 178.647460938 704.736328125 172.014648438 718.211914062 161 c 4
 734.818359375 147.424804688 746 129.232421875 746 97 c 4
 746 -17 583 -25 384 -25 c 4
 204 -25 58 1 58 88 c 4
 58 113.07421875 62.8291015625 125.375 72.810546875 137 c 4
 87.498046875 154.10546875 118.22265625 164.079101562 137.629882812 182 c 4
 161.409179688 203.959960938 173.7109375 231.84375 180 269 c 4
 186.192382812 305.587890625 189 447 189 591 c 6
EndSplineSet
EndChar

StartChar: m
Encoding: 109 109 46
Width: 2042
VWidth: 1920
Flags: HMW
LayerCount: 2
Fore
SplineSet
156 481 m 2
 156 559 l 2
 156 626 148 672 125 701 c 0
 103.250976562 728.421875 73.0498046875 731.272460938 50 750 c 0
 34 763 20 783 20 808 c 0
 20 847 28.2294921875 876.08984375 91 910 c 0
 178 957 368 1043 528 1043 c 0
 569 1043 595 1039 595 1001 c 0
 595 972 589 935 589 907 c 0
 589 878 599 857 619 857 c 0
 632 857 642 866 662 897 c 0
 726.533203125 997.02734375 814 1028 940 1028 c 0
 1102 1028 1157.19335938 977.631835938 1194 919 c 0
 1215.58984375 884.607421875 1232.66308594 857 1259 857 c 0
 1273 857 1282 866 1302 897 c 0
 1366.53320312 997.02734375 1484 1028 1590 1028 c 0
 1712 1028 1810.10058594 979.073242188 1854 919 c 0
 1911 841 1927 791 1927 444 c 0
 1927 388 1929.6875 298.487304688 1934 262 c 0
 1937.515625 232.251953125 1943.56542969 209.529296875 1953.44042969 195 c 0
 1965.93945312 176.608398438 1986.36328125 169.541015625 1999.21484375 158 c 0
 2013.75292969 144.9453125 2022 130.004882812 2022 99 c 0
 2022 43 1958 -16 1729 -16 c 0
 1529 -16 1412 -2 1412 93 c 0
 1412 125.651367188 1418.51953125 139.340820312 1429.11816406 151 c 0
 1437.44042969 160.155273438 1451.92089844 168.23046875 1463.61816406 187 c 0
 1472.32128906 200.96484375 1476.38378906 221.502929688 1482 256 c 0
 1489.83496094 304.130859375 1492 377 1492 471 c 0
 1492 665 1443 716 1362 716 c 0
 1267 716 1257 581.557617188 1257 444 c 0
 1257 388 1259.6875 298.487304688 1264 262 c 0
 1267.515625 232.251953125 1273.56542969 209.529296875 1283.44042969 195 c 0
 1295.93945312 176.608398438 1316.36328125 169.541015625 1329.21484375 158 c 0
 1343.75292969 144.9453125 1352 130.004882812 1352 99 c 0
 1352 43 1288 -16 1059 -16 c 0
 859 -16 742 -2 742 93 c 0
 742 125.651367188 748.51953125 139.340820312 759.118164062 151 c 0
 767.440429688 160.155273438 781.920898438 168.23046875 793.618164062 187 c 0
 802.321289062 200.96484375 806.383789062 221.502929688 812 256 c 0
 819.834960938 304.130859375 822 377 822 471 c 0
 822 665 773 716 692 716 c 0
 587 716 584 648 584 474 c 0
 584 358 585 283 587 247 c 0
 588.456054688 220.791992188 598 208 608 198 c 0
 624.970703125 181.029296875 636.130859375 169.836914062 646 155 c 0
 653.092773438 144.336914062 661 127 661 108 c 0
 661 6 536 -15 337 -15 c 0
 157 -15 25 33 25 110 c 0
 25 136.567382812 31.279296875 150.5625 41.3447265625 162 c 0
 55.4951171875 178.080078125 75.154296875 183.967773438 94.779296875 201 c 0
 112.873046875 216.703125 127.65625 237.473632812 136.799804688 282 c 0
 149.599609375 344.328125 156 409.299804688 156 481 c 2
EndSplineSet
EndChar

StartChar: p
Encoding: 112 112 47
Width: 1356
VWidth: 1920
Flags: HMW
LayerCount: 2
Fore
SplineSet
178 254 m 6
 178 344 l 6
 178 591 171 666 136 686 c 4
 105.611328125 703.365234375 90 696 60 711 c 4
 42.111328125 719.944335938 20 738 20 783 c 4
 20 818 31.53515625 844.53125 60 869 c 4
 167.388671875 961.311523438 451 1062 562 1062 c 4
 601 1062 617 1041 617 1014 c 4
 617 998 616 986 616 968 c 4
 616 948 621.916992188 923 638 923 c 4
 652 923 661.10546875 940.626953125 685 965 c 4
 735 1016 834 1055 928 1055 c 4
 1180 1055 1321 795 1321 508 c 4
 1321 237 1129 -43 899 -43 c 4
 832 -43 749 -34 687 7 c 4
 662.2421875 23.3720703125 651 27 644 27 c 4
 632 27 632 -3 632 -25 c 4
 632 -65 635.329101562 -119.454101562 643 -140 c 4
 650.795898438 -160.879882812 663 -172 679 -186 c 4
 690.2890625 -195.877929688 714 -212 729 -222 c 4
 746.47265625 -233.6484375 759 -248 759 -282 c 4
 759 -357 668 -404 570 -404 c 4
 491 -404 344 -393 236 -355 c 4
 105.655273438 -309.137695312 45 -262 45 -196 c 4
 45 -159 58.25 -133.568359375 76 -126 c 4
 95.2578125 -117.7890625 111.2734375 -124.416015625 128 -115 c 4
 151.005859375 -102.048828125 161.298828125 -66.9091796875 165 -39 c 4
 172.436523438 17.0771484375 178 70 178 254 c 6
704 227 m 4
 813 227 857 300 857 455 c 4
 857 630 809 742 708 742 c 4
 655 742 627.786132812 711.981445312 626 638 c 6
 619 348 l 6
 616.490234375 244.036132812 634 227 704 227 c 4
EndSplineSet
EndChar

StartChar: q
Encoding: 113 113 48
Width: 1336
VWidth: 1920
Flags: HMW
LayerCount: 2
Fore
SplineSet
643 812 m 4
 594 812 515 756 515 621 c 4
 515 446 564 254 665 254 c 4
 726 254 749 293 749 403 c 6
 745 614 l 6
 743.030273438 717.924804688 701 812 643 812 c 4
932 1013 m 4
 959.83984375 1013 988.1484375 1020.75390625 1025 1033.88769531 c 4
 1048.89453125 1042.40332031 1067.11816406 1050.88574219 1079 1053 c 4
 1099.55761719 1056.65917969 1113 1058 1134 1058 c 4
 1184 1058 1223 1035 1223 991 c 4
 1223 943 1206.90429688 804.8984375 1201 737 c 4
 1195 668 1192 579 1192 472 c 6
 1192 207 l 6
 1192 117 1195.57519531 44.142578125 1197 9 c 4
 1198.98046875 -39.837890625 1208.44628906 -84.603515625 1226.65234375 -108 c 4
 1245.68261719 -132.456054688 1271.16503906 -138.985351562 1291.01757812 -162 c 4
 1307.63476562 -181.264648438 1316 -207.971679688 1316 -249 c 4
 1316 -317 1231 -371 1023 -371 c 4
 894 -371 803 -366 729 -333 c 4
 633.854492188 -290.5703125 610 -262 610 -216 c 4
 610 -187.385742188 620.493164062 -162.920898438 631.2578125 -152 c 4
 647.138671875 -135.888671875 666.137695312 -131.58203125 686.215820312 -121 c 4
 705.408203125 -110.884765625 720.692382812 -95.9990234375 731 -62 c 4
 739.337890625 -34.49609375 741 -15 741 14 c 4
 741 36 733 56 715 56 c 4
 700 56 682.869140625 44.4951171875 656 23 c 4
 616 -9 551 -35 467 -35 c 4
 235 -35 35 163 35 500 c 4
 35 821 276 1043 636 1043 c 4
 710.30859375 1043 756.618164062 1034.20410156 799 1028.44726562 c 4
 862.6171875 1019.80566406 896.106445312 1013 932 1013 c 4
EndSplineSet
EndChar

StartChar: s
Encoding: 115 115 49
Width: 964
VWidth: 1920
Flags: HMW
AnchorPoint: "bottom" 500 0 basechar 0
AnchorPoint: "top" 506 1000 basechar 0
LayerCount: 2
Fore
SplineSet
237 293 m 0
 299.547851562 214.815429688 354 186 398 186 c 256
 435 186 456 210 456 235 c 256
 456 285 434.8984375 300.708984375 321 349 c 0
 182.693359375 407.639648438 63 521 63 692 c 256
 63 875 218 1050 439 1050 c 256
 520 1050 575 1027 608 1027 c 0
 644 1027 676 1061 720 1061 c 0
 799 1061 891 891 891 803 c 0
 891 724 842 693 801 693 c 0
 760 693 729 704 695 728 c 0
 672.56640625 743.834960938 637.795898438 782.533203125 618 800 c 0
 601 815 577 834 539 834 c 256
 504 834 485 811 485 780 c 256
 485 737 508 714 678 635 c 0
 827.158203125 565.685546875 914 463 914 313 c 256
 914 120 740 -27 522 -27 c 256
 428.232421875 -27 360.299804688 -8.02734375 323 -8.02734375 c 0
 258 -8.02734375 212 -31 166.408203125 -4 c 0
 99.8115234375 35.4404296875 40 161.5234375 40 265 c 0
 40 314 65 365 110 365 c 0
 163 365 201 338 237 293 c 0
EndSplineSet
EndChar

StartChar: t
Encoding: 116 116 50
Width: 944
Flags: HMW
AnchorPoint: "bottom" 541 0 basechar 0
LayerCount: 2
Fore
SplineSet
624 455 m 6
 624 350 661 289 732 289 c 0
 768 289 800 307 820 322 c 4
 832.211914062 331.158203125 843 338 857 338 c 0
 888 338 929 281 929 226 c 4
 929 122 718 -17 538 -17 c 4
 335.123046875 -17 242.915039062 57.6943359375 201.57421875 157 c 4
 173.836914062 223.629882812 169 301.33984375 169 375 c 6
 169 806 l 6
 169 826 165 835 143 835 c 6
 40 835 l 6
 6 835 0 845 0 866 c 4
 0 897 0.662109375 941.975585938 2 960 c 4
 3.1171875 975.051757812 3.1689453125 983.684570312 23 997 c 6
 443 1279 l 6
 467.258789062 1295.28808594 493 1309 546 1309 c 4
 598 1309 636 1285 636 1224 c 4
 636 1166 632 1097 632 1076 c 4
 632 1055 638 1053 660 1053 c 6
 864 1053 l 6
 906 1053 921 1047 921 1020 c 4
 921 1017 920.506835938 1006.97460938 920 997 c 6
 914 879 l 6
 911.489257812 825.447265625 891 825 846 825 c 6
 644 825 l 6
 628 825 624 820 624 805 c 6
 624 455 l 6
EndSplineSet
EndChar

StartChar: u
Encoding: 117 117 51
Width: 1332
VWidth: 1920
Flags: HMW
AnchorPoint: "ogonek" 1092 10 basechar 0
AnchorPoint: "top" 639 1000 basechar 0
LayerCount: 2
Fore
SplineSet
1194 623 m 6
 1194 555 l 6
 1194 369.802734375 1195.3515625 316.428710938 1219.15136719 287 c 4
 1238.30078125 263.3203125 1267.1015625 252.255859375 1282.49121094 241 c 4
 1303 226 1312 209.546875 1312 183 c 4
 1312 158 1290.46875 110.956054688 1251 80 c 4
 1149 0 957 -35 836 -35 c 4
 815 -35 805 -29 793 -5 c 4
 784 13 784 37 784 65 c 4
 784 84 776 103 760 103 c 4
 741 103 734.942382812 86.2392578125 716 69 c 4
 627 -12 567 -41 441 -41 c 4
 329 -41 247 9 200 75 c 4
 157 135 148 245 148 380 c 4
 148 496 148 677 148 720 c 4
 148 759.248046875 131.580078125 772.545898438 110 785.196289062 c 4
 91.279296875 796.170898438 61.4814453125 802.428710938 41.646484375 821 c 4
 27.2607421875 834.46875 20 858.27734375 20 895 c 4
 20 927.625976562 36.515625 963.025390625 79 979.732421875 c 4
 217 1034 400.872070312 1051 501 1051 c 4
 541 1051 580 1023 580 976 c 4
 580 908 573 731 573 423 c 4
 573 271 624 265 685 265 c 4
 748 265 779 316 779 460 c 4
 779 520 777 553 777 621 c 4
 777 685 776.870117188 740.958984375 770 763 c 4
 763.594726562 783.548828125 752.631835938 791.970703125 740 802.204101562 c 4
 721.0625 817.545898438 698.373046875 829.720703125 681.666992188 845 c 4
 668.166992188 857.345703125 658 873.000976562 658 901 c 4
 658 957.094726562 704.407226562 989.764648438 735 1007 c 4
 806 1047 985.840820312 1063 1104 1063 c 6
 1114 1063 l 6
 1184 1063 1203 1020 1203 973 c 4
 1203 885 1194 762 1194 623 c 6
EndSplineSet
EndChar

StartChar: w
Encoding: 119 119 52
Width: 1921
VWidth: 1920
Flags: HMW
AnchorPoint: "bottom" 998 0 basechar 0
AnchorPoint: "top" 1064 1000 basechar 0
LayerCount: 2
Fore
SplineSet
1497 787 m 0
 1506.30566406 805.612304688 1512 818 1512 831 c 0
 1512 850.333984375 1506.95898438 858.806640625 1499.64257812 867 c 0
 1489.93164062 877.874023438 1474.21386719 882.970703125 1462.95214844 895 c 0
 1452.71289062 905.9375 1445 920.796875 1445 951 c 0
 1445 1027 1518 1058 1719 1058 c 0
 1876 1058 1931 1030 1931 965 c 0
 1931 931.572265625 1927.6640625 900.0078125 1902.87695312 878 c 0
 1874.56445312 852.862304688 1846.40136719 859.248046875 1811.07519531 845 c 0
 1779.17578125 832.133789062 1759.8125 807.251953125 1727 726 c 0
 1617.828125 455.6640625 1494.00097656 186 1419 58 c 0
 1387.86425781 4.8623046875 1358 -36 1313 -36 c 0
 1266 -36 1205.51660156 39.76953125 1152 127 c 0
 1086.515625 233.73828125 1058 289 1013 384 c 0
 1000.51953125 410.348632812 992 426 971 426 c 0
 959 426 939 423 927 393 c 0
 868 250 809.840820312 143.081054688 765 55 c 0
 737 0 704 -40 653 -40 c 0
 598 -40 568 -10 519 77 c 0
 404.346679688 280.567382812 311.513671875 461.477539062 190 664 c 0
 155.987304688 720.6875 144.607421875 756.14453125 114 775.879882812 c 0
 89 792 42.0517578125 800.305664062 17.599609375 820 c 0
 0.828125 833.5078125 -10 850.444335938 -10 879 c 0
 -10 907.938476562 -5.587890625 934.798828125 17 956.958007812 c 0
 72.9326171875 1011.82910156 199.258789062 1043 346 1043 c 0
 422.421875 1043 512.663085938 1041.43359375 575 1025.84277344 c 0
 641.8671875 1009.11914062 677 964.8203125 677 907 c 0
 677 885.584960938 672.889648438 876.265625 667.485351562 870 c 0
 661.970703125 863.606445312 656.110351562 861.43359375 650.897460938 856 c 0
 646.311523438 851.220703125 642 845.91796875 642 833 c 0
 642 820 651.479492188 789.799804688 659 771 c 0
 673 736 685 707 703 669 c 0
 716.99609375 639.452148438 728 622 750 622 c 0
 771 622 778.241210938 633.37890625 789 654 c 0
 801 677 806.4609375 685.676757812 815 703 c 0
 824.471679688 722.213867188 829 731 829 741 c 0
 829 751 824.880859375 760.934570312 820 770 c 0
 813 783 813.936523438 783.998046875 804 799 c 0
 789.774414062 820.477539062 780.897460938 830.7109375 769.139648438 837 c 0
 756.659179688 843.67578125 742.205078125 844.12109375 730 853.615234375 c 0
 719.670898438 861.651367188 706 872.87109375 706 916 c 0
 706 948.641601562 725.573242188 983.005859375 750 1001.40429688 c 0
 811.74609375 1047.91113281 953.458007812 1054 1066 1054 c 0
 1155.99121094 1054 1244.09375 1048.56640625 1298 1024.91308594 c 0
 1337.85742188 1007.42382812 1362 978.48046875 1362 928 c 0
 1362 905.491210938 1354.39746094 887.688476562 1342.75 873 c 0
 1335.16601562 863.434570312 1321.71484375 854.765625 1314.48339844 846 c 0
 1304.60253906 834.0234375 1300 822.8671875 1300 808 c 0
 1300 787 1305.94433594 767.110351562 1315 749 c 0
 1324 731 1336 710 1347 690 c 0
 1362.51855469 661.783203125 1381 637 1396 637 c 0
 1415 637 1427.37011719 657.287109375 1439 682 c 0
 1455 716 1472 737 1497 787 c 0
EndSplineSet
EndChar

StartChar: x
Encoding: 120 120 53
Width: 1229
VWidth: 1920
Flags: HMW
LayerCount: 2
Fore
SplineSet
832 799 m 2
 847 823 l 2
 858.611328125 841.578125 864 854 864 867 c 0
 864 874.763671875 862.955078125 879.443359375 860.198242188 885 c 0
 855.904296875 893.654296875 845.749023438 899.372070312 839.854492188 908 c 0
 834.383789062 916.0078125 830 926.383789062 830 949 c 0
 830 1005 880 1047 1038 1047 c 0
 1189 1047 1229 1011 1229 958 c 0
 1229 911.514648438 1216.75 895.479492188 1197.76074219 886 c 0
 1182.33691406 878.299804688 1162.99609375 877.59765625 1136 865.294921875 c 0
 1111.06835938 853.93359375 1085.67089844 842.005859375 1053 793 c 2
 909 577 l 2
 904.146484375 569.719726562 894 555 894 542 c 0
 894 531 902.92578125 514.5625 906 510 c 2
 1063 262 l 2
 1074.33398438 245.333007812 1088.80371094 231.076171875 1103 221.325195312 c 0
 1131.96972656 201.427734375 1161.96289062 196.965820312 1185 181.756835938 c 0
 1204.06835938 169.16796875 1218 149.641601562 1218 120 c 0
 1218 14.2900390625 1054 -9 874 -9 c 0
 693 -9 499 -24 499 90 c 0
 499 120.140625 506.212890625 136.764648438 518.306640625 148 c 0
 532.734375 161.404296875 550.263671875 168.137695312 563.13671875 180 c 0
 570.549804688 186.831054688 577 195.461914062 577 210 c 0
 577 229 571.336914062 235.387695312 563 248 c 2
 524 307 l 2
 512.217773438 324.82421875 502 334 482 334 c 0
 465 334 452.646484375 326.155273438 441 310 c 2
 410 267 l 2
 384.588867188 231.751953125 369 196 369 183 c 0
 369 169.692382812 372.198242188 160.458984375 376.92578125 153 c 0
 383.26953125 142.991210938 394.385742188 136.240234375 403.188476562 128 c 0
 410.8828125 120.797851562 417 110.67578125 417 83 c 0
 417 27 366 -19 208 -19 c 0
 57 -19 0 20 0 73 c 0
 0 100.006835938 11.0126953125 118.588867188 24 129.760742188 c 0
 42.71484375 145.859375 70.0380859375 147.715820312 98 159.740234375 c 0
 124.244140625 171.026367188 146.049804688 191.866210938 166 225 c 2
 341 519 l 2
 346.80078125 528.634765625 354 541 354 552 c 0
 354 566 347.599609375 578.200195312 341 587 c 2
 238 724 l 2
 210.306640625 760.924804688 183.362304688 793.266601562 155 809.053710938 c 0
 117.142578125 830.126953125 83.1044921875 828.524414062 58 845.342773438 c 0
 40.1455078125 857.3046875 28 875.8359375 28 905 c 0
 28 1021 246 1044 416 1044 c 0
 627 1044 755 1035 755 954 c 0
 755 929.59375 749.853515625 916.244140625 741.1640625 905 c 0
 734.008789062 895.740234375 726.857421875 890.64453125 721.200195312 883 c 0
 714.333984375 873.720703125 711 862.092773438 711 851 c 0
 711 832 714.258789062 819.237304688 723 807 c 2
 733 793 l 2
 746.513671875 774.081054688 758 766 782 766 c 0
 800 766 817.583007812 775.93359375 832 799 c 2
EndSplineSet
EndChar

StartChar: y
Encoding: 121 121 54
Width: 1251
VWidth: 1920
Flags: HMW
AnchorPoint: "top" 670 1000 basechar 0
LayerCount: 2
Fore
SplineSet
25 -127 m 0
 25 -4 102 90 203 90 c 0
 296 90 347 36 363 -16 c 0
 382 -76 377 -134 420 -134 c 0
 430 -134 440 -131 449 -126 c 0
 458 -121 466 -114 473 -104 c 0
 481 -91 487 -75 487 -56 c 0
 487 -23 474 43 436 118 c 0
 340 308 262 491 169 678 c 0
 129 759 112 771 92 787 c 0
 74 802 40 804 21 820 c 0
 3 835 -10 853 -10 882 c 0
 -10 936 18 973 67 998 c 0
 142 1037 264 1049 403 1049 c 0
 582 1049 698 1043 698 913 c 0
 698 883 690 866 680 854 c 0
 665 836 652 828 652 808 c 0
 652 800 655 789 659 777 c 0
 672 739 699 678 719 643 c 0
 741 604 748 591 763 591 c 0
 802 591 831 626 845 674 c 0
 853 702 858 725 860 743 c 0
 863 765 863 779 863 787 c 0
 863 813 856 828 845 841 c 0
 835 853 819 861 809 874 c 0
 800 886 793 898 793 923 c 0
 793 1031 925 1057 1055 1057 c 0
 1210 1057 1261 1009 1261 930 c 0
 1261 857 1206 849 1142 824 c 0
 1091 804 1047 688 999 554 c 2
 881 220 l 2
 845 119 802 -13 756 -92 c 0
 662 -253 526 -353 330 -353 c 0
 143 -353 25 -237 25 -127 c 0
EndSplineSet
EndChar

StartChar: z
Encoding: 122 122 55
Width: 1066
VWidth: 1920
Flags: HMW
AnchorPoint: "top" 501 1000 basechar 0
LayerCount: 2
Fore
SplineSet
331 -4 m 0
 285 -4 225 -6 161 -6 c 0
 98 -6 60 11 60 63 c 0
 60 86 69.77734375 115.748046875 91 155 c 2
 410 745 l 2
 418.103515625 759.98828125 428 779 428 789 c 0
 428 803 413 818 379 818 c 0
 327 818 306.086914062 814.765625 274 803 c 0
 214 781 214 713 183 665 c 0
 170.521484375 645.678710938 146 631 125 631 c 0
 80 631 15 665 15 743 c 0
 15 836 103 1066 199 1066 c 0
 253 1066 285 1039 363 1039 c 0
 449 1039 698 1037 743 1037 c 0
 819 1037 835 1047 889 1047 c 0
 952 1047 995 1010 995 956 c 0
 995 932 972.786132812 890.662109375 959 864 c 2
 671 307 l 2
 665.115234375 295.618164062 661 288 661 278 c 0
 661 261 684 251 708 251 c 0
 750 251 779 258 802 269 c 0
 844 289 883 317 898 367 c 0
 904.665039062 389.216796875 918 408 950 408 c 0
 995 408 1051 356 1051 298 c 0
 1051 165 949 -32 863 -32 c 0
 809 -32 802 2 724 2 c 0
 648 2 416 -4 331 -4 c 0
EndSplineSet
EndChar

StartChar: period
Encoding: 46 46 56
Width: 680
VWidth: 1920
Flags: HMW
LayerCount: 2
Fore
SplineSet
70 187 m 4
 70 335 192 457 340 457 c 4
 488 457 610 335 610 187 c 4
 610 39 488 -83 340 -83 c 4
 192 -83 70 39 70 187 c 4
EndSplineSet
EndChar

StartChar: comma
Encoding: 44 44 57
Width: 680
VWidth: 1920
Flags: HMW
LayerCount: 2
Fore
SplineSet
208 -329 m 4
 208 -304 224 -279 254 -253 c 4
 277.0703125 -233.005859375 326 -170 326 -80 c 4
 326 -50 319 -39 308 -34 c 4
 299.806640625 -30.275390625 282.846589498 -26.9545450366 256 -19 c 4
 202 -3 70 58 70 195 c 4
 70 342 175 457 322 457 c 4
 480 457 577 327 577 145 c 4
 577 -163 406 -391 332 -391 c 4
 238 -391 208 -353 208 -329 c 4
EndSplineSet
EndChar

StartChar: uniFB00
Encoding: 64256 64256 58
Width: 1671
VWidth: 1920
Flags: HMW
LayerCount: 2
Fore
SplineSet
136 600 m 6
 75 600 l 6
 35 600 15 615 15 655 c 4
 15 700 23 756 35 797 c 4
 40.6875 816.43359375 50 820 67 820 c 6
 92 820 l 6
 112 820 121 829 121 848 c 6
 121 851 l 6
 121 908 50 920 50 1069 c 4
 50 1334 299 1412 476 1412 c 4
 648.027879728 1412 797.617834694 1347.57038184 872 1267 c 4
 882.083757921 1256.07732488 883 1252 889 1252 c 4
 894.162109375 1252 895 1258 900 1267 c 4
 973 1415 1155.47534246 1463 1294 1463 c 4
 1541 1463 1671 1329 1671 1208 c 4
 1671 1115 1600 1043 1519 1043 c 4
 1454.61757673 1043 1407.64160156 1067.37597656 1379 1097.98339844 c 4
 1353.57617188 1125.15332031 1340.18066406 1154.17871094 1318.27832031 1178 c 4
 1296.46289062 1201.72558594 1267.83547874 1219 1234 1219 c 4
 1201 1219 1173 1190 1173 1143 c 4
 1173 1027 1390.13180218 979.518726029 1392 916 c 6
 1393 882 l 6
 1394.10052939 844.582000864 1425 832 1450 832 c 6
 1542 832 l 6
 1587 832 1610 830 1610 795 c 4
 1610 770 1601.42285156 686.977539062 1599 663 c 4
 1594.24804688 615.974609375 1593 603 1553 603 c 6
 1492 603 l 6
 1435 603 1420 576 1420 519 c 6
 1420 512 l 6
 1420 418 1428 365 1433 328 c 4
 1439.03125 283.372070312 1453.09277344 259.747070312 1475 242.66796875 c 4
 1504.17871094 219.921875 1538.27929688 221.075195312 1564.69238281 202 c 4
 1585.03613281 187.307617188 1600 159.653320312 1600 126 c 4
 1600 10 1419 -18 1190 -18 c 4
 990 -18 849 14 849 117 c 4
 849 152.939453125 871.7109375 179.978515625 890.461914062 193 c 4
 911.471679688 207.590820312 932.810546875 210.8828125 955.282226562 229 c 4
 973.108398438 243.372070312 981.147460938 265.475585938 985 304 c 4
 991 364 999 468 999 512 c 6
 999 536 l 6
 999 575 993 600 954 600 c 6
 674 600 l 6
 617 600 602 576 602 519 c 6
 602 512 l 6
 602 418 610 365 615 328 c 4
 621.03125 283.372070312 635.092773438 259.747070312 657 242.66796875 c 4
 686.178710938 219.921875 720.279296875 221.075195312 746.692382812 202 c 4
 767.036132812 187.307617188 782 159.653320312 782 126 c 4
 782 10 601 -18 372 -18 c 4
 172 -18 31 14 31 117 c 4
 31 152.939453125 53.7109375 179.978515625 72.4619140625 193 c 4
 93.4716796875 207.590820312 114.810546875 210.8828125 137.282226562 229 c 4
 155.108398438 243.372070312 163.147460938 265.475585938 167 304 c 4
 173 364 181 468 181 512 c 6
 181 536 l 6
 181 575 175 600 136 600 c 6
858 1022 m 4
 833 1003 802.763995054 992 771 992 c 4
 716.585180016 992 671.964749779 1009.41224844 633 1033.28316885 c 4
 589.958392643 1059.65168885 563.818359375 1093.90136719 529 1121.26757812 c 4
 495.126953125 1147.890625 452.505854854 1168 416 1168 c 4
 383 1168 355 1139 355 1092 c 4
 355 976 560.704101562 918.182617188 574 865 c 6
 575 861 l 6
 581.8125 833.75 607 832 632 832 c 6
 910 832 l 6
 930 832 939 841 939 860 c 6
 939 863 l 6
 939 904.84841363 900 943 880 1020 c 4
 878 1028 877 1032 874 1032 c 4
 871 1032 867 1029 858 1022 c 4
EndSplineSet
LCarets2: 1 0
Ligature2: "'liga' Standard Ligatures lookup" f f
EndChar

StartChar: uniFB01
Encoding: 64257 64257 59
Width: 1575
VWidth: 1920
Flags: HMW
LayerCount: 2
Fore
SplineSet
998 421 m 6
 998 509 l 6
 998 566.869140625 980 692 907.6484375 692 c 6
 674 692 l 6
 617 692 602 665 602 608 c 6
 602 512 l 6
 602 418 610 365 615 328 c 4
 621.03125 283.372070312 635.092773438 259.747070312 657 242.66796875 c 4
 686.178710938 219.921875 720.279296875 221.075195312 746.692382812 202 c 4
 767.036132812 187.307617188 782 159.653320312 782 126 c 4
 782 10 601 -18 372 -18 c 4
 172 -18 31 14 31 117 c 4
 31 152.939453125 53.7109375 179.978515625 72.4619140625 193 c 4
 93.4716796875 207.590820312 114.810546875 210.8828125 137.282226562 229 c 4
 155.108398438 243.372070312 163.147460938 265.475585938 167 304 c 4
 173 364 181 468 181 512 c 6
 181 625 l 6
 181 664 175 689 136 689 c 6
 75 689 l 6
 35 689 15 704 15 744 c 4
 15 789 23 845 35 886 c 4
 40.6875 905.43359375 50 909 67 909 c 6
 92 909 l 6
 112 909 121 918 121 937 c 6
 121 940 l 6
 121 997 50 979 50 1128 c 4
 50 1393 409 1471 706 1471 c 4
 1093 1471 1283 1278 1283 1157 c 4
 1283 1064 1222 1031 1091 1031 c 4
 960.611328125 1031 917.815429688 1053.4453125 889 1089.36328125 c 4
 866.609375 1117.2734375 869.500838589 1150.21856631 853 1177.27734375 c 4
 827.940429688 1218.37109375 753.860351562 1247 636 1247 c 4
 523 1247 405 1218 405 1151 c 4
 405 1035 560.704101562 1007.18261719 574 954 c 6
 575 950 l 6
 581.8125 922.75 607 921 632 921 c 6
 1374 921 l 6
 1446 921 1446 901 1446 782 c 6
 1446 424 l 6
 1446 348 1447.22851562 302.39453125 1452 269 c 4
 1456.16015625 239.881835938 1470.20117188 217.467773438 1482.08789062 206 c 4
 1498.53808594 190.129882812 1516.79003906 187.036132812 1532.29101562 171 c 4
 1548.09570312 154.650390625 1555 138.124023438 1555 97 c 4
 1555 1 1420 -30 1221 -30 c 4
 1011 -30 871 -1 871 96 c 4
 871 123.165039062 878.748046875 145.361328125 893.666015625 162 c 4
 909.87109375 180.075195312 932.99609375 188.951171875 950.606445312 203 c 4
 967.252929688 216.280273438 979.759765625 233.715820312 984 251 c 4
 995.637695312 298.4296875 998 337 998 421 c 6
EndSplineSet
LCarets2: 1 0
Ligature2: "'liga' Standard Ligatures lookup" f i
EndChar

StartChar: uniFB02
Encoding: 64258 64258 60
Width: 1613
VWidth: 1920
Flags: HMW
LayerCount: 2
Fore
SplineSet
121 848 m 6
 121 851 l 6
 121 908 50 920 50 1069 c 4
 50 1334 359 1412 626 1412 c 4
 791.779012306 1412 934 1381 1004 1350.03417969 c 4
 1026.24581385 1340.19332434 1034.10942934 1334.39465315 1046.99999538 1334.39465315 c 4
 1079 1334.39465315 1321.58503662 1411 1420 1411 c 4
 1461 1411 1486 1405 1486 1361 c 4
 1486 1235 1467 1022 1467 836 c 6
 1467 604 l 6
 1467 348 1478 286 1495 240 c 4
 1503.43261719 216.576171875 1515.35839844 202.889648438 1528 193.133789062 c 4
 1543.62597656 181.075195312 1562.34472656 175.01953125 1574.9140625 163 c 4
 1586.35644531 152.056640625 1593 138.668945312 1593 110 c 4
 1593 34 1509 -15 1270 -15 c 4
 1020 -15 893 7 893 94 c 4
 893 133 912 152 931 163 c 4
 946.578125 172.018554688 969 180 984 188 c 4
 1000.76464844 196.94140625 1017.26660156 212.583984375 1024 240 c 4
 1038 297 1057 427 1057 591 c 6
 1057 813 l 6
 1057 887.843652257 1046.61208291 947.458934232 1040.89019855 993.453392209 c 4
 1033.8402896 1050.12296469 774.9921875 1198 556 1198 c 4
 433 1198 355 1149 355 1092 c 4
 355 976 560.704101562 918.182617188 574 865 c 6
 575 861 l 6
 581.8125 833.75 607 832 632 832 c 6
 724 832 l 6
 769 832 792 830 792 795 c 4
 792 770 783.422851562 686.977539062 781 663 c 4
 776.248046875 615.974609375 775 603 735 603 c 6
 674 603 l 6
 617 603 602 576 602 519 c 6
 602 512 l 6
 602 418 610 365 615 328 c 4
 621.03125 283.372070312 635.092773438 259.747070312 657 242.66796875 c 4
 686.178710938 219.921875 720.279296875 221.075195312 746.692382812 202 c 4
 767.036132812 187.307617188 782 159.653320312 782 126 c 4
 782 10 601 -18 372 -18 c 4
 172 -18 31 14 31 117 c 4
 31 152.939453125 53.7109375 179.978515625 72.4619140625 193 c 4
 93.4716796875 207.590820312 114.810546875 210.8828125 137.282226562 229 c 4
 155.108398438 243.372070312 163.147460938 265.475585938 167 304 c 4
 173 364 181 468 181 512 c 6
 181 536 l 6
 181 575 175 600 136 600 c 6
 75 600 l 6
 35 600 15 615 15 655 c 4
 15 700 23 756 35 797 c 4
 40.6875 816.43359375 50 820 67 820 c 6
 92 820 l 6
 112 820 121 829 121 848 c 6
EndSplineSet
LCarets2: 1 0
Ligature2: "'liga' Standard Ligatures lookup" f l
EndChar

StartChar: uniFB03
Encoding: 64259 64259 61
Width: 2345
VWidth: 1920
Flags: HMW
LayerCount: 2
Fore
SplineSet
1808 421 m 6
 1808 509 l 6
 1808 566.869140625 1790 692 1717.6484375 692 c 6
 1484 692 l 6
 1427 692 1412 665 1412 608 c 6
 1412 512 l 6
 1412 418 1420 365 1425 328 c 4
 1431.03125 283.372070312 1445.09277344 259.747070312 1467 242.66796875 c 4
 1496.17871094 219.921875 1530.27929688 221.075195312 1556.69238281 202 c 4
 1577.03613281 187.307617188 1592 159.653320312 1592 126 c 4
 1592 10 1411 -18 1182 -18 c 4
 982 -18 841 14 841 117 c 4
 841 152.939453125 863.7109375 179.978515625 882.461914062 193 c 4
 903.471679688 207.590820312 924.810546875 210.8828125 947.282226562 229 c 4
 965.108398438 243.372070312 973.147460938 265.475585938 977 304 c 4
 983 364 991 468 991 512 c 6
 991 625 l 6
 991 664 985 689 946 689 c 6
 674 689 l 6
 617 689 602 666 602 609 c 6
 602 512 l 6
 602 418 610 365 615 328 c 4
 621.03125 283.372070312 635.092773438 259.747070312 657 242.66796875 c 4
 686.178710938 219.921875 720.279296875 221.075195312 746.692382812 202 c 4
 767.036132812 187.307617188 782 159.653320312 782 126 c 4
 782 10 601 -18 372 -18 c 4
 172 -18 31 14 31 117 c 4
 31 152.939453125 53.7109375 179.978515625 72.4619140625 193 c 4
 93.4716796875 207.590820312 114.810546875 210.8828125 137.282226562 229 c 4
 155.108398438 243.372070312 163.147460938 265.475585938 167 304 c 4
 173 364 181 468 181 512 c 6
 181 616 l 6
 181 655 175 680 136 680 c 6
 75 680 l 6
 35 680 15 695 15 735 c 4
 15 780 23 836 35 877 c 4
 40.6875 896.43359375 50 900 67 900 c 6
 92 900 l 6
 112 900 121 909 121 928 c 6
 121 931 l 6
 121 968 50 990 50 1109 c 4
 50 1344 299 1412 476 1412 c 4
 621.966357809 1412 812.255133566 1388.65194899 911.999997026 1332.35821912 c 4
 922.3621759 1326.5100413 933 1319.73632812 940.00390625 1319.73632812 c 4
 945.031878428 1319.73632812 949.822500473 1322.87786595 954.999995688 1327.26930394 c 4
 1081.6005982 1434.64916084 1313.24742736 1471.00000047 1516 1471 c 4
 1903 1471 2093 1278 2093 1157 c 4
 2093 1064 2032 1031 1901 1031 c 4
 1770.61132812 1031 1727.81542969 1053.4453125 1699 1089.36328125 c 4
 1676.609375 1117.2734375 1679.50097656 1150.21875 1663 1177.27734375 c 4
 1637.94042969 1218.37109375 1563.86035156 1247 1446 1247 c 4
 1333 1247 1215 1218 1215 1151 c 4
 1215 1035 1370.70410156 1007.18261719 1384 954 c 6
 1385 950 l 6
 1391.8125 922.75 1417 921 1442 921 c 6
 2184 921 l 6
 2256 921 2256 901 2256 782 c 6
 2256 424 l 6
 2256 348 2257.22851562 302.39453125 2262 269 c 4
 2266.16015625 239.881835938 2280.20117188 217.467773438 2292.08789062 206 c 4
 2308.53808594 190.129882812 2326.79003906 187.036132812 2342.29101562 171 c 4
 2358.09570312 154.650390625 2365 138.124023438 2365 97 c 4
 2365 1 2230 -30 2031 -30 c 4
 1821 -30 1681 -1 1681 96 c 4
 1681 123.165039062 1688.74804688 145.361328125 1703.66601562 162 c 4
 1719.87109375 180.075195312 1742.99609375 188.951171875 1760.60644531 203 c 4
 1777.25292969 216.280273438 1789.75976562 233.715820312 1794 251 c 4
 1805.63769531 298.4296875 1808 337 1808 421 c 6
902 909 m 6
 922 909 931 918 931 937 c 6
 931 940 l 6
 931 979.747298128 875.576270317 971 875.576270317 1031.89078059 c 4
 875.576270317 1034.65607556 871.450909196 1040.48270616 863 1048.23817524 c 4
 844.980265266 1064.77503445 807.293945312 1109.08203125 748 1135.17871094 c 4
 674.436811548 1167.5556249 563.745117188 1188 446 1188 c 4
 383 1188 355 1139 355 1092 c 4
 355 976 560.704101562 995.182617188 574 942 c 6
 575 938 l 6
 581.8125 910.75 607 909 632 909 c 6
 902 909 l 6
EndSplineSet
LCarets2: 2 0 0
Ligature2: "'liga' Standard Ligatures lookup" f f i
EndChar

StartChar: uniFB04
Encoding: 64260 64260 62
Width: 2345
VWidth: 1920
Flags: HMW
LayerCount: 2
Fore
SplineSet
902 909 m 2
 922 909 931 918 931 937 c 2
 931 940 l 2
 931 979.747298128 875.576270317 971 875.576270317 1031.89078059 c 0
 875.576270317 1034.65607556 871.450909196 1040.48270616 863 1048.23817524 c 0
 844.980265266 1064.77503445 807.293945312 1109.08203125 748 1135.17871094 c 0
 674.436811548 1167.5556249 563.745117188 1188 446 1188 c 0
 383 1188 355 1139 355 1092 c 0
 355 976 560.704101562 995.182617188 574 942 c 2
 575 938 l 2
 581.8125 910.75 607 909 632 909 c 2
 902 909 l 2
674 689 m 2
 617 689 602 666 602 609 c 2
 602 512 l 2
 602 418 610 365 615 328 c 0
 621.03125 283.372070312 635.092773438 259.747070312 657 242.66796875 c 0
 686.178710938 219.921875 720.279296875 221.075195312 746.692382812 202 c 0
 767.036132812 187.307617188 782 159.653320312 782 126 c 0
 782 10 601 -18 372 -18 c 0
 172 -18 31 14 31 117 c 0
 31 152.939453125 53.7109375 179.978515625 72.4619140625 193 c 0
 93.4716796875 207.590820312 114.810546875 210.8828125 137.282226562 229 c 0
 155.108398438 243.372070312 163.147460938 265.475585938 167 304 c 0
 173 364 181 468 181 512 c 2
 181 616 l 2
 181 655 175 680 136 680 c 2
 75 680 l 2
 35 680 15 695 15 735 c 0
 15 780 23 836 35 877 c 0
 40.6875 896.43359375 50 900 67 900 c 2
 92 900 l 2
 112 900 121 909 121 928 c 2
 121 931 l 2
 121 968 50 990 50 1109 c 0
 50 1344 299 1412 476 1412 c 0
 621.966357809 1412 822.254882812 1358.65234375 922 1302.35839844 c 0
 932.362304688 1296.50976562 943 1289.73632812 950.00390625 1289.73632812 c 0
 955.032226562 1289.73632812 959.822265625 1292.87792969 965 1297.26953125 c 0
 1066.44121592 1383.30977977 1298.32645195 1412.00000008 1436 1412 c 0
 1601.77929688 1412 1744 1381 1814 1350.03417969 c 0
 1836.24609375 1340.19335938 1844.109375 1334.39453125 1857 1334.39453125 c 0
 1889 1334.39453125 2131.58496094 1411 2230 1411 c 0
 2271 1411 2296 1405 2296 1361 c 0
 2296 1235 2277 1022 2277 836 c 2
 2277 604 l 2
 2277 348 2288 286 2305 240 c 0
 2313.43261719 216.576171875 2325.35839844 202.889648438 2338 193.133789062 c 0
 2353.62597656 181.075195312 2372.34472656 175.01953125 2384.9140625 163 c 0
 2396.35644531 152.056640625 2403 138.668945312 2403 110 c 0
 2403 34 2319 -15 2080 -15 c 0
 1830 -15 1703 7 1703 94 c 0
 1703 133 1722 152 1741 163 c 0
 1756.578125 172.018554688 1779 180 1794 188 c 0
 1810.76464844 196.94140625 1827.26660156 212.583984375 1834 240 c 0
 1848 297 1867 427 1867 591 c 2
 1867 813 l 2
 1867 887.84375 1856.61230469 947.458984375 1850.890625 993.453125 c 0
 1843.83984375 1050.12304688 1584.9921875 1198 1366 1198 c 0
 1243 1198 1165 1149 1165 1092 c 0
 1165 976 1370.70410156 918.182617188 1384 865 c 2
 1385 861 l 2
 1391.8125 833.75 1417 832 1442 832 c 2
 1534 832 l 2
 1579 832 1602 830 1602 795 c 0
 1602 770 1593.42285156 686.977539062 1591 663 c 0
 1586.24804688 615.974609375 1585 603 1545 603 c 2
 1484 603 l 2
 1427 603 1412 576 1412 519 c 2
 1412 512 l 2
 1412 418 1420 365 1425 328 c 0
 1431.03125 283.372070312 1445.09277344 259.747070312 1467 242.66796875 c 0
 1496.17871094 219.921875 1530.27929688 221.075195312 1556.69238281 202 c 0
 1577.03613281 187.307617188 1592 159.653320312 1592 126 c 0
 1592 10 1411 -18 1182 -18 c 0
 982.267578125 -18 841 13.9071036302 841 117 c 0
 841 152.939453125 863.7109375 179.978515625 882.461914062 193 c 0
 903.471679688 207.590820312 924.810546875 210.8828125 947.282226562 229 c 0
 965.108398438 243.372070312 973.147460938 265.475585938 977 304 c 0
 983 364 991 468 991 512 c 2
 991 625 l 2
 991 664 985 689 946 689 c 2
 674 689 l 2
EndSplineSet
LCarets2: 2 0 0
Ligature2: "'liga' Standard Ligatures lookup" f f l
EndChar

StartChar: quotesingle
Encoding: 39 39 63
Width: 609
VWidth: 1920
Flags: HMW
LayerCount: 2
Fore
SplineSet
204 829 m 4
 161 829 138 874 138 904 c 4
 138 935 138 975 128 1040 c 4
 120 1093 70 1162 70 1282 c 4
 70 1387 192 1503 359 1503 c 4
 474 1503 539 1445 539 1380 c 4
 539 1221 420 1083 365 1007 c 4
 280 889 250 829 204 829 c 4
EndSplineSet
EndChar

StartChar: quoteright
Encoding: 8217 8217 66
Width: 647
VWidth: 1920
Flags: HMW
LayerCount: 2
Fore
SplineSet
183 657 m 4
 183 682 200.796875 711.532226562 225 743 c 4
 248.0703125 772.994140625 296 846 296 916 c 4
 296 946 289 957 278 962 c 4
 269.806640625 965.724609375 252.846679688 969.045898438 226 977 c 4
 172 993 70 1054 70 1191 c 4
 70 1338 175 1453 322 1453 c 4
 480 1453 577 1333 577 1121 c 4
 577 813 416 575 302 575 c 4
 208 575 183 633 183 657 c 4
EndSplineSet
EndChar

StartChar: quoteleft
Encoding: 8216 8216 67
Width: 647
VWidth: 1920
Flags: HMW
LayerCount: 2
Fore
SplineSet
464 1411 m 0
 464 1386 446.203125 1356.46777344 422 1325 c 0
 398.9296875 1295.00585938 351 1222 351 1152 c 0
 351 1122 358 1111 369 1106 c 0
 377.193359375 1102.27539062 394.153320312 1098.95410156 421 1091 c 0
 475 1075 577 1014 577 877 c 0
 577 730 472 615 325 615 c 0
 167 615 70 735 70 947 c 0
 70 1255 231 1493 345 1493 c 0
 439 1493 464 1435 464 1411 c 0
EndSplineSet
EndChar

StartChar: hyphen
Encoding: 45 45 71
Width: 702
Flags: HMW
LayerCount: 2
Fore
SplineSet
70 486 m 4
 70 540 98.3095703125 708.356445312 144 803 c 4
 158 832 181 846 212 846 c 4
 275 846 301 841 354 841 c 4
 446 841 525 857 580 857 c 4
 609 857 632 842 632 813 c 4
 632 759 579.049804688 611.97265625 542 507 c 4
 530 473 489 461 450 461 c 4
 400 461 328 474 262 474 c 4
 188 474 154 442 119 442 c 4
 95 442 70 458 70 486 c 4
EndSplineSet
EndChar

StartChar: exclam
Encoding: 33 33 73
Width: 569
VWidth: 1920
Flags: HMW
LayerCount: 2
Fore
SplineSet
34 1143 m 0
 34 1310 117 1443 284 1443 c 0
 451 1443 534 1310 534 1143 c 0
 534 841.91015625 419.16796875 646.01953125 393.7890625 608 c 0
 364.625209569 564.310330833 319.91015625 517 284 517 c 0
 248.08984375 517 212.851460612 563.965801852 184.2109375 608 c 0
 158.83203125 647.01953125 34 851.91015625 34 1143 c 0
42.064453125 199 m 0
 42.064453125 333.166015625 151.833984375 442.935546875 286 442.935546875 c 0
 420.166015625 442.935546875 529.935546875 333.166015625 529.935546875 199 c 0
 529.935546875 64.833984375 420.166015625 -44.935546875 286 -44.935546875 c 0
 151.833984375 -44.935546875 42.064453125 64.833984375 42.064453125 199 c 0
EndSplineSet
EndChar

StartChar: question
Encoding: 63 63 74
Width: 1121
VWidth: 1920
Flags: HMW
LayerCount: 2
Fore
SplineSet
561 518 m 0
 455 518 403 582 403 676 c 0
 403 850 550 957 550 1074 c 0
 550 1131 535 1187 491 1187 c 0
 457 1187 445 1158 445 1134 c 0
 445 1109 460 1092 460 1052 c 0
 460 942 340 853 231 853 c 0
 112 853 64 932 64 1032 c 0
 64 1272 282 1454 600 1454 c 0
 858 1454 1036 1251 1036 1060 c 0
 1036 849 802.643096664 800.718587187 763 711 c 0
 744 668 746.54479978 640.543359297 737 610 c 0
 722 562 657 518 561 518 c 0
352.4609375 225 m 0
 352.4609375 362.092773438 448.631835938 470.5390625 598 470.5390625 c 0
 745.323242188 470.5390625 843.5390625 362.092773438 843.5390625 225 c 0
 843.5390625 87.9072265625 745.323242188 -20.5390625 598 -20.5390625 c 0
 448.631835938 -20.5390625 352.4609375 87.9072265625 352.4609375 225 c 0
EndSplineSet
EndChar

StartChar: ampersand
Encoding: 38 38 75
Width: 1595
Flags: HMW
LayerCount: 2
Fore
SplineSet
914 415 m 0
 845 415 785 464 785 576 c 0
 785 954.850585938 1284 997.99609375 1284 1112 c 0
 1284 1135 1266 1153 1243 1153 c 0
 1200 1153 1193 1144 1175 1144 c 0
 1153 1144 1138 1155 1138 1178 c 0
 1138 1325 1291 1384 1417 1384 c 0
 1563 1384 1695 1265 1695 1107 c 0
 1695 649.754882812 968 660.978515625 968 550 c 0
 968 516.84765625 987.55859375 496.67578125 987.55859375 471 c 0
 987.55859375 437 961.510742188 415 914 415 c 0
820 1131 m 0
 792.987610478 1131 772.849609375 1144.36035156 751 1162.97070312 c 0
 723.80859375 1186.12988281 687.269317664 1208 640 1208 c 0
 575 1208 541 1139 541 1075 c 0
 541 931 558 876 606 876 c 0
 624 876 601 866 601 833 c 0
 601 805 630 804 616 804 c 0
 572 804 543 809 543 635 c 0
 543 411 739 237 932 237 c 0
 1075 237 1186 352 1186 490 c 0
 1186 618 1081 619 932 656 c 1
 1338 729 l 1
 1464.64355469 712.154296875 1577 613.782226562 1577 493 c 0
 1577 172 1202 -45 743 -45 c 0
 334 -45 7 192 7 463 c 0
 7 844 418 967 609 967 c 0
 729 967 759 908 759 851 c 0
 759 804 715 693 515 693 c 0
 275 693 133 835 133 1065 c 0
 133 1305 375 1457 628 1457 c 0
 811.133789062 1457 949 1368 949 1244 c 0
 949 1180 879 1131 820 1131 c 0
EndSplineSet
EndChar

StartChar: one
Encoding: 49 49 76
Width: 1230
VWidth: 1920
Flags: HMW
LayerCount: 2
Fore
SplineSet
360 521 m 6
 360 721 l 6
 360 848 345 873 280 873 c 4
 225 873 194 865 164 865 c 4
 124 865 88 910 88 950 c 4
 88 975 96 1010 158 1048 c 4
 288 1128 563 1189 712 1206 c 4
 799 1216 855 1222 892 1222 c 4
 956 1222 1004 1187 1004 1132 c 4
 1004 1089 963 1069 934 1059 c 4
 894 1045 866 1025 858 1000 c 4
 850 975 848 925 848 844 c 6
 848 594 l 6
 848 338 854 291 878 248 c 4
 899 210 944 190 990 190 c 4
 1014 190 1029 192 1048 192 c 4
 1086 192 1130 175 1130 109 c 4
 1130 -17 945 -45 596 -45 c 4
 316 -45 84 -40 84 88 c 4
 84 135 118 166 156 166 c 4
 184 166 207 162 234 162 c 4
 293 162 321 181 332 207 c 4
 356 265 360 347 360 521 c 6
EndSplineSet
EndChar

StartChar: two
Encoding: 50 50 77
Width: 1230
Flags: HMW
LayerCount: 2
Fore
SplineSet
162 766 m 4
 113 766 27 837 27 909 c 4
 27 1061 353 1254 659 1254 c 4
 925 1254 1122 1118 1122 956 c 4
 1122 774 1044 708 864 515 c 4
 814 462 790 442 790 420 c 4
 790 394 816 378 909 378 c 6
 941 378 l 6
 986 378 1000 386 1026 408 c 4
 1045 424 1067 452 1114 452 c 4
 1182 452 1213 372 1213 268 c 4
 1213 168 1117 -104 1009 -104 c 4
 940 -104 926 -76 920 -67 c 4
 910 -51 896 -27 882 -13 c 4
 869 0 829 0 807 0 c 6
 157 0 l 22
 59 0 22 9 22 63 c 4
 22 105 67 138 103 174 c 4
 139 210 220 310 383 513 c 4
 455 603 524 688 524 778 c 4
 524 848 480 886 410 886 c 4
 370 886 341 876 290 839 c 4
 222 790 200 766 162 766 c 4
EndSplineSet
EndChar

StartChar: three
Encoding: 51 51 78
Width: 1230
Flags: HMW
LayerCount: 2
Fore
SplineSet
105 847 m 4
 60 847 14 912 14 972 c 4
 14 1018 58 1101 288 1175 c 4
 379 1204 479 1209 555 1209 c 4
 830 1209 1037 1101 1037 946 c 4
 1037 871 1002 793 921 722 c 4
 907 710 876 686 876 679 c 4
 876 668 904 651 925 651 c 4
 1074 649 1221 545 1221 338 c 4
 1221 -59 822 -221 451 -221 c 4
 140 -221 11 -137 11 -67 c 4
 11 -2 41 62 119 62 c 4
 148 62 168 60 189 55 c 4
 243 41 292 28 339 28 c 4
 509 28 627 97 627 229 c 4
 627 333 518 377 429 377 c 4
 364 377 301 357 276 357 c 4
 243 357 187 423 187 506 c 4
 187 553 195 572 213 577 c 4
 304 602 451 680 451 783 c 4
 451 856 388 916 302 916 c 4
 238 916 197 884 159 864 c 4
 141 854 124 847 105 847 c 4
EndSplineSet
EndChar

StartChar: four
Encoding: 52 52 79
Width: 1230
Flags: HMW
LayerCount: 2
Fore
SplineSet
587 590 m 0
 587 628 587 614 587 678 c 0
 587 762 579 784 552 784 c 0
 527 784 511 758 492 736 c 2
 423 658 l 2
 407 639 376 601 376 575 c 0
 376 553 393 548 428 548 c 0
 510 548 505 548 537 548 c 0
 583 548 587 562 587 590 c 0
531 207 m 2
 147 207 l 2
 98 207 33 227 33 304 c 2
 33 406 l 2
 33 474 47 512 89 571 c 2
 516 1037 l 2
 633 1164 756 1348 916 1348 c 0
 1004 1348 1040 1290 1040 1217 c 0
 1040 1121 1021 962 1021 772 c 2
 1021 614 l 2
 1021 588 1026 583 1042 583 c 0
 1072 583 1082 585 1104 585 c 0
 1134 585 1145 560 1145 538 c 0
 1145 486 1148 302 1148 286 c 0
 1148 250 1119 217 1083 217 c 0
 1076 217 1067 218 1061 218 c 0
 1048 218 1044 204 1044 184 c 2
 1044 96 l 10
 1044 54 1050 23 1050 11 c 0
 1050 -5 1041 -15 1017 -25 c 0
 984 -39 757 -32 636 -32 c 0
 602 -32 576 -22 576 10 c 0
 576 32 578 38 578 102 c 2
 578 172 l 2
 578 194 570 207 531 207 c 2
EndSplineSet
EndChar

StartChar: five
Encoding: 53 53 80
Width: 1230
Flags: HMW
LayerCount: 2
Fore
SplineSet
374 1198 m 6
 665 1198 l 6
 740 1198 824 1208 903 1220 c 4
 964 1229 1003 1242 1055 1242 c 4
 1104 1242 1123 1202 1123 1172 c 4
 1123 1136 1118 1105 1105 1071 c 6
 1091 1023 l 6
 1061 920 1032 887 836 887 c 6
 718 887 l 6
 525 887 414 860 397 814 c 6
 394 806 l 6
 391 798 390 792 390 780 c 4
 390 745 423 729 467 729 c 4
 745 729 1156 599 1156 309 c 4
 1156 19 822 -228 398 -228 c 4
 204 -228 90 -170 90 -97 c 4
 90 -41 122 12 152 12 c 4
 182 12 253 -14 350 -14 c 4
 486 -14 577 56 577 160 c 4
 577 254 488 327 181 368 c 4
 127 375 51 389 51 467 c 4
 51 502 59 555 72 600 c 6
 195 1026 l 6
 227 1138 244 1198 374 1198 c 6
EndSplineSet
EndChar

StartChar: six
Encoding: 54 54 81
Width: 1230
Flags: HMW
LayerCount: 2
Fore
SplineSet
514 501 m 4
 514 352 592 246 684 246 c 4
 736 246 762 290 762 339 c 4
 762 508 682 609 600 609 c 4
 548 609 514 570 514 501 c 4
34 507 m 4
 34 895 230 1150 396 1300 c 4
 428 1329 463 1342 498 1342 c 4
 541 1342 627 1305 692 1278 c 4
 751 1253 764 1226 764 1197 c 4
 764 1183 749 1158 728 1138 c 4
 665 1078 638 1041 584 950 c 4
 577 939 572 912 572 905 c 4
 572 887 587 868 604 868 c 4
 612 868 635 872 660 882 c 4
 707 901 744 909 806 909 c 4
 998 909 1196 752 1196 503 c 4
 1196 194 940 -60 608 -60 c 4
 356 -60 34 123 34 507 c 4
EndSplineSet
EndChar

StartChar: seven
Encoding: 55 55 82
Width: 1230
Flags: HMW
LayerCount: 2
Fore
SplineSet
398 1208 m 0
 442 1208 834 1215 878 1215 c 0
 922 1215 1070 1220 1108 1220 c 0
 1176 1220 1224 1181 1224 1121 c 0
 1224 1061 1183 968 1172 932 c 2
 836 -108 l 2
 810 -188 816 -271 714 -271 c 0
 619 -271 376 -240 376 -154 c 0
 376 -89 447 -16 514 131 c 2
 776 706 l 2
 788 731 790 743 790 757 c 0
 790 791 736 804 694 804 c 0
 652 804 584 803 510 803 c 0
 406 803 356 785 336 761 c 0
 319 741 315 714 294 694 c 0
 276 676 250 661 204 661 c 0
 168 661 136 672 98 724 c 0
 79 750 56 795 56 923 c 0
 56 1094 150 1260 254 1260 c 0
 308 1260 344 1208 398 1208 c 0
EndSplineSet
EndChar

StartChar: eight
Encoding: 56 56 83
Width: 1230
Flags: HMW
LayerCount: 2
Fore
SplineSet
14 927 m 4
 14 1201 282 1352 622 1352 c 4
 942 1352 1158 1230 1158 1020 c 4
 1158 906 1084 840 1024 798 c 4
 1002 782 994 779 994 774 c 4
 994 767 1001 767 1012 759 c 4
 1181 645 1216 575 1216 422 c 4
 1216 164 972 -33 608 -33 c 4
 254 -33 20 144 20 356 c 4
 20 488 95 574 160 611 c 4
 165 614 178 624 178 632 c 4
 178 639 167 650 136 671 c 4
 50 729 14 825 14 927 c 4
389 494 m 4
 380 486 372 469 372 427 c 4
 372 293 486 191 598 191 c 4
 700 191 746 243 746 287 c 4
 746 351 682 420 468 479 c 4
 438 487 420 500 404 500 c 4
 399 500 394 499 389 494 c 4
736 920 m 4
 754 944 766 984 766 1014 c 4
 766 1092 698 1142 610 1142 c 4
 562 1142 508 1110 508 1064 c 4
 508 1030 528 993 660 921 c 4
 688 906 694 904 708 904 c 4
 721 904 728 909 736 920 c 4
EndSplineSet
EndChar

StartChar: nine
Encoding: 57 57 84
Width: 1230
Flags: HMW
LayerCount: 2
Fore
SplineSet
760 661 m 4
 760 810 682 916 590 916 c 4
 538 916 510 872 510 823 c 4
 510 654 592 553 674 553 c 4
 726 553 760 592 760 661 c 4
1210 728 m 4
 1210 340 964 -78 808 -228 c 4
 777 -257 733 -269 698 -269 c 4
 655 -269 577 -238 512 -211 c 4
 453 -186 442 -159 442 -130 c 4
 442 -116 455 -91 476 -71 c 4
 539 -11 596 61 640 152 c 4
 646 164 652 190 652 197 c 4
 652 215 637 234 620 234 c 4
 612 234 591 230 564 225 c 4
 517 216 482 213 420 213 c 4
 228 213 20 420 20 699 c 4
 20 1008 286 1232 618 1232 c 4
 870 1232 1210 1112 1210 728 c 4
EndSplineSet
EndChar

StartChar: figuredash
Encoding: 8210 8210 85
Width: 1922
Flags: HMW
LayerCount: 2
Fore
SplineSet
70 486 m 4
 70 540 98 708 144 803 c 4
 158 832 181 846 212 846 c 4
 325 846 1461 841 1574 841 c 4
 1666 841 1745 857 1800 857 c 4
 1829 857 1852 842 1852 813 c 4
 1852 759 1799 612 1762 507 c 4
 1750 473 1709 461 1670 461 c 4
 1620 461 1578 474 1432 474 c 6
 307 474 l 6
 194 474 153 442 119 442 c 4
 95 442 70 458 70 486 c 4
EndSplineSet
EndChar

StartChar: slash
Encoding: 47 47 86
Width: 880
Flags: HMW
LayerCount: 2
Back
SplineSet
336 -112 m 4
 319.418945312 -160.14453125 112 -196 80 -196 c 4
 26.6650390625 -196 10.0000002385 -172.496806434 10 -135 c 4
 10 -100 39.4130859375 -60.5283203125 77 40 c 4
 246.82081316 484.512520173 409.554924996 936.11174167 564 1396 c 4
 580.581054688 1444.14453125 768 1480 800 1480 c 4
 853.352539062 1480 870 1456.48144531 870 1419 c 4
 870 1384 860.586914062 1344.52832031 823 1244 c 4
 653.178710938 799.487304688 490.4453125 347.888671875 336 -112 c 4
EndSplineSet
Fore
SplineSet
336 -112 m 0
 319.418945312 -160.14453125 112 -196 80 -196 c 0
 26.6650390625 -196 10.0000002385 -172.496806434 10 -135 c 0
 10 -100 39.4130859375 -60.5283203125 77 40 c 0
 246.82081316 484.512520173 409.554924996 936.11174167 564 1396 c 0
 580.581054688 1444.14453125 768 1480 800 1480 c 4
 853.352539062 1480 870 1456.48144531 870 1419 c 4
 870 1384 860.586914062 1344.52832031 823 1244 c 4
 653.178710938 799.487304688 490.4453125 347.888671875 336 -112 c 0
EndSplineSet
EndChar

StartChar: endash
Encoding: 8211 8211 87
Width: 1142
Flags: HMW
LayerCount: 2
Fore
SplineSet
70 486 m 0
 70 540 98 708 144 803 c 0
 158 832 181 846 212 846 c 0
 325 846 681 841 794 841 c 0
 886 841 965 857 1020 857 c 0
 1049 857 1072 842 1072 813 c 0
 1072 759 1019 612 982 507 c 0
 970 473 929 461 890 461 c 0
 840 461 798 474 652 474 c 2
 307 474 l 2
 194 474 153 442 119 442 c 0
 95 442 70 458 70 486 c 0
EndSplineSet
EndChar

StartChar: emdash
Encoding: 8212 8212 88
Width: 1922
Flags: HMW
LayerCount: 2
Fore
SplineSet
70 486 m 0
 70 540 98 708 144 803 c 0
 158 832 181 846 212 846 c 0
 325 846 1461 841 1574 841 c 0
 1666 841 1745 857 1800 857 c 0
 1829 857 1852 842 1852 813 c 0
 1852 759 1799 612 1762 507 c 0
 1750 473 1709 461 1670 461 c 0
 1620 461 1578 474 1432 474 c 2
 307 474 l 2
 194 474 153 442 119 442 c 0
 95 442 70 458 70 486 c 0
EndSplineSet
EndChar

StartChar: uni2015
Encoding: 8213 8213 89
Width: 1922
Flags: HMW
LayerCount: 2
Fore
SplineSet
70 486 m 0
 70 540 98 708 144 803 c 0
 158 832 181 846 212 846 c 0
 325 846 1461 841 1574 841 c 0
 1666 841 1745 857 1800 857 c 0
 1829 857 1852 842 1852 813 c 0
 1852 759 1799 612 1762 507 c 0
 1750 473 1709 461 1670 461 c 0
 1620 461 1578 474 1432 474 c 2
 307 474 l 2
 194 474 153 442 119 442 c 0
 95 442 70 458 70 486 c 0
EndSplineSet
EndChar

StartChar: numbersign
Encoding: 35 35 90
Width: 1163
Flags: HMW
LayerCount: 2
Fore
SplineSet
839 1200 m 0
 906 1200 925 1165 925 1135 c 0
 925 1105 907.108762576 1077.97647261 895 1022 c 10
 667 -32 l 18
 656 -81 608 -126 546 -126 c 0
 481 -126 460 -91 460 -55 c 0
 460 -20 504.214010496 15.953132266 527 120 c 10
 693 878 l 18
 721.77047629 1009.37362065 726 1094 726 1120 c 0
 726 1160 771 1200 839 1200 c 0
489 1200 m 0
 556 1200 575 1165 575 1135 c 0
 575 1105 557.108762576 1077.97647261 545 1022 c 10
 317 -32 l 18
 306 -81 258 -126 196 -126 c 0
 131 -126 110 -91 110 -55 c 0
 110 -20 154.214010496 15.953132266 177 120 c 10
 343 878 l 18
 371.77047629 1009.37362065 376 1084 376 1120 c 0
 376 1160 421 1200 489 1200 c 0
81 668 m 0
 81 692 137 945 165 975 c 0
 179 990 192 998 213 998 c 0
 276 998 872 983 925 983 c 0
 1017 983 1036 999 1091 999 c 0
 1110 999 1123 982 1123 963 c 0
 1123 939 1070 688 1053 657 c 0
 1044 640 1030 631 1011 631 c 0
 983 631 934 650 871 650 c 2
 291 650 l 2
 211 650 124 640 109 640 c 0
 95 640 81 650 81 668 c 0
21 188 m 4
 21 212 77 465 105 495 c 4
 119 510 132 518 153 518 c 4
 216 518 812 503 865 503 c 4
 957 503 976 519 1031 519 c 4
 1050 519 1063 502 1063 483 c 4
 1063 459 1010 208 993 177 c 4
 984 160 970 151 951 151 c 4
 923 151 874 170 811 170 c 6
 231 170 l 6
 151 170 64 160 49 160 c 4
 35 160 21 170 21 188 c 4
EndSplineSet
EndChar

StartChar: underscore
Encoding: 95 95 91
Width: 1024
VWidth: 2048
Flags: HMW
LayerCount: 2
Fore
SplineSet
486 -652 m 2
 160 -652 96 -659 20 -659 c 0
 -7 -659 -20 -656 -20 -635 c 2
 -20 -375 l 2
 -20 -354 -7 -351 20 -351 c 0
 96 -351 160 -358 486 -358 c 2
 507 -358 l 2
 833 -358 928 -351 1004 -351 c 0
 1031 -351 1044 -354 1044 -375 c 2
 1044 -635 l 2
 1044 -656 1031 -659 1004 -659 c 0
 928 -659 833 -652 507 -652 c 2
 486 -652 l 2
EndSplineSet
EndChar

StartChar: dollar
Encoding: 36 36 92
Width: 1226
VWidth: 1920
Flags: HMW
LayerCount: 2
Fore
SplineSet
298 309 m 0
 354 227 431 195 490 195 c 256
 558 195 606 217 606 268 c 256
 606 344 500.287109375 355.856445312 280 476 c 0
 119.02734375 563.793945312 16 628 16 813 c 256
 16 1153 344 1275 662 1275 c 256
 886 1275 1016.98144531 1185.97363281 1049 1164 c 0
 1100 1129 1121 1084 1121 1045 c 0
 1121 962 1030 886 952 886 c 0
 900 886 822.306640625 931.068359375 779 1000 c 0
 745.186859657 1053.82073522 688 1074 608 1074 c 256
 541 1074 492 1046 492 986 c 256
 492 916 635.193359375 877.528320312 872 784 c 0
 1110 690 1180 617 1180 388 c 256
 1180 51 745 -5 516 -5 c 256
 267 -5 130 86 64 148 c 0
 39.564453125 170.955078125 21 214 21 279 c 0
 21 363 83 411 170 411 c 0
 236 411 270.159598622 349.766302018 298 309 c 0
688 -4 m 2
 688 -46 710 -77 710 -89 c 0
 710 -105 701 -115 677 -125 c 0
 644 -139 522 -160 501 -160 c 0
 487 -160 471 -152 471 -120 c 0
 471 -98 496 -22 496 122 c 2
 496 1260 l 2
 496 1302 474 1333 474 1345 c 0
 474 1361 483 1371 507 1381 c 0
 540 1395 662 1416 683 1416 c 0
 697 1416 713 1408 713 1376 c 0
 713 1354 688 1278 688 1134 c 2
 688 -4 l 2
EndSplineSet
EndChar

StartChar: at
Encoding: 64 64 93
Width: 1538
VWidth: 1920
Flags: HMW
LayerCount: 2
Fore
SplineSet
90 412 m 0
 90 944 556 1187 909 1187 c 0
 1284 1187 1468 944 1468 662 c 0
 1468 382 1264 137 976 137 c 0
 904 137 863 153 854 210 c 0
 852.440374265 219.877629653 850.059117478 233.229700764 847 254 c 0
 845.387367227 264.949192208 839 270 829 270 c 0
 816 270 802.726414984 256.372816094 794 247 c 0
 740 189 686 144 589 144 c 0
 475 144 420 237 420 355 c 0
 420 612 617 869 809 869 c 0
 855 869 895.712912119 846.191391921 926 826 c 0
 932 822 940 818 953 818 c 0
 964.512695312 818 977.086914062 820.2734375 998 832.805664062 c 0
 1015.5703125 843.333984375 1027.31277484 850.933285158 1040 857.16245152 c 0
 1066.12554756 869.989557527 1090.34387585 876 1133 876 c 0
 1159 876 1170 859 1170 838 c 0
 1170 816 1166 780 1159 727 c 0
 1144 610 1126 506 1126 406 c 0
 1126 376 1139 360 1160 360 c 0
 1219 360 1298 495 1298 652 c 0
 1298 884 1168 1044 918 1044 c 4
 637 1044 269 767 269 402 c 4
 269 106 483 -72 752 -72 c 0
 942 -72 1074 0 1169 82 c 0
 1178 90 1191 98 1204 98 c 0
 1234 98 1290 33 1290 10 c 0
 1290 -10 1273 -23 1260 -34 c 0
 1157 -119 988 -221 751 -221 c 0
 412 -221 90 8 90 412 c 0
875 718 m 0
 817 718 719 529 719 423 c 0
 719 393 731 361 754 361 c 0
 805 361 905 549 905 678 c 0
 905 701 894 718 875 718 c 0
EndSplineSet
EndChar

StartChar: braceleft
Encoding: 123 123 95
Width: 857
Flags: HMW
LayerCount: 2
Fore
SplineSet
334 589 m 0
 334 508 411 439 457 293 c 0
 479.100585938 222.853515625 492 136 492 32 c 0
 492 -25.7060546875 498.8828125 -48.4951171875 523 -61 c 0
 550 -75 576 -76 604 -76 c 0
 642 -76 683 -75 718 -75 c 0
 768.149414062 -75 807 -91 807 -164 c 0
 807 -232.611328125 789.758789062 -254.916015625 750 -274 c 0
 675 -310 567.991210938 -326 431 -326 c 0
 344 -326 253.544921875 -321.915039062 206 -313 c 0
 158 -304 134 -283 134 -244 c 0
 134 -205 160 102 150 321 c 0
 146.396484375 399.91796875 70 475 70 589 c 0
 70 703 146.396484375 778.08203125 150 857 c 0
 160 1076 134 1383 134 1422 c 0
 134 1461 158 1482 206 1491 c 0
 253.544921875 1499.91503906 344 1504 431 1504 c 0
 567.991210938 1504 675 1488 750 1452 c 0
 789.758789062 1432.91601562 807 1410.61132812 807 1342 c 0
 807 1269 768.149414062 1253 718 1253 c 0
 683 1253 642 1254 604 1254 c 0
 576 1254 550 1253 523 1239 c 0
 498.8828125 1226.49511719 492 1203.70605469 492 1146 c 0
 492 1042 479.100585938 955.146484375 457 885 c 0
 411 739 334 670 334 589 c 0
EndSplineSet
EndChar

StartChar: bar
Encoding: 124 124 96
Width: 488
VWidth: 1920
Flags: HMW
LayerCount: 2
Fore
SplineSet
401 246 m 6
 401 -80 418 -244 418 -320 c 4
 418 -347 415 -360 394 -360 c 6
 94 -360 l 6
 73 -360 70 -347 70 -320 c 4
 70 -244 87 -80 87 246 c 6
 87 763 l 6
 87 1089 70 1284 70 1360 c 4
 70 1387 73 1400 94 1400 c 6
 394 1400 l 6
 415 1400 418 1387 418 1360 c 4
 418 1284 401 1089 401 763 c 6
 401 246 l 6
EndSplineSet
EndChar

StartChar: braceright
Encoding: 125 125 97
Width: 857
Flags: HMW
LayerCount: 2
Fore
SplineSet
523 589 m 4
 523 670 446 739 400 885 c 4
 377.899414062 955.146484375 365 1042 365 1146 c 4
 365 1203.70605469 358.1171875 1226.49511719 334 1239 c 4
 307 1253 281 1254 253 1254 c 4
 215 1254 174 1253 139 1253 c 4
 88.8505859375 1253 50 1269 50 1342 c 4
 50 1410.61132812 67.2412109375 1432.91601562 107 1452 c 4
 182 1488 289.008789062 1504 426 1504 c 4
 513 1504 603.455078125 1499.91503906 651 1491 c 4
 699 1482 723 1461 723 1422 c 4
 723 1383 697 1076 707 857 c 4
 710.603515625 778.08203125 787 703 787 589 c 4
 787 475 710.603515625 399.91796875 707 321 c 4
 697 102 723 -205 723 -244 c 4
 723 -283 699 -304 651 -313 c 4
 603.455078125 -321.915039062 513 -326 426 -326 c 4
 289.008789062 -326 182 -310 107 -274 c 4
 67.2412109375 -254.916015625 50 -232.611328125 50 -164 c 4
 50 -91 88.8505859375 -75 139 -75 c 4
 174 -75 215 -76 253 -76 c 4
 281 -76 307 -75 334 -61 c 4
 358.1171875 -48.4951171875 365 -25.7060546875 365 32 c 4
 365 136 377.899414062 222.853515625 400 293 c 4
 446 439 523 508 523 589 c 4
EndSplineSet
EndChar

StartChar: bracketleft
Encoding: 91 91 98
Width: 930
Flags: HMW
LayerCount: 2
Fore
SplineSet
139 837 m 2
 139 966 133 1383 133 1422 c 0
 133 1461 157 1482 205 1491 c 0
 253 1500 388 1524 575 1524 c 0
 732 1524 807 1512 841 1496 c 0
 867 1484 880 1461 880 1387 c 0
 880 1294 847 1273 787 1273 c 0
 709 1273 609 1273 572 1260 c 0
 546 1251 538 1234 529 1177 c 0
 520 1120 501 999 501 725 c 2
 501 463 l 2
 501 189 520 68 529 11 c 0
 538 -46 546 -63 572 -72 c 0
 609 -85 709 -85 787 -85 c 0
 847 -85 880 -106 880 -199 c 0
 880 -273 867 -296 841 -308 c 0
 807 -324 732 -336 575 -336 c 0
 388 -336 253 -312 205 -303 c 0
 157 -294 133 -273 133 -234 c 0
 133 -195 139 222 139 351 c 2
 139 837 l 2
EndSplineSet
EndChar

StartChar: bracketright
Encoding: 93 93 99
Width: 930
Flags: HMW
LayerCount: 2
Fore
SplineSet
791 351 m 2
 791 222 797 -195 797 -234 c 0
 797 -273 773 -294 725 -303 c 0
 677 -312 542 -336 355 -336 c 0
 198 -336 123 -324 89 -308 c 0
 63 -296 50 -273 50 -199 c 0
 50 -106 83 -85 143 -85 c 0
 221 -85 321 -85 358 -72 c 0
 384 -63 392 -46 401 11 c 0
 410 68 429 189 429 463 c 2
 429 725 l 2
 429 999 410 1120 401 1177 c 0
 392 1234 384 1251 358 1260 c 0
 321 1273 221 1273 143 1273 c 0
 83 1273 50 1294 50 1387 c 0
 50 1461 63 1484 89 1496 c 0
 123 1512 198 1524 355 1524 c 0
 542 1524 677 1500 725 1491 c 0
 773 1482 797 1461 797 1422 c 0
 797 1383 791 966 791 837 c 2
 791 351 l 2
EndSplineSet
EndChar

StartChar: parenleft
Encoding: 40 40 100
Width: 830
Flags: HMW
LayerCount: 2
Fore
SplineSet
72 594 m 0
 72 714.99609375 86.1279296875 818.846679688 101.211914062 903 c 0
 179.528320312 1339.93066406 343.989257812 1534 603 1534 c 4
 663.689453125 1534 732.489257812 1522.16699219 765 1506.99121094 c 4
 797.231445312 1491.94628906 810 1469.31152344 810 1412 c 4
 810 1352.19335938 798 1319 747 1319 c 4
 713.58984375 1319 677.966796875 1333 637 1333 c 4
 558.301757812 1333 506.827148438 1301.125 458.150390625 882 c 4
 449.372070312 806.412109375 442 710.309570312 442 594 c 4
 442 477.690429688 449.372070312 381.587890625 458.150390625 306 c 4
 506.827148438 -113.125 558.301757812 -145 637 -145 c 4
 677.966796875 -145 713.58984375 -131 747 -131 c 4
 798 -131 810 -164.193359375 810 -224 c 4
 810 -281.311523438 797.231445312 -303.946289062 765 -318.991210938 c 4
 732.489257812 -334.166992188 663.689453125 -346 603 -346 c 4
 343.989257812 -346 179.528320312 -151.930664062 101.211914062 285 c 0
 86.1279296875 369.153320312 72 473.00390625 72 594 c 0
EndSplineSet
EndChar

StartChar: parenright
Encoding: 41 41 101
Width: 830
Flags: HMW
LayerCount: 2
Fore
SplineSet
758 594 m 4
 758 473.00390625 743.872070312 369.153320312 728.788085938 285 c 4
 650.471679688 -151.930664062 486.010742188 -346 227 -346 c 0
 166.310546875 -346 97.5107421875 -334.166992188 65 -318.991210938 c 0
 32.7685546875 -303.946289062 20 -281.311523438 20 -224 c 0
 20 -164.193359375 32 -131 83 -131 c 0
 116.41015625 -131 152.033203125 -145 193 -145 c 0
 271.698242188 -145 310.172851562 -113.125 368.849609375 306 c 0
 379.400390625 381.361328125 388 477.690429688 388 594 c 0
 388 710.309570312 379.400390625 806.638671875 368.849609375 882 c 0
 310.172851562 1301.125 271.698242188 1333 193 1333 c 0
 152.033203125 1333 116.41015625 1319 83 1319 c 0
 32 1319 20 1352.19335938 20 1412 c 0
 20 1469.31152344 32.7685546875 1491.94628906 65 1506.99121094 c 0
 97.5107421875 1522.16699219 166.310546875 1534 227 1534 c 0
 486.010742188 1534 650.471679688 1339.93066406 728.788085938 903 c 4
 743.872070312 818.846679688 758 714.99609375 758 594 c 4
EndSplineSet
EndChar

StartChar: backslash
Encoding: 92 92 102
Width: 884
Flags: HMW
LayerCount: 2
Fore
SplineSet
547 -112 m 0
 393 348 230 799 60 1244 c 0
 22 1345 4 1385 13 1419 c 0
 23 1456 170 1480 223 1480 c 0
 275 1480 302 1444 319 1396 c 0
 473 936 636 485 806 40 c 4
 844 -61 882 -101 873 -135 c 4
 863 -172 716 -196 663 -196 c 0
 611 -196 564 -160 547 -112 c 0
EndSplineSet
EndChar

StartChar: asterisk
Encoding: 42 42 103
Width: 1460
VWidth: 1920
Flags: HMW
LayerCount: 2
Back
SplineSet
644 875 m 0
 644 922 682 960 729 960 c 0
 776 960 814 922 814 875 c 0
 814 828 776 790 729 790 c 0
 682 790 644 828 644 875 c 0
50 873 m 0
 50 970.75 117.25 1068 225 1068 c 0
 383.793945312 1068 460.875976562 941.83984375 730 895.086914062 c 1
 999.124023438 951.83984375 1076.20605469 1068 1235 1068 c 0
 1342.75 1068 1410 980.75 1410 873 c 0
 1410 765.25 1342.75 678 1235 678 c 4
 1076.20605469 678 999.124023438 804.16015625 730 850.913085938 c 1
 460.875976562 804.16015625 383.793945312 678 225 678 c 4
 117.25 678 50 765.25 50 873 c 0
EndSplineSet
Fore
SplineSet
50 873 m 0
 50 970.75 117.25 1068 225 1068 c 0
 367.289236767 1068 443.969747444 966.702567064 652 912.007826043 c 0
 667.313824231 907.981557556 667.313824231 907.981557556 656.00002151 918.880021309 c 0
 499.365960419 1069.76391768 379.914242643 1089.36699493 308.625 1212.84277344 c 0
 254.75 1306.15722656 296.685546875 1408.02246094 390 1461.89746094 c 0
 483.314453125 1515.77246094 592.5 1501.15722656 646.375 1407.84277344 c 0
 717.525383437 1284.60598965 668.124698757 1167.54043303 724.796557916 960 c 0
 728.952345448 944.780913194 728.952345448 944.780913194 732.727193829 960 c 0
 785.089148835 1171.10811828 742.333734748 1284.36197407 813.625 1407.84277344 c 0
 867.5 1501.15722656 976.685546875 1515.77246094 1070 1461.89746094 c 0
 1163.31445312 1408.02246094 1205.25 1306.15722656 1151.375 1212.84277344 c 0
 1079.95100643 1089.1336019 953.174185042 1073.7363605 801.000010359 919.242731643 c 0
 791.755497757 909.857313244 791.755497757 909.857313244 805 913.64794321 c 0
 1015.29678319 973.835730828 1092.02884804 1068.00000019 1235 1068 c 0
 1342.75 1068 1410 980.75 1410 873 c 0
 1410 765.25 1342.75 678 1235 678 c 0
 1092.02884817 678 1015.29678331 780.27068671 805 834.775314319 c 0
 789.074192528 838.90295808 789.074192528 838.90295808 799.999989632 827.774878899 c 0
 952.618708636 672.330550832 1079.79460793 657.137285718 1151.375 533.157226562 c 0
 1205.25 439.842773438 1163.31445312 337.977539062 1070 284.102539062 c 0
 985.345703125 235.227539062 867.5 244.842773438 813.625 338.157226562 c 0
 742.018790387 462.183528963 792.513221778 579.959278759 734.101114424 790 c 0
 729.999886773 804.747367502 729.999886773 804.747367502 725.898686377 790 c 0
 667.486892722 579.959010937 717.981127942 462.183387906 646.375 338.157226562 c 0
 592.5 244.842773438 483.314453125 230.227539062 390 284.102539062 c 0
 305.345703125 332.977539062 254.75 439.842773438 308.625 533.157226562 c 0
 380.048993506 656.866398002 506.825814746 672.263639472 658.999989641 826.757267608 c 0
 671.003334759 838.943568854 671.003334759 838.943568854 654 834.515513083 c 0
 444.45955448 779.946406959 367.744305166 678.000000192 225 678 c 0
 117.25 678 50 765.25 50 873 c 0
EndSplineSet
EndChar

StartChar: plus
Encoding: 43 43 104
Width: 1222
Flags: HMW
LayerCount: 2
Fore
SplineSet
767 456 m 2
 767 280 794 166 794 90 c 0
 794 63 791 50 770 50 c 2
 450 50 l 2
 429 50 426 63 426 90 c 0
 426 166 453 280 453 456 c 2
 453 533 l 2
 453 709 426 854 426 930 c 0
 426 957 429 970 450 970 c 2
 770 970 l 2
 791 970 794 957 794 930 c 0
 794 854 767 709 767 533 c 2
 767 456 l 2
102 338 m 0
 102 442 142 604 189 675 c 0
 200.325826452 692.109227194 223 698 244 698 c 0
 307 698 872 683 925 683 c 0
 1017 683 1036 699 1091 699 c 0
 1110 699 1123 682 1123 663 c 0
 1123 639 1080 440 1027 337 c 0
 1018.19898345 319.89613764 994 301 975 301 c 0
 947 301 898 320 835 320 c 2
 340 320 l 2
 230 320 178 290 143 290 c 0
 119 290 102 300 102 338 c 0
EndSplineSet
EndChar

StartChar: uni2768
Encoding: 10088 10088 105
Width: 2954
Flags: HMW
LayerCount: 2
Fore
SplineSet
433 -241 m 0
 277 -241 100 -162 100 45 c 0
 100 262 322 423 667 489 c 0
 715 498 768 508 825 519 c 1
 680 565 529 685 529 856 c 0
 529 1081 727 1215 971 1250 c 1
 905 1297 857 1357 857 1435 c 0
 857 1568 968 1643 1097 1643 c 0
 1196 1643 1264 1584 1264 1544 c 0
 1264 1504 1234 1478 1189 1478 c 0
 1153 1478 1139 1518 1089 1518 c 0
 1049 1518 1002 1479 1002 1415 c 0
 1002 1343 1073 1291 1140 1259 c 1
 1371 1251 1585 1152 1739 1031 c 1
 1768 1063 1795 1094 1819 1122 c 0
 1951 1278 2170 1437 2374 1437 c 0
 2508 1437 2640 1368 2714 1309 c 1
 2714 1511 l 2
 2714 1545.69871855 2770.90164932 1548 2786 1548 c 0
 2796.29111218 1548 2854 1546.46353978 2854 1512 c 2
 2854 43 l 2
 2854 12.3080414971 2803.99965783 2 2780 2 c 0
 2760 2 2714 12.2333984375 2714 38 c 2
 2714 447 l 1
 2671 340 2566 152 2326 152 c 0
 2065 152 1752 447 1533 686 c 1
 1432 589 1234 454 682 363 c 0
 403 317 235 178 235 34 c 0
 235 -50 307 -131 442 -131 c 0
 577 -131 640 -39 642 37 c 0
 643 74 665 119 705 119 c 0
 745 119 770 88 770 22 c 0
 770 -104 639 -241 433 -241 c 0
1827 953 m 1
 2037 764 2244 622 2450 622 c 0
 2588 622 2670 699 2714 760 c 1
 2714 1122 l 1
 2628 1264 2510 1290 2368 1290 c 0
 2215 1290 2062 1191 1939 1065 c 0
 1909 1035 1871 996 1827 953 c 1
1164 600 m 0
 1218 617 1267 635 1306 654 c 0
 1352 677 1407 716 1463 763 c 1
 1263 973 1098 1056 930 1056 c 0
 770 1056 642 988 642 830 c 0
 642 692 800 580 1000 580 c 0
 1079 580 1129 589 1164 600 c 0
EndSplineSet
EndChar

StartChar: uni2698
Encoding: 9880 9880 107
Width: 1981
Flags: HMW
LayerCount: 2
Fore
SplineSet
202 -146 m 0
 150 -146 100 -100 100 -14 c 0
 100 72 172 138 268 138 c 0
 334 138 374 126 454 91 c 0
 648 6 875 -85 1073 -85 c 0
 1170 -85 1306 -11 1306 81 c 0
 1306 177 1271 215 1244 215 c 0
 1214 215 1163 44 1044 44 c 0
 854 44 716 167 565 192 c 0
 463 209 279 248 279 417 c 0
 279 548 350 546 350 585 c 0
 350 624 113 618 113 858 c 0
 113 1018 148 1043 205 1130 c 0
 262 1217 295 1275 337 1365 c 0
 379 1455 483 1509 564 1509 c 0
 669 1509 691 1412 728 1412 c 0
 765 1412 761 1584 1006 1584 c 0
 1201 1584 1230 1489 1365 1464 c 0
 1505 1438 1600 1345 1600 1240 c 0
 1600 1165 1584 1157 1584 1124 c 0
 1584 1099 1657 1092 1726 1047 c 0
 1795 1002 1873 891 1873 790 c 0
 1873 689 1814 635 1747 558 c 0
 1689 491 1706 378 1646 291 c 0
 1602 227 1558 204 1518 204 c 0
 1481 204 1457 205 1428 205 c 0
 1410 205 1398 202 1398 194 c 0
 1398 173 1427 154 1427 95 c 0
 1427 5.0966796875 1392 -9.740234375 1392 -42 c 0
 1392 -54 1399 -63 1417 -63 c 0
 1423 -63 1431 -61 1441 -59 c 0
 1596 -20 1674 57 1750 142 c 0
 1774 170 1794 189 1822 189 c 0
 1850 189 1881 171 1881 123 c 0
 1881 95 1868 60 1830 26 c 0
 1695 -94 1520 -212 1162 -212 c 0
 854 -212 613 -102 363 -7 c 0
 331 5 312 10 288 10 c 0
 254 10 248 0 248 -20 c 0
 248 -40 268 -52 268 -84 c 0
 268 -116 254 -146 202 -146 c 0
846 978 m 0
 770 978 738 1089 707 1180 c 0
 676 1271 644 1342 551 1342 c 0
 438 1342 410 1203 351 1129 c 0
 292 1055 259 977 259 879 c 0
 259 781 331 731 441 731 c 0
 561 731 633 792 707 792 c 0
 761 792 804 766 804 716 c 0
 804 666 787 607 697 604 c 0
 587 600 447 573 447 443 c 0
 447 313 624 340 684 312 c 0
 788 263 914 170 984 170 c 0
 1044 170 1119 226 1119 319 c 0
 1119 432 1013 575 1013 631 c 0
 1013 667 1037 697 1086 697 c 0
 1165 697 1192 672 1208 611 c 0
 1218 572 1226 532 1259 477 c 0
 1294 418 1352 341 1434 341 c 0
 1546 341 1573 442 1584 493 c 0
 1595 545 1623 614 1671 688 c 0
 1700 733 1722 764 1722 803 c 0
 1722 842 1692 876 1658 908 c 0
 1624 940 1578 969 1537 969 c 0
 1496 969 1469 941 1419 908 c 0
 1376 880 1305 835 1252 835 c 0
 1211 835 1181 865 1181 904 c 0
 1181 963 1264 996 1343 1034 c 0
 1422 1072 1471 1098 1471 1193 c 0
 1471 1288 1331 1317 1233 1366 c 0
 1135 1415 1106 1452 1002 1452 c 0
 898 1452 858 1382 858 1319 c 0
 858 1256 878 1206 917 1165 c 0
 946 1134 964 1117 964 1066 c 0
 964 1015 912 978 846 978 c 0
EndSplineSet
EndChar

StartChar: uni2769
Encoding: 10089 10089 108
Width: 2954
Flags: HMW
LayerCount: 2
Fore
SplineSet
2521 -241 m 0
 2315 -241 2184 -104 2184 22 c 0
 2184 88 2209 119 2249 119 c 0
 2289 119 2311 74 2312 37 c 0
 2314 -39 2377 -131 2512 -131 c 0
 2647 -131 2719 -50 2719 34 c 0
 2719 178 2551 317 2272 363 c 0
 1720 454 1522 589 1421 686 c 1
 1202 447 889 152 628 152 c 0
 388 152 283 340 240 447 c 1
 240 38 l 2
 240 12.2333984375 194 2 174 2 c 0
 150 2 100 12.3076171875 100 43 c 2
 100 1512 l 2
 100 1546.46386719 157.708984375 1548 168 1548 c 0
 183.098632812 1548 240 1545.69824219 240 1511 c 2
 240 1309 l 1
 314 1368 446 1437 580 1437 c 0
 784 1437 1003 1278 1135 1122 c 0
 1159 1094 1186 1063 1215 1031 c 1
 1369 1152 1583 1251 1814 1259 c 1
 1881 1291 1952 1343 1952 1415 c 0
 1952 1479 1905 1518 1865 1518 c 0
 1815 1518 1801 1478 1765 1478 c 0
 1720 1478 1690 1504 1690 1544 c 0
 1690 1584 1758 1643 1857 1643 c 0
 1986 1643 2097 1568 2097 1435 c 0
 2097 1357 2049 1297 1983 1250 c 1
 2227 1215 2425 1081 2425 856 c 0
 2425 685 2274 565 2129 519 c 1
 2186 508 2239 498 2287 489 c 0
 2632 423 2854 262 2854 45 c 0
 2854 -162 2677 -241 2521 -241 c 0
1127 953 m 1
 1083 996 1045 1035 1015 1065 c 0
 892 1191 739 1290 586 1290 c 0
 444 1290 326 1264 240 1122 c 1
 240 760 l 1
 284 699 366 622 504 622 c 0
 710 622 917 764 1127 953 c 1
1790 600 m 0
 1825 589 1875 580 1954 580 c 0
 2154 580 2312 692 2312 830 c 0
 2312 988 2184 1056 2024 1056 c 0
 1856 1056 1691 973 1491 763 c 1
 1547 716 1602 677 1648 654 c 0
 1687 635 1736 617 1790 600 c 0
EndSplineSet
EndChar

StartChar: uni2767
Encoding: 10087 10087 109
Width: 2933
Flags: HMW
LayerCount: 2
Fore
SplineSet
353 505 m 0
 213 505 100 618 100 773 c 0
 100 958 244 1079 439 1079 c 0
 540 1079 625 1050 723 982 c 1
 719 1013 716 1049 716 1086 c 0
 716 1252 864 1414 1122 1414 c 0
 1450 1414 1565 1122 1791 872 c 0
 2000 641 2175 448 2381 448 c 0
 2587 448 2721 616 2721 794 c 0
 2721 972 2583 1070 2457 1070 c 0
 2341 1070 2285 1020 2257 950 c 0
 2248 928 2247 904 2207 904 c 0
 2177 904 2158 913 2158 949 c 0
 2158 1045 2293 1166 2459 1166 c 0
 2695 1166 2833 1006 2833 802 c 0
 2833 618 2688 357 2448 330 c 1
 2397.47460938 127.8984375 2231.04589844 -65 1891 -65 c 4
 1531 -65 1329 80 1192 227 c 2
 694 761 l 2
 573 890 466 947 366 947 c 0
 266 947 196 867 196 771 c 0
 196 665 253 581 351 581 c 0
 392 581 403 560 403 539 c 0
 403 518 383 505 353 505 c 0
884 848 m 1
 910 824 937 797 966 768 c 2
 1451 284 l 2
 1570 167 1724 66 1933 66 c 0
 2079.59730552 66 2280.09960938 97.298828125 2354 319 c 1
 2098 331 1857.46355404 486.984141678 1681 698 c 2
 1395 1040 l 2
 1275.0025961 1183.49339907 1157 1278 1017 1278 c 0
 897 1278 815 1158 815 1064 c 0
 815 1002 841 924 884 848 c 1
EndSplineSet
EndChar

StartChar: bullet
Encoding: 8226 8226 110
Width: 747
Flags: HMW
LayerCount: 2
Fore
SplineSet
70 607 m 0
 70 677 95 735 185 771 c 0
 281.3203125 809.528320312 266 930 410 930 c 0
 543.102539062 930 677 789.655273438 677 573 c 0
 677 365 585 320 524 320 c 0
 432 320 421.024414062 399.895507812 389 445 c 0
 318 545 282.818359375 487 161 487 c 0
 113 487 70 547 70 607 c 0
EndSplineSet
EndChar

StartChar: equal
Encoding: 61 61 111
Width: 1124
Flags: HMW
LayerCount: 2
Fore
SplineSet
551 168 m 2
 325 168 236 161 160 161 c 0
 123 161 100 174 100 205 c 2
 100 425 l 2
 100 456 123 469 160 469 c 0
 236 469 325 462 551 462 c 2
 572 462 l 2
 798 462 888 469 964 469 c 0
 1001 469 1024 456 1024 425 c 2
 1024 205 l 2
 1024 174 1001 161 964 161 c 0
 888 161 798 168 572 168 c 2
 551 168 l 2
551 558 m 6
 325 558 236 551 160 551 c 4
 123 551 100 564 100 595 c 6
 100 815 l 6
 100 846 123 859 160 859 c 4
 236 859 325 852 551 852 c 6
 572 852 l 6
 798 852 888 859 964 859 c 4
 1001 859 1024 846 1024 815 c 6
 1024 595 l 6
 1024 564 1001 551 964 551 c 4
 888 551 798 558 572 558 c 6
 551 558 l 6
EndSplineSet
EndChar

StartChar: A.swsh
Encoding: 1114112 -1 112
Width: 2296
VWidth: 1920
Flags: HMW
LayerCount: 2
Fore
SplineSet
679 248 m 0
 1341 248 1012 1427 1934 1427 c 0
 2017 1427 2095 1381 2095 1288 c 0
 2095 1143 2088 1072 2088 894 c 2
 2088 654 l 2
 2088 398 2090 329 2114 273 c 0
 2122.75683594 252.567382812 2142.01757812 239.995117188 2160 229.272460938 c 0
 2192.97460938 209.612304688 2236.11914062 192.3203125 2268 164.592773438 c 0
 2284.30664062 150.41015625 2296 131.909179688 2296 94 c 0
 2296 53.0107421875 2252.83203125 6.7646484375 2158 -17.451171875 c 0
 2098.24804688 -32.708984375 2011.95507812 -35 1922 -35 c 0
 1772.84570312 -35 1632.77441406 -38.98046875 1546 -14.0810546875 c 0
 1478.99609375 5.1455078125 1447 45.224609375 1447 95 c 0
 1447 123.697265625 1460.28613281 155.9765625 1481 170.517578125 c 0
 1503.45410156 186.280273438 1530.05273438 192.051757812 1558 201.28125 c 0
 1577.13378906 207.599609375 1595.59765625 222.303710938 1604 239 c 0
 1615.86816406 262.583007812 1616 278 1616 301 c 0
 1616 329.017578125 1599.79003906 350.59765625 1570 356 c 0
 1535.28808594 362.294921875 1477 366 1448 366 c 0
 1397 366 1365.00976562 362.901367188 1306 357 c 4
 1266 353 1270.5546875 350.676757812 1250 316 c 4
 1103 68 972 -56 632 -56 c 0
 350 -56 50 151 50 468 c 0
 50 815 335 939 565 939 c 0
 741 939 854 791 854 634 c 0
 854 527 791 458 675 458 c 0
 470 458 490 631 378 631 c 0
 334 631 302 609 302 508 c 0
 302 320 462 248 679 248 c 0
1636 754 m 2
 1636 871 l 2
 1636 917 1640.12792969 940.751953125 1638 964 c 0
 1636.30859375 982.473632812 1621.98339844 1000.99902344 1586 1000 c 0
 1505.95214844 997.77734375 1462 845 1400 727 c 0
 1383.37890625 695.365234375 1379.74609375 646.366210938 1405 639 c 0
 1429 632 1460 628 1485 628 c 0
 1518 628 1550 625 1568 625 c 0
 1626 625 1636 696 1636 754 c 2
EndSplineSet
EndChar

StartChar: B.swsh
Encoding: 1114113 -1 113
Width: 2177
VWidth: 1920
Flags: HMW
LayerCount: 2
Fore
SplineSet
1207 -18 m 0
 1121 -18 964 -30 869 -30 c 0
 776 -30 729 6 729 61 c 0
 729 124 749.081054688 144.377929688 798 173 c 0
 858.448242188 208.3671875 880 309 880 670 c 2
 880 880 l 2
 880 1005 876.4765625 1062.71386719 870 1134 c 0
 866.342773438 1174.2578125 837.060546875 1198 739 1198 c 0
 552 1198 361 1035 361 897 c 0
 361 816 394 790 438 790 c 0
 480 790 500 797 535 797 c 0
 621 797 734 718 734 561 c 0
 734 444 620 347 464 347 c 0
 274 347 50 508 50 805 c 0
 50 1191.84960938 466.776367188 1420 762 1420 c 0
 830 1420 960 1413 1062 1413 c 0
 1214 1413 1373 1440 1532 1440 c 0
 1829 1440 2033 1388 2033 1078 c 0
 2033 982 1994.1328125 903.120117188 1928 843 c 0
 1895 813 1885 798 1885 786 c 0
 1885 773 1910.50585938 757.9765625 1947 741 c 0
 2093.88476562 672.671875 2150 567 2150 428 c 0
 2150 159 1953 -27 1622 -27 c 0
 1503 -27 1321 -18 1207 -18 c 0
1400 819 m 0
 1526 819 1551 912 1551 1032 c 0
 1551 1172 1485 1216 1403 1216 c 0
 1352 1216 1355.17578125 1194.95019531 1353 1139 c 0
 1351.28515625 1094.91796875 1352 1062 1352 1024 c 0
 1352 981 1352.5859375 884.041992188 1354 860 c 0
 1356 826 1371 819 1400 819 c 0
1449 198 m 0
 1553 198 1603 277 1603 387 c 0
 1603 507 1560.078125 590.563476562 1470 598 c 0
 1452.49609375 599.4453125 1440 600 1423 600 c 0
 1380 600 1363 590 1363 549 c 0
 1363 504 1363 452 1363 405 c 0
 1363 351 1363.3984375 287.803710938 1370 258 c 0
 1378.20605469 220.950195312 1391 198 1449 198 c 0
EndSplineSet
EndChar

StartChar: D.swsh
Encoding: 1114114 -1 114
Width: 2405
VWidth: 1920
Flags: HMW
LayerCount: 2
Fore
SplineSet
1407 -28 m 4
 1259 -28 1204 -23 1103 -23 c 4
 1037 -23 993 -34 898 -34 c 4
 805 -34 741 25 741 92 c 4
 741 122.348632812 749.486328125 146.798828125 768.4375 164 c 4
 792.13671875 185.51171875 839.086914062 185.715820312 862 204.38671875 c 4
 884.55078125 222.762695312 889.885742188 248.469726562 893 272 c 4
 901.100585938 333.208007812 914 464 914 660 c 6
 914 900 l 6
 914 1067.48046875 911.717773438 1156.8046875 875.169921875 1194 c 4
 849.333984375 1220.29394531 837.060546875 1227 739 1227 c 4
 552 1227 361 1064 361 926 c 4
 361 845 394 819 438 819 c 4
 480 819 500 826 535 826 c 4
 621 826 734 747 734 590 c 4
 734 473 620 376 464 376 c 4
 274 376 50 537 50 834 c 4
 50 1220.84960938 466.776367188 1449 762 1449 c 4
 830 1449 1116 1447 1218 1447 c 4
 1345 1447 1448 1459 1651 1459 c 4
 2098 1459 2355 1147 2355 737 c 4
 2355 471.225585938 2251.01855469 183.875 1967 45.8505859375 c 4
 1823.72753906 -23.775390625 1617.41699219 -28 1407 -28 c 4
1537 219 m 4
 1603.32421875 219 1654.75195312 244.5859375 1694.17773438 284 c 4
 1783.15039062 372.947265625 1811 532.322265625 1811 627 c 4
 1811 1017 1717 1199 1497 1199 c 4
 1454 1199 1437 1197 1425 1188 c 4
 1408 1175 1409.765625 1135.11328125 1409 1098 c 4
 1407 1001 1407 889 1407 778 c 4
 1407 576 1411.375 530.880859375 1419 325 c 4
 1421 271 1425.12207031 257.1484375 1439 239 c 4
 1452 222 1493 219 1537 219 c 4
EndSplineSet
EndChar

StartChar: E.swsh
Encoding: 1114115 -1 115
Width: 2126
VWidth: 1920
Flags: HMW
LayerCount: 2
Fore
SplineSet
1084 -23 m 0
 998 -23 916 -28 831 -28 c 0
 770 -28 751 20 751 64 c 0
 751 113 765 139 810 149 c 0
 841.9765625 156.10546875 860.03125 172.061523438 873 200 c 0
 885.239257812 226.3671875 905 285 910 378 c 0
 918.815429688 541.958007812 922 602 922 800 c 0
 922 992 906.142578125 1052.38085938 900 1120 c 4
 896.342773438 1160.2578125 837.060546875 1198 739 1198 c 0
 552 1198 361 1035 361 897 c 0
 361 846 394 820 438 820 c 0
 480 820 500 827 535 827 c 0
 621 827 734 748 734 591 c 0
 734 474 620 377 464 377 c 0
 274 377 50 508 50 805 c 0
 50 1190.22753906 464.401367188 1420 762 1420 c 0
 830 1420 1107 1430 1169 1430 c 0
 1291 1430 1565 1430 1684 1430 c 0
 1827 1430 1806 1456 1883 1456 c 0
 1976 1456 2040 1308 2040 1118 c 0
 2040 1044 1992 1000 1924 1000 c 0
 1874 1000 1863.43554688 1017.33007812 1824 1087 c 0
 1794 1140 1757.44628906 1167.70800781 1684 1186 c 0
 1633.43066406 1198.59472656 1591 1200 1529 1200 c 0
 1404 1200 1377.89550781 1170.67382812 1369 1143 c 0
 1360 1115 1359 1021 1359 898 c 0
 1359 851 1359.24414062 832.657226562 1387 825 c 0
 1416 817 1443 817 1478 817 c 0
 1522 817 1548.22363281 847.982421875 1551 885 c 0
 1554 925 1557 946 1562 971 c 0
 1568.578125 1003.88964844 1588 1039 1646 1039 c 0
 1733 1039 1772 940 1772 716 c 0
 1772 470 1712 392 1628 392 c 0
 1579 392 1561 429 1561 497 c 0
 1561 543 1548 601 1459 601 c 0
 1404 601 1388.04003906 593.782226562 1379 570 c 0
 1368.62011719 542.69140625 1371 481 1371 446 c 0
 1371 385 1375 340 1393 244 c 0
 1397.07128906 222.288085938 1401.88867188 214.497070312 1428 209 c 0
 1466 201 1513 200 1569 200 c 0
 1654 200 1690.8671875 206.427734375 1734 216 c 0
 1773.28808594 224.71875 1832.24316406 271.819335938 1868 323 c 0
 1919 396 1915 474 2006 474 c 0
 2094 474 2111 407 2111 329 c 0
 2111 196 2002 -46 1936 -46 c 0
 1892 -46 1792 -21 1654 -21 c 0
 1537 -21 1426 -23 1341 -23 c 0
 1254 -23 1168 -23 1084 -23 c 0
EndSplineSet
EndChar

StartChar: F.swsh
Encoding: 1114116 -1 116
Width: 2139
VWidth: 1920
Flags: HMW
LayerCount: 2
Fore
SplineSet
1040 590 m 6
 1040 720 l 6
 1040 878.708007812 1019.88183594 974.770507812 974 995 c 4
 908.325195312 1023.95605469 622.422851562 1098 488 1098 c 4
 381 1098 308 1044 308 946 c 4
 308 875 349.395507812 839.874023438 401 828 c 4
 451.884765625 816.291015625 512.181640625 823.698242188 577 811 c 4
 651.740609106 796.35793925 716 724 716 597 c 4
 716 480 629 403 503 403 c 4
 323 403 50 569 50 856 c 4
 50 1213 369 1440 764 1440 c 4
 972.305664062 1440 1418.04882812 1379 1742 1379 c 4
 1795.00488281 1379 1826.43847656 1380.20019531 1854 1394.79003906 c 4
 1871.86523438 1404.24707031 1913.40039062 1445 1966 1445 c 4
 2057 1445 2112 1375 2112 1285 c 4
 2112 1139 1911.92773438 952 1607 952 c 4
 1542 952 1525 943 1509 915 c 4
 1504.5625 907.234375 1504 886 1504 878 c 4
 1504 848 1502 838 1502 808 c 4
 1502 761 1512 752 1550 744 c 4
 1575 738 1591 735 1612 735 c 4
 1723 735 1758 774 1868 774 c 4
 1934.40136719 774 1974.22753906 734.65234375 1974.22753906 684 c 4
 1974.22753906 583 1953 557.208007812 1953 481 c 4
 1953 339 1982 323 1982 261 c 4
 1982 192 1938 160 1882 160 c 4
 1732 160 1701 307 1669 439 c 4
 1663.09082031 463.374023438 1650 473 1601 473 c 4
 1589 473 1581 473 1570 473 c 4
 1520 473 1513 448 1513 424 c 4
 1513 404 1510.11914062 372.758789062 1508 349 c 6
 1494 192 l 6
 1477.63769531 8.51171875 1407.21289062 -89.5302734375 1363 -155 c 4
 1259 -309 1047 -399 820 -399 c 4
 523 -399 292 -236 292 -46 c 4
 292 97 383 183 514 183 c 4
 652 183 747 64.16015625 747 -44 c 4
 747 -104 771 -166 866 -166 c 4
 974 -166 1037 -43 1037 125 c 4
 1037 200 1040 274 1040 590 c 6
EndSplineSet
EndChar

StartChar: G.swsh
Encoding: 1114117 -1 117
Width: 1588
VWidth: 1920
Flags: HMW
LayerCount: 2
Fore
SplineSet
818 -39 m 4
 361 -39 50 233 50 693 c 4
 50 1070 313 1439 798 1439 c 4
 1018 1439 1071 1384 1121 1384 c 4
 1167 1384 1174 1407 1242 1407 c 4
 1322 1407 1452 1269 1452 1093 c 4
 1452 931 1367 881 1272 881 c 4
 1177 881 1129.55664062 943.65234375 1100 989 c 4
 1027 1101 934 1162 817 1162 c 4
 682 1162 572 1036 572 818 c 4
 572 458 763 255 930 255 c 4
 997 255 1033 308 1033 359 c 4
 1033 411.00390625 1017.18945312 431.599609375 991 441.9609375 c 4
 961.1171875 453.783203125 901.782226562 441.362304688 866 460.401367188 c 4
 841.29296875 473.547851562 821 500.740234375 821 549 c 4
 821 605.319335938 841.017578125 632.815429688 880 657.424804688 c 4
 960.56640625 708.28515625 1112.32226562 727 1267 727 c 4
 1395.41308594 727 1487.03515625 709.819335938 1545 677.913085938 c 4
 1597.09179688 649.240234375 1622 608.674804688 1622 558 c 4
 1622 511.216796875 1596.83007812 480.305664062 1577 468.279296875 c 4
 1553.77319276 454.192981282 1516.66308594 459.923828125 1503 438.759765625 c 4
 1490.33496094 419.141601562 1503 339.05078125 1503 274 c 6
 1503 184 l 6
 1503 -223.917073171 1293 -389 1006 -389 c 4
 872 -389 791 -352 791 -287 c 4
 791 -240 817.098326959 -201.500612088 854 -188 c 4
 895 -173 927.055948708 -172.646773793 957 -162 c 4
 997.820952719 -147.485883478 1028.01586935 -138.307687673 1033.95366905 -21.410326017 c 5
 972.724981949 -32.6897712394 901.465826989 -39 818 -39 c 4
EndSplineSet
EndChar

StartChar: M.swsh
Encoding: 1114118 -1 118
Width: 3182
VWidth: 1920
Flags: HMW
LayerCount: 2
Fore
SplineSet
1328 1119.66015625 m 4
 1282.45800781 1143.0859375 1208.65820312 1124.83203125 1165 1146.43066406 c 4
 1138.84765625 1159.36914062 1101 1193.91894531 1101 1252 c 4
 1101 1326 1148.78808594 1365.79492188 1183 1382 c 4
 1297 1436 1501 1437 1592 1437 c 4
 1613 1437 1688 1435 1711 1430 c 4
 1748 1422 1763.81835938 1400.65039062 1784 1358 c 6
 2031 836 l 6
 2049.27246094 797.384765625 2064 773 2092 773 c 4
 2117 773 2137.94042969 806.741210938 2175 876 c 6
 2419 1332 l 6
 2439.42089844 1370.1640625 2473.2265625 1386.61230469 2506 1406 c 4
 2577 1448 2709 1446 2751 1446 c 4
 2802.86425781 1446 2877.67578125 1437.33398438 2927 1419.12402344 c 4
 3018.42675781 1385.37109375 3071 1323.70019531 3071 1258 c 4
 3071 1226.45703125 3055.75390625 1200.70214844 3025 1185.86621094 c 4
 2993.92773438 1170.87597656 2947.234375 1166.76171875 2925.27636719 1126 c 4
 2888.15722656 1057.09277344 2907.05761719 901.134765625 2919 780 c 6
 2947 496 l 6
 2960.66015625 357.450195312 2963.84472656 297.159179688 3002.26367188 258 c 4
 3032.91894531 226.75390625 3086.94921875 221.056640625 3115 200.815429688 c 4
 3144.95214844 179.202148438 3167 163.392578125 3167 107 c 4
 3167 59.0234375 3147.46777344 11.703125 3099 -13.533203125 c 4
 3029.75 -49.58984375 2922.21972656 -56 2819 -56 c 4
 2710.60546875 -56 2554.52636719 -56.01171875 2449 -15.798828125 c 4
 2369.48925781 14.5009765625 2323 53.6884765625 2323 129 c 4
 2323 151.848632812 2338.21679688 176.163085938 2362 190.7421875 c 4
 2381.40917969 202.639648438 2425.52441406 203.711914062 2445.47265625 228 c 4
 2474.8984375 263.829101562 2479.43066406 331.889648438 2473 438 c 6
 2465 570 l 6
 2461.45898438 628.424804688 2432 672 2403 672 c 4
 2379 672 2353.66796875 647.987304688 2325 604 c 6
 2063 202 l 6
 2021.5625 138.420898438 1964 86 1922 86 c 4
 1878 86 1839.25488281 129.390625 1806 198 c 6
 1616 590 l 6
 1563.69140625 697.921875 1512.09082031 654.16796875 1490 608 c 4
 1312 236 1097.39550781 -66 681 -66 c 4
 299 -66 50 181 50 498 c 4
 50 795 339 963 569 963 c 4
 745 963 875 819 875 702 c 4
 875 595 770 492 664 492 c 4
 549 492 438 593 376 593 c 4
 312 593 248 567 248 486 c 4
 248 378 413 243 620 243 c 4
 937.19921875 243 1223 570 1373 1010 c 4
 1379.59082031 1029.33398438 1374.99121094 1054.875 1366 1072 c 4
 1357.4921875 1088.20605469 1346.5 1110.14453125 1328 1119.66015625 c 4
EndSplineSet
EndChar

StartChar: N.swsh
Encoding: 1114119 -1 119
Width: 2782
VWidth: 1920
Flags: HMW
LayerCount: 2
Fore
SplineSet
1137 1097 m 0
 1112 1097 1082 1091 1053 1091 c 0
 973 1091 911 1149 911 1209 c 0
 911 1303 990.474609375 1336.4140625 1072 1366 c 0
 1196 1411 1367 1432 1428 1432 c 0
 1494 1432 1595.26171875 1357.74414062 1640 1310 c 2
 2161 754 l 2
 2185.25195312 728.118164062 2216 693 2237 693 c 0
 2261 693 2295 710 2295 856 c 2
 2295 976 l 2
 2295 1114.35644531 2260.98730469 1161.17285156 2219.17773438 1182 c 0
 2183.49609375 1199.77441406 2142.13671875 1196.43554688 2111.39550781 1209 c 0
 2084.69238281 1219.9140625 2066 1245.82714844 2066 1295 c 0
 2066 1413 2226 1435 2422 1435 c 0
 2645 1435 2755 1375 2755 1286 c 0
 2755 1260.90136719 2744.66894531 1224.14453125 2706.82226562 1205 c 0
 2669.7578125 1186.25097656 2634 1191 2608.88574219 1165 c 0
 2578.67480469 1133.72363281 2570 936.860351562 2570 829 c 2
 2570 539 l 2
 2570 135 2555 -35 2363 -35 c 0
 2277 -35 2163.34082031 30.30859375 2075 125 c 2
 1616 617 l 2
 1564.45898438 672.24609375 1515.25488281 689.900390625 1493 644 c 0
 1253 149 1030.97167969 -55 668 -55 c 0
 316 -55 50 159 50 476 c 0
 50 773 340 947 590 947 c 0
 766 947 869 802 869 665 c 0
 869 578 776 482 650 482 c 0
 565 482 445 593 383 593 c 0
 339 593 275 581 275 500 c 0
 275 352 442 272 629 272 c 0
 881.927734375 272 1019 383 1289 815 c 0
 1316.00292969 858.204101562 1335.70507812 931.133789062 1292 983 c 2
 1243.96875 1040 l 2
 1202.80957031 1088.84472656 1186.39746094 1097 1137 1097 c 0
EndSplineSet
EndChar

StartChar: P.swsh
Encoding: 1114120 -1 120
Width: 2100
VWidth: 1920
Flags: HMW
LayerCount: 2
Fore
SplineSet
1373 476 m 2
 1373 393 l 2
 1373 283.475585938 1392.06445312 242.139648438 1417.22949219 218 c 0
 1441.33203125 194.879882812 1476.56054688 191.66015625 1499.34472656 176 c 0
 1517.10644531 163.791992188 1528 147.720703125 1528 113 c 0
 1528 67.9912109375 1508.52050781 25.96484375 1453 -1.49609375 c 0
 1392.14941406 -31.59375 1288.20703125 -45 1124 -45 c 0
 1022.45410156 -45 913.404296875 -43.869140625 836 -17.9111328125 c 0
 773.02734375 3.20703125 731 43.462890625 731 91 c 0
 731 124.712890625 742.126953125 152.696289062 765.627929688 168 c 0
 787.859375 182.4765625 828.825195312 187.124023438 855.934570312 219 c 0
 884 252 896 375.245117188 896 591 c 2
 896 898 l 2
 896 1045.25390625 893.559570312 1129.17675781 868.52734375 1164.15820312 c 0
 850.985351562 1188.67089844 805.8359375 1198 739 1198 c 0
 552 1198 361 1035 361 897 c 0
 361 816 394 790 438 790 c 0
 480 790 500 797 535 797 c 0
 621 797 734 718 734 561 c 0
 734 444 620 347 464 347 c 0
 274 347 50 508 50 805 c 0
 50 1191.84960938 466.776367188 1420 762 1420 c 0
 830 1420 976 1411 1078 1411 c 0
 1240 1411 1417 1446 1586 1446 c 0
 1863 1446 2073 1306 2073 1036 c 0
 2073 712 1881 507 1587 507 c 0
 1446 507 1416 508 1399 508 c 0
 1389 508 1373 501 1373 476 c 2
1404 744 m 0
 1530 744 1591 833 1591 973 c 0
 1591 1103 1508 1199 1426 1199 c 0
 1408.16992188 1199 1389.96386719 1195.12011719 1381.21679688 1184 c 0
 1366.57128906 1165.38183594 1363 1100.98535156 1363 1044 c 2
 1363 968 l 2
 1363 916 1363.328125 818.9375 1366 794 c 0
 1369 766 1366 744 1404 744 c 0
EndSplineSet
EndChar

StartChar: R.swsh
Encoding: 1114121 -1 121
Width: 2345
VWidth: 1920
Flags: HMW
LayerCount: 2
Fore
SplineSet
1451 800 m 0
 1557 800 1585 882 1585 1012 c 0
 1585 1122 1543 1197 1451 1197 c 0
 1426 1197 1400 1197 1391 1171 c 0
 1383.13574219 1148.28125 1376 1088 1376 1013 c 2
 1376 938 l 2
 1376 886 1377 853 1379 828 c 0
 1382 800 1403 800 1451 800 c 0
1387 526 m 2
 1387 414 l 2
 1387 329.081054688 1393.65625 250.068359375 1413.8046875 217 c 0
 1437.53808594 178.047851562 1469.62011719 173.676757812 1496.44921875 152 c 0
 1514.14160156 137.705078125 1528 125.377929688 1528 83 c 0
 1528 42.373046875 1496.98535156 3.2646484375 1427 -14.76171875 c 0
 1369.12304688 -29.669921875 1281.17480469 -37 1153 -37 c 0
 1000.17480469 -37 902.244140625 -34.5888671875 843 -14.1328125 c 0
 786.251953125 5.4609375 765 42.107421875 765 87 c 0
 765 132.892578125 775.748046875 150.274414062 794.706054688 164 c 0
 814.874023438 178.6015625 852.689453125 174.653320312 874.388671875 225 c 0
 898.877929688 281.819335938 912 411.59765625 912 611 c 2
 912 890 l 2
 912 1037.07910156 906.21875 1130.88476562 866.298828125 1164.17382812 c 4
 835.444335938 1189.90234375 787.38671875 1198 739 1198 c 0
 552 1198 361 1035 361 897 c 0
 361 816 394 790 438 790 c 0
 480 790 500 797 535 797 c 0
 621 797 734 718 734 561 c 0
 734 444 620 347 464 347 c 0
 274 347 50 508 50 805 c 0
 50 1191.84960938 466.776367188 1420 762 1420 c 0
 860 1420 1196 1417 1298 1417 c 0
 1450 1417 1503 1426 1652 1426 c 0
 1909 1426 2098 1276 2098 1066 c 0
 2098 909 2039 801 1928 754 c 0
 1909.83789062 746.309570312 1888 732 1888 714 c 0
 1888 697 1910.17675781 681.688476562 1927 677 c 0
 1988 660 2072.66308594 624.7421875 2118 525 c 0
 2193 360 2163.35839844 230.635742188 2226 192 c 0
 2258.75488281 171.797851562 2281 171 2297 163 c 0
 2321.14941406 150.924804688 2330 136 2330 105 c 0
 2330 9 2208 -61 2018 -61 c 0
 1878 -61 1769.49414062 -24.560546875 1719 42 c 0
 1631 158 1626.95800781 358.974609375 1557 497 c 0
 1520 570 1481 571 1449 571 c 0
 1428 571 1413.59277344 569.979492188 1403 565 c 0
 1393.60253906 560.583007812 1387 551 1387 526 c 2
EndSplineSet
EndChar

StartChar: T.swsh
Encoding: 1114122 -1 122
Width: 1887
VWidth: 1920
Flags: HMW
LayerCount: 2
Fore
SplineSet
764 1000 m 0
 677.314453125 1024.10742188 574.422851562 1058 440 1058 c 0
 363 1058 316 1040 316 1012 c 0
 316 982.0078125 334.001953125 951.576171875 367.901367188 927 c 0
 406.567382812 898.967773438 465.333007812 874.197265625 512.59375 836 c 0
 570.732421875 789.010742188 600 724.181640625 600 650 c 0
 600 563 528 474 412 474 c 0
 232 474 50 599 50 886 c 0
 50 1363 467 1430 772 1430 c 0
 1080.30566406 1430 1370.04882812 1320 1514 1320 c 0
 1598.49609375 1320 1626.40332031 1400 1695 1400 c 0
 1776 1400 1837 1298 1837 1198 c 0
 1837 1042 1740.92773438 836 1566 836 c 0
 1485.04882812 836 1451.703125 849 1415 849 c 0
 1365 849 1342 794.630859375 1342 741 c 2
 1342 614 l 2
 1342 458 1350.19824219 403.122070312 1355 350 c 0
 1360.05175781 294.114257812 1374.890625 271.8125 1397 256.325195312 c 0
 1424.39453125 237.135742188 1463.08398438 232.6796875 1488.11523438 216 c 0
 1509.10058594 202.015625 1524 182.626953125 1524 127 c 0
 1524 68.486328125 1484 29 1421 3.994140625 c 0
 1359.14160156 -20.55859375 1258.90722656 -35 1100 -35 c 0
 914.1875 -35 824.069335938 -23.1787109375 758 16.6904296875 c 0
 695.952148438 54.1318359375 688 95.0029296875 688 124 c 0
 688 155.838867188 700.760742188 176.875 718.217773438 195 c 0
 744.958007812 222.763671875 793.670898438 223.211914062 822.950195312 250 c 0
 840.372070312 265.939453125 845.936523438 294.63671875 852 321 c 0
 866.069335938 382.171875 874 457 874 631 c 2
 874 868 l 2
 874 949.872070312 818.662109375 984.797851562 764 1000 c 0
EndSplineSet
EndChar

StartChar: Y.swsh
Encoding: 1114123 -1 123
Width: 2016
VWidth: 1920
Flags: HMW
LayerCount: 2
Fore
SplineSet
1554.02148438 548.462890625 m 0
 1554.02148438 428.055664062 1554.94433594 368.111328125 1577 316 c 0
 1586.15722656 294.364257812 1603.81933594 272.276367188 1631 263.598632812 c 0
 1661.5625 253.840820312 1697.625 258.399414062 1731 244.077148438 c 0
 1773.10742188 226.0078125 1801 169.91796875 1801 130 c 0
 1801 74.0888671875 1764.7421875 29.29296875 1695 2.810546875 c 0
 1616.3046875 -27.0712890625 1494.97558594 -35 1335 -35 c 0
 1096.56835938 -35 990.936523438 -10.9990234375 935 28.2119140625 c 0
 887.2421875 61.689453125 872 96.5244140625 872 144 c 0
 872 183.95703125 895.51953125 211.030273438 923 226.548828125 c 4
 946.498046875 239.818359375 983.920898438 239.42578125 1008 247.396484375 c 0
 1025.96484375 253.342773438 1038.52734375 272.115234375 1046 294 c 0
 1060 335 1062 364 1062 449 c 0
 1062 938 819 1092 629 1092 c 0
 442 1092 260 976 260 798 c 0
 260 717 331 657 395 657 c 0
 467 657 482 790 617 790 c 0
 733 790 825 684 825 547 c 0
 825 400 677 303 531 303 c 0
 311 303 50 498 50 825 c 0
 50 1152 385 1451 800 1451 c 0
 1081.69824219 1451 1224 1359 1342 1153 c 0
 1385.53027344 1077.00585938 1427.57226562 1063.11132812 1462 1154 c 0
 1548.66308594 1382.79003906 1654.640625 1468 1791 1468 c 0
 1928 1468 2016 1346 2016 1206 c 0
 2016 1143 1972 1018 1881 1018 c 0
 1788 1018 1807 1076 1759 1076 c 0
 1697.76464844 1076 1554.02148438 930 1554.02148438 548.462890625 c 0
EndSplineSet
EndChar

StartChar: less
Encoding: 60 60 124
Width: 1084
Flags: HMW
LayerCount: 2
Fore
SplineSet
555 182 m 6
 531 190 l 6
 345 254 175 307 109 326 c 4
 85 332 80 339 80 359 c 6
 80 728 l 6
 80 748 85 755 109 761 c 4
 175.629882812 777.657226562 345 833 531 897 c 6
 555 905 l 6
 749 971 829 1011 895 1030 c 4
 907 1033 923.197265625 1038.37109375 936 1030 c 4
 962 1013 1010 796.256835938 1010 765 c 4
 1010 744 989 737 971 732 c 4
 905 713 801.968819599 684.08908686 716 654 c 6
 696 647 l 6
 559.300955248 599.155334337 481 560 419 544 c 5
 481 527 559.296213808 487.846325167 696 440 c 6
 716 433 l 6
 801.968819599 402.91091314 905 374 971 355 c 4
 989 350 1010 343 1010 322 c 4
 1010 290.743164062 962 74 936 57 c 4
 923.197265625 48.62890625 907 54 895 57 c 4
 829 76 749 116 555 182 c 6
EndSplineSet
EndChar

StartChar: greater
Encoding: 62 62 125
Width: 1084
Flags: HMW
LayerCount: 2
Fore
SplineSet
529 182 m 6
 335 116 255 76 189 57 c 0
 177 54 160.802734375 48.62890625 148 57 c 0
 122 74 74 290.743164062 74 322 c 0
 74 343 95 350 113 355 c 0
 179 374 282.03125 402.911132812 368 433 c 2
 388 440 l 2
 524.69921875 487.844726562 603 527 665 543 c 1
 603 560 524.704101562 599.153320312 388 647 c 2
 368 654 l 2
 282.03125 684.088867188 179 713 113 732 c 0
 95 737 74 744 74 765 c 0
 74 796.256835938 122 1013 148 1030 c 0
 160.802734375 1038.37109375 177 1033 189 1030 c 0
 255 1011 335 971 529 905 c 2
 553 897 l 2
 739 833 909 780 975 761 c 0
 999 755 1004 748 1004 728 c 2
 1004 359 l 2
 1004 339 999 332 975 326 c 0
 908.370117188 309.342773438 739 254 553 190 c 2
 529 182 l 6
EndSplineSet
EndChar

StartChar: asciicircum
Encoding: 94 94 126
Width: 1226
Flags: HMW
LayerCount: 2
Fore
SplineSet
1019 976 m 2
 1092.26171875 812.569335938 1146 732 1177 663 c 0
 1182 651 1186 632 1186 625 c 0
 1186 583 948 499 907 499 c 0
 876 499 869 510 861 529 c 0
 830 598 796.380499001 691.99686627 741 838 c 2
 730 867 l 2
 674.035637425 1014.54241042 642 1089 613 1154 c 1
 584 1089 547.212016804 1015.51484873 496 867 c 2
 486 838 l 2
 436.769014429 695.230141845 416 598 385 529 c 0
 377 510 370 499 339 499 c 0
 298 499 40 583 40 625 c 0
 40 632 44 651 49 663 c 0
 80 732 133.435546875 811.895507812 207 976 c 2
 220 1005 l 2
 312.409179688 1211.14355469 351 1294 382 1363 c 0
 393 1388 400 1410 450 1410 c 2
 776 1410 l 2
 826 1410 833 1388 844 1363 c 0
 875 1294 913.7578125 1210.77050781 1006 1005 c 2
 1019 976 l 2
EndSplineSet
EndChar

StartChar: gravecomb
Encoding: 768 768 127
Width: 0
VWidth: 1920
Flags: HMW
AnchorPoint: "top" -194 920 mark 0
LayerCount: 2
Fore
SplineSet
-319 1118 m 4
 -384.697265625 1159.92675781 -432 1199 -455 1227 c 4
 -474.3046875 1250.50195312 -485 1283 -485 1309 c 4
 -485 1373 -422 1424 -327 1424 c 4
 -240 1424 -194.203125 1397.83789062 -165 1356 c 4
 -138.541015625 1318.09277344 -139 1262 -95 1222 c 4
 -55.3388671875 1185.94433594 -28 1157 -28 1115 c 4
 -28 1076 -67 1045 -110 1045 c 4
 -158 1045 -233.416015625 1063.3828125 -319 1118 c 4
EndSplineSet
EndChar

StartChar: acutecomb
Encoding: 769 769 129
Width: 0
VWidth: 1920
Flags: HMW
AnchorPoint: "top" -319 920 mark 0
LayerCount: 2
Fore
SplineSet
-194 1118 m 4
 -279.583984375 1063.3828125 -355 1045 -403 1045 c 4
 -446 1045 -485 1076 -485 1115 c 4
 -485 1157 -457.661132812 1185.94433594 -418 1222 c 4
 -374 1262 -374.458984375 1318.09277344 -348 1356 c 4
 -318.796875 1397.83789062 -273 1424 -186 1424 c 4
 -91 1424 -28 1373 -28 1309 c 4
 -28 1283 -38.6953125 1250.50195312 -58 1227 c 4
 -81 1199 -128.302734375 1159.92675781 -194 1118 c 4
EndSplineSet
EndChar

StartChar: uni0302
Encoding: 770 770 130
Width: 0
VWidth: 1920
Flags: HMW
AnchorPoint: "top" -386 1024.73 mark 0
LayerCount: 2
Fore
SplineSet
-508 1178 m 4
 -595 1127 -613 1122 -647 1122 c 4
 -695 1122 -731 1145 -731 1181 c 4
 -731 1222 -708 1249 -684 1275 c 6
 -592 1354 l 6
 -500 1432 -455 1469 -387 1469 c 4
 -325 1469 -276 1434 -202 1373 c 6
 -106 1293 l 6
 -73 1258 -43 1226 -43 1181 c 4
 -43 1145 -79 1122 -127 1122 c 4
 -161 1122 -179 1127 -266 1178 c 4
 -319 1209 -350 1232 -387 1237 c 5
 -424 1232 -455 1209 -508 1178 c 4
EndSplineSet
EndChar

StartChar: tildecomb
Encoding: 771 771 131
Width: 0
VWidth: 1920
Flags: HMW
AnchorPoint: "top" -389 1024.73 mark 0
LayerCount: 2
Fore
SplineSet
-232 1387 m 4
 -202 1387 -198.844726562 1409.14550781 -192 1442 c 4
 -182 1490 -157 1522 -106 1522 c 4
 -58 1522 -18 1487 -18 1434 c 4
 -18 1303.28808594 -114.814453125 1144 -262 1144 c 4
 -462 1144 -486 1279 -546 1279 c 4
 -576 1279 -579.155273438 1256.85449219 -586 1224 c 4
 -596 1176 -620 1144 -672 1144 c 4
 -710 1144 -760 1159 -760 1232 c 4
 -760 1362.71191406 -663.185546875 1522 -516 1522 c 4
 -316 1522 -292 1387 -232 1387 c 4
EndSplineSet
EndChar

StartChar: asciitilde
Encoding: 126 126 132
Width: 1182
VWidth: 1920
Flags: HMW
LayerCount: 2
Fore
SplineSet
404 499 m 4
 370.715820312 499 349.985351562 479 341.596679688 442.125 c 0
 331.67578125 397.15625 326.713867188 304 208 304 c 0
 143.37109375 304 70 358.251953125 70 482 c 0
 70 631.663085938 194.3671875 802 394 802 c 0
 609.779296875 802 686.190429688 587 768 587 c 0
 801.284179688 587 822.013671875 607 830.403320312 643.872070312 c 0
 841.48046875 694.120117188 845.262695312 782 962 782 c 0
 1037.16503906 782 1112 716.907226562 1112 594 c 0
 1112 452.4296875 983.805664062 284 778 284 c 0
 562.220703125 284 485.809570312 499 404 499 c 4
EndSplineSet
EndChar

StartChar: uni0304
Encoding: 772 772 136
Width: 0
VWidth: 1920
Flags: HMW
AnchorPoint: "top" -382 1024.73 mark 0
LayerCount: 2
Fore
SplineSet
-399 1175 m 6
 -505 1175 -594 1168 -670 1168 c 4
 -707 1168 -730 1181 -730 1212 c 6
 -730 1372 l 6
 -730 1403 -707 1416 -670 1416 c 4
 -594 1416 -505 1409 -399 1409 c 6
 -378 1409 l 6
 -272 1409 -182 1416 -106 1416 c 4
 -69 1416 -46 1403 -46 1372 c 6
 -46 1212 l 6
 -46 1181 -69 1168 -106 1168 c 4
 -182 1168 -272 1175 -378 1175 c 6
 -399 1175 l 6
EndSplineSet
EndChar

StartChar: uni0306
Encoding: 774 774 138
Width: 0
VWidth: 1920
Flags: HMW
AnchorPoint: "top" -326 1024.73 mark 0
LayerCount: 2
Fore
SplineSet
-325 1122 m 4
 -520.587890625 1122 -629.877929688 1220.38476562 -629.877929688 1413.15039062 c 4
 -629.877929688 1479.29980469 -587.8203125 1519.65039062 -531.8203125 1519.65039062 c 4
 -486.002929688 1519.65039062 -464.234143418 1496.95005717 -440 1457.37011719 c 4
 -416.595703125 1419.14550781 -385.608398438 1392 -325 1392 c 4
 -264.391601562 1392 -237.047149903 1413.97792169 -210 1457.37011719 c 4
 -188.706069021 1491.53232723 -163.997070312 1519.65039062 -118.1796875 1519.65039062 c 4
 -62.1796875 1519.65039062 -20.1220703125 1479.29980469 -20.1220703125 1413.15039062 c 4
 -20.1220703125 1220.38476562 -129.412109375 1122 -325 1122 c 4
EndSplineSet
EndChar

StartChar: uni0307
Encoding: 775 775 139
Width: 0
VWidth: 1920
Flags: HMW
AnchorPoint: "top" -256 1024.73 mark 0
LayerCount: 2
Fore
SplineSet
-409.599609375 1353 m 4
 -409.599609375 1438.75976562 -341.759765625 1506.59960938 -256 1506.59960938 c 4
 -170.240234375 1506.59960938 -102.400390625 1438.75976562 -102.400390625 1353 c 4
 -102.400390625 1267.24023438 -170.240234375 1199.40039062 -256 1199.40039062 c 4
 -341.759765625 1199.40039062 -409.599609375 1267.24023438 -409.599609375 1353 c 4
EndSplineSet
EndChar

StartChar: uni0308
Encoding: 776 776 140
Width: 0
VWidth: 1920
Flags: HMW
AnchorPoint: "top" -436 1024.73 mark 0
LayerCount: 2
Fore
SplineSet
-799.599609375 1293 m 0
 -799.599609375 1378.75976562 -731.759765625 1446.59960938 -646 1446.59960938 c 0
 -560.240234375 1446.59960938 -492.400390625 1378.75976562 -492.400390625 1293 c 0
 -492.400390625 1207.24023438 -560.240234375 1139.40039062 -646 1139.40039062 c 0
 -731.759765625 1139.40039062 -799.599609375 1207.24023438 -799.599609375 1293 c 0
-379.599609375 1293 m 4
 -379.599609375 1378.75976562 -311.759765625 1446.59960938 -226 1446.59960938 c 4
 -140.240234375 1446.59960938 -72.400390625 1378.75976562 -72.400390625 1293 c 4
 -72.400390625 1207.24023438 -140.240234375 1139.40039062 -226 1139.40039062 c 4
 -311.759765625 1139.40039062 -379.599609375 1207.24023438 -379.599609375 1293 c 4
EndSplineSet
EndChar

StartChar: uni030A
Encoding: 778 778 141
Width: 0
VWidth: 1920
Flags: HMW
AnchorPoint: "top" -406 925 mark 0
LayerCount: 2
Fore
SplineSet
-470 1272 m 0
 -470 1212.79980469 -449.200195312 1177.59960938 -406 1177.59960938 c 0
 -362.799804688 1177.59960938 -342 1212.79980469 -342 1272 c 0
 -342 1331.20019531 -362.799804688 1366.40039062 -406 1366.40039062 c 0
 -449.200195312 1366.40039062 -470 1331.20019531 -470 1272 c 0
-662 1272 m 0
 -662 1396 -555.599609375 1489.59960938 -406 1489.59960938 c 0
 -256.400390625 1489.59960938 -150 1396 -150 1272 c 0
 -150 1148 -256.400390625 1054.40039062 -406 1054.40039062 c 0
 -555.599609375 1054.40039062 -662 1148 -662 1272 c 0
EndSplineSet
EndChar

StartChar: uni030B
Encoding: 779 779 142
Width: 0
VWidth: 1920
Flags: HMW
AnchorPoint: "top" -565.5 920 mark 0
LayerCount: 2
Fore
SplineSet
-574 1118 m 0
 -649.583984375 1063.3828125 -695 1045 -743 1045 c 0
 -786 1045 -825 1076 -825 1115 c 0
 -825 1157 -797.661132812 1185.94433594 -758 1222 c 0
 -714 1262 -714.458984375 1318.09277344 -688 1356 c 0
 -658.796875 1397.83789062 -613 1424 -546 1424 c 0
 -461 1424 -418 1373 -418 1309 c 0
 -418 1283 -428.6953125 1250.50195312 -448 1227 c 0
 -471 1199 -510.830078125 1163.64648438 -574 1118 c 0
-194 1118 m 0
 -279.583984375 1063.3828125 -355 1045 -403 1045 c 0
 -446 1045 -485 1076 -485 1115 c 0
 -485 1157 -431.071289062 1190.09570312 -388 1222 c 0
 -334 1262 -324.458984375 1318.09277344 -298 1356 c 0
 -268.796875 1397.83789062 -220 1424 -153 1424 c 0
 -73 1424 -28 1373 -28 1309 c 0
 -28 1283 -38.6953125 1250.50195312 -58 1227 c 0
 -81 1199 -128.302734375 1159.92675781 -194 1118 c 0
EndSplineSet
EndChar

StartChar: uni030F
Encoding: 783 783 143
Width: 0
VWidth: 1920
Flags: HMW
AnchorPoint: "top" -287.5 920 mark 0
LayerCount: 2
Fore
SplineSet
-279 1118 m 4
 -342.169921875 1163.64648438 -382 1199 -405 1227 c 4
 -424.3046875 1250.50195312 -435 1283 -435 1309 c 4
 -435 1373 -392 1424 -307 1424 c 4
 -240 1424 -194.203125 1397.83789062 -165 1356 c 4
 -138.541015625 1318.09277344 -139 1262 -95 1222 c 4
 -55.3388671875 1185.94433594 -28 1157 -28 1115 c 4
 -28 1076 -67 1045 -110 1045 c 4
 -158 1045 -203.416015625 1063.3828125 -279 1118 c 4
-659 1118 m 4
 -724.697265625 1159.92675781 -772 1199 -795 1227 c 4
 -814.3046875 1250.50195312 -825 1283 -825 1309 c 4
 -825 1373 -780 1424 -700 1424 c 4
 -633 1424 -584.203125 1397.83789062 -555 1356 c 4
 -528.541015625 1318.09277344 -519 1262 -465 1222 c 4
 -421.928710938 1190.09570312 -368 1157 -368 1115 c 4
 -368 1076 -407 1045 -450 1045 c 4
 -498 1045 -573.416015625 1063.3828125 -659 1118 c 4
EndSplineSet
EndChar

StartChar: uni030C
Encoding: 780 780 144
Width: 0
VWidth: 1920
Flags: HMW
AnchorPoint: "top" -326 1024.73 mark 0
LayerCount: 2
Fore
SplineSet
-206 1398.34960938 m 4
 -119 1449.34960938 -101 1454.34960938 -67 1454.34960938 c 4
 -19 1454.34960938 17 1431.34960938 17 1395.34960938 c 4
 17 1354.34960938 -6 1327.34960938 -30 1301.34960938 c 6
 -122 1222.34960938 l 6
 -214 1144.34960938 -259 1107.34960938 -327 1107.34960938 c 4
 -389 1107.34960938 -438 1142.34960938 -512 1203.34960938 c 6
 -608 1283.34960938 l 6
 -641 1318.34960938 -671 1350.34960938 -671 1395.34960938 c 4
 -671 1431.34960938 -635 1454.34960938 -587 1454.34960938 c 4
 -553 1454.34960938 -535 1449.34960938 -448 1398.34960938 c 4
 -395 1367.34960938 -364 1344.34960938 -327 1339.34960938 c 5
 -290 1344.34960938 -259 1367.34960938 -206 1398.34960938 c 4
EndSplineSet
EndChar

StartChar: uni0311
Encoding: 785 785 145
Width: 0
VWidth: 1920
Flags: HMW
AnchorPoint: "top" -326 1024.73 mark 0
LayerCount: 2
Fore
SplineSet
-325 1519.65039062 m 0
 -129.412109375 1519.65039062 -20.1220703125 1421.265625 -20.1220703125 1228.5 c 0
 -20.1220703125 1162.35058594 -62.1796875 1122 -118.1796875 1122 c 0
 -163.997070312 1122 -185.765625 1144.70019531 -210 1184.28027344 c 0
 -233.404296875 1222.50488281 -264.391601562 1249.65039062 -325 1249.65039062 c 0
 -385.608398438 1249.65039062 -412.953125 1227.67285156 -440 1184.28027344 c 0
 -461.293945312 1150.11816406 -486.002929688 1122 -531.8203125 1122 c 0
 -587.8203125 1122 -629.877929688 1162.35058594 -629.877929688 1228.5 c 0
 -629.877929688 1421.265625 -520.587890625 1519.65039062 -325 1519.65039062 c 0
EndSplineSet
EndChar

StartChar: uni0312
Encoding: 786 786 146
Width: 0
Flags: HMW
AnchorPoint: "top" -604 920 mark 0
LayerCount: 2
Fore
SplineSet
-507.099609375 1634.59960938 m 4
 -507.099609375 1614.59960938 -519.900390625 1594.59960938 -543.900390625 1573.79980469 c 4
 -562.356445312 1557.8046875 -601.5 1507.40039062 -601.5 1435.40039062 c 4
 -601.5 1411.40039062 -595.900390625 1402.59960938 -587.099609375 1398.59960938 c 4
 -580.544921875 1395.62011719 -566.977539062 1392.96289062 -545.5 1386.59960938 c 4
 -502.299804688 1373.79980469 -396.700195312 1325 -396.700195312 1215.40039062 c 4
 -396.700195312 1097.79980469 -480.700195312 1005.79980469 -598.299804688 1005.79980469 c 4
 -724.700195312 1005.79980469 -802.299804688 1109.79980469 -802.299804688 1255.40039062 c 4
 -802.299804688 1501.79980469 -665.5 1684.20019531 -606.299804688 1684.20019531 c 4
 -531.099609375 1684.20019531 -507.099609375 1653.79980469 -507.099609375 1634.59960938 c 4
EndSplineSet
EndChar

StartChar: dotbelowcomb
Encoding: 803 803 147
Width: 0
VWidth: 1920
Flags: HMW
AnchorPoint: "bottom" -255 0 mark 0
LayerCount: 2
Fore
SplineSet
-409.599609375 -280.599609375 m 0
 -409.599609375 -194.83984375 -341.759765625 -127 -256 -127 c 0
 -170.240234375 -127 -102.400390625 -194.83984375 -102.400390625 -280.599609375 c 0
 -102.400390625 -366.359375 -170.240234375 -434.19921875 -256 -434.19921875 c 0
 -341.759765625 -434.19921875 -409.599609375 -366.359375 -409.599609375 -280.599609375 c 0
EndSplineSet
EndChar

StartChar: uni0326
Encoding: 806 806 148
Width: 0
Flags: HMW
AnchorPoint: "bottom" -255 0 mark 0
LayerCount: 2
Fore
SplineSet
-349.200195312 -768.799804688 m 0
 -349.200195312 -748.799804688 -336.399414062 -728.799804688 -312.399414062 -708 c 0
 -293.943359375 -692.004882812 -254.799804688 -641.600585938 -254.799804688 -569.600585938 c 0
 -254.799804688 -545.600585938 -260.399414062 -536.799804688 -269.200195312 -532.799804688 c 0
 -275.754882812 -529.8203125 -289.322265625 -527.163085938 -310.799804688 -520.799804688 c 0
 -354 -508 -459.599609375 -459.200195312 -459.599609375 -349.600585938 c 0
 -459.599609375 -232 -375.599609375 -140 -258 -140 c 0
 -131.599609375 -140 -54 -244 -54 -389.600585938 c 0
 -54 -636 -190.799804688 -818.400390625 -250 -818.400390625 c 0
 -325.200195312 -818.400390625 -349.200195312 -788 -349.200195312 -768.799804688 c 0
EndSplineSet
EndChar

StartChar: uni0327
Encoding: 807 807 149
Width: 0
Flags: HMW
AnchorPoint: "bottom" -325 0 mark 0
LayerCount: 2
Fore
SplineSet
-361 -500 m 4
 -533 -500 -611 -422 -611 -346 c 4
 -611 -304 -587.036132812 -271 -530 -271 c 4
 -485 -271 -475.236577142 -301.28523496 -463 -320 c 4
 -446 -346 -425 -354 -413 -354 c 4
 -391 -354 -371 -342 -371 -284 c 20
 -371 -226 -388 -216 -409 -216 c 4
 -426 -216 -432 -224 -475 -224 c 4
 -512 -224 -539 -203 -539 -181 c 4
 -539 -162 -529 -149 -513 -120 c 6
 -440 10 l 5
 -220 10 l 5
 -281 -97 l 5
 -273 -96 -263 -95 -250 -95 c 4
 -152 -95 -74 -160 -74 -268 c 4
 -74 -366 -159 -500 -361 -500 c 4
EndSplineSet
EndChar

StartChar: uni0328
Encoding: 808 808 150
Width: 0
Flags: HMW
AnchorPoint: "ogonek" -221 0 mark 0
LayerCount: 2
Fore
SplineSet
-614 -282 m 0
 -614 -81 -394 50 -232 98 c 1
 -154 30 l 21
 -188 -19 -320 -89 -320 -234 c 0
 -320 -308 -292 -320 -266 -320 c 0
 -220 -320 -216 -271 -152 -271 c 0
 -108 -271 -75 -303 -75 -350 c 0
 -75 -430 -176 -502 -336 -502 c 0
 -516 -502 -614 -408 -614 -282 c 0
EndSplineSet
EndChar

StartChar: minute
Encoding: 8242 8242 166
Width: 590
VWidth: 1920
Flags: HMW
LayerCount: 2
Fore
SplineSet
150 709 m 0
 97 709 75 764 75 814 c 0
 75 844.784179688 84.6025390625 895.873046875 94.5439453125 960 c 0
 102.912109375 1013.97851562 106 1171.12011719 106 1282 c 4
 106 1420 218 1503 335 1503 c 0
 440 1503 515 1435 515 1320 c 4
 515 1191.19433594 398.87109375 1095.01855469 316.293945312 927 c 0
 257.73046875 807.841796875 195.833984375 709 150 709 c 0
EndSplineSet
EndChar

StartChar: Eth
Encoding: 208 208 186
Width: 1691
VWidth: 1920
Flags: HMW
LayerCount: 2
Fore
SplineSet
491 558 m 6
 265 558 176 551 100 551 c 4
 63 551 40 564 40 595 c 6
 40 815 l 6
 40 846 63 859 100 859 c 4
 176 859 265 852 491 852 c 6
 512 852 l 6
 738 852 828 859 904 859 c 4
 941 859 964 846 964 815 c 6
 964 595 l 6
 964 564 941 551 904 551 c 4
 828 551 738 558 512 558 c 6
 491 558 l 6
EndSplineSet
Refer: 4 68 N 1 0 0 1 0 0 2
EndChar

StartChar: dotlessi
Encoding: 305 305 187
Width: 727
VWidth: 1920
Flags: HMW
AnchorPoint: "top" 351 1000 basechar 0
LayerCount: 2
Fore
SplineSet
150 421 m 2
 150 479 l 2
 150 566 145.913085938 687.375 121 720 c 0
 100.389648438 746.990234375 63.64453125 748.068359375 47 763 c 0
 28.111328125 779.944335938 20 798 20 820 c 0
 20 884 45.505859375 907.36328125 155 954 c 0
 263 1000 457 1044 548 1044 c 0
 589 1044 603 1032 603 995 c 0
 603 919 598 838 598 602 c 2
 598 424 l 2
 598 348 599.228515625 302.39453125 604 269 c 0
 608.16015625 239.881835938 622.201171875 217.467773438 634.087890625 206 c 0
 650.538085938 190.129882812 668.790039062 187.036132812 684.291015625 171 c 0
 700.095703125 154.650390625 707 138.124023438 707 97 c 0
 707 1 572 -30 373 -30 c 0
 163 -30 23 -1 23 96 c 0
 23 123.165039062 30.748046875 145.361328125 45.666015625 162 c 0
 61.87109375 180.075195312 84.99609375 188.951171875 102.606445312 203 c 0
 119.252929688 216.280273438 131.759765625 233.715820312 136 251 c 0
 147.637695312 298.4296875 150 337 150 421 c 2
EndSplineSet
EndChar

StartChar: kgreenlandic
Encoding: 312 312 188
Width: 1555
VWidth: 1920
Flags: HMW
LayerCount: 2
Fore
SplineSet
189 521 m 6
 189 531 l 2
 189 616.440429688 187.103515625 682.497070312 161.948242188 710 c 0
 130.520507812 744.360351562 72.3232421875 729.763671875 46 746.828125 c 0
 30.3818359375 756.952148438 20 777.181640625 20 806 c 0
 20 841 41.6962890625 867.48046875 86 891 c 0
 248 977 436 1041 547 1041 c 0
 608 1041 646 1018 646 961 c 0
 646 905 630 860 630 804 c 2
 630 796 l 2
 630 774 637 741 667 741 c 0
 681 741 690 742 714 754 c 2
 795 795 l 2
 832 814 844 820 844 834 c 0
 844 842.967773438 842.012695312 849.017578125 836.494140625 856 c 0
 831.319335938 862.548828125 821.797851562 869.040039062 815.958007812 877 c 0
 807.817382812 888.096679688 802 903.05078125 802 924 c 0
 802 986 874 1035 1084 1035 c 0
 1301 1035 1388 1003 1388 894 c 0
 1388 863 1372 848 1350 840 c 0
 1322 830 1285 834 1250 829 c 0
 1230 826 1211 818 1196 807 c 2
 1078 720 l 2
 1052 697 1053 689 1080 653 c 2
 1377 272 l 2
 1399 243 1425 226 1447 213 c 0
 1470 199 1495 194 1513 183 c 0
 1538 167 1555 145 1555 91 c 0
 1555 37 1521 -9 1431 -9 c 2
 1181 -9 l 2
 1068 -9 1007 -19 979 2 c 0
 962 15 946 36 884 122 c 2
 726 340 l 2
 707 365 696 378 679 378 c 0
 666 378 647 365 647 330 c 0
 647 299 647 263 651 237 c 0
 654.163085938 216.439453125 663.068359375 201.798828125 674.234375 191 c 0
 687.006835938 178.647460938 704.736328125 172.014648438 718.211914062 161 c 0
 734.818359375 147.424804688 746 129.232421875 746 97 c 0
 746 -17 583 -25 384 -25 c 0
 204 -25 58 1 58 88 c 0
 58 113.07421875 62.8291015625 125.375 72.810546875 137 c 0
 87.498046875 154.10546875 118.22265625 164.079101562 137.629882812 182 c 0
 161.409179688 203.959960938 173.7109375 231.84375 180 269 c 0
 186.192382812 305.587890625 189 377 189 521 c 6
EndSplineSet
EndChar

StartChar: multiply
Encoding: 215 215 189
Width: 1222
Flags: HMW
LayerCount: 2
Fore
SplineSet
525 671 m 2
 649 795 715 891 769 945 c 0
 788 964 799 971 814 956 c 2
 1056 714 l 2
 1071 699 1064 688 1045 669 c 0
 991 615 895 549 771 425 c 6
 717 371 l 6
 593 247 505 129 451 75 c 0
 432 56 421 49 406 64 c 2
 164 306 l 2
 149 321 156 332 175 351 c 0
 229 405 347 493 471 617 c 2
 525 671 l 2
771 595 m 2
 895 471 991 405 1045 351 c 0
 1064 332 1071 321 1056 306 c 2
 814 64 l 2
 799 49 788 56 769 75 c 0
 715 129 649 225 525 349 c 2
 471 403 l 2
 347 527 229 615 175 669 c 0
 156 688 149 699 164 714 c 2
 406 956 l 2
 421 971 432 964 451 945 c 0
 505 891 593 773 717 649 c 2
 771 595 l 2
EndSplineSet
EndChar

StartChar: Dcroat
Encoding: 272 272 190
Width: 1691
VWidth: 1920
Flags: HMW
LayerCount: 2
Fore
SplineSet
491 558 m 6
 265 558 176 551 100 551 c 4
 63 551 40 564 40 595 c 6
 40 815 l 6
 40 846 63 859 100 859 c 4
 176 859 265 852 491 852 c 6
 512 852 l 6
 738 852 828 859 904 859 c 4
 941 859 964 846 964 815 c 6
 964 595 l 6
 964 564 941 551 904 551 c 4
 828 551 738 558 512 558 c 6
 491 558 l 6
EndSplineSet
Refer: 4 68 N 1 0 0 1 0 0 2
EndChar

StartChar: percent
Encoding: 37 37 197
Width: 1740
Flags: HMW
LayerCount: 2
Fore
SplineSet
1695 370 m 260
 1695 150 1454 -35 1249 -35 c 260
 1084 -35 892 56 892 291 c 260
 892 513 1137 685 1331 685 c 260
 1502 685 1695 599 1695 370 c 260
1259 116 m 260
 1297 116 1360 203 1360 417 c 260
 1360 488 1353 534 1328 534 c 260
 1278 534 1227 447 1227 235 c 260
 1227 155 1229 116 1259 116 c 260
848 968 m 260
 848 748 607 563 402 563 c 260
 237 563 45 654 45 889 c 260
 45 1111 290 1283 484 1283 c 260
 655 1283 848 1197 848 968 c 260
412 714 m 260
 450 714 513 801 513 1015 c 260
 513 1086 506 1132 481 1132 c 260
 431 1132 380 1045 380 833 c 260
 380 753 382 714 412 714 c 260
900 546 m 6
 732 306 610 123 519 -7 c 4
 505 -27 487 -27 472 -16 c 6
 387 39 l 6
 372 50 366 68 380 88 c 4
 471 218 603 395 771 635 c 6
 810 691 l 6
 978 931 1115 1137 1206 1267 c 4
 1220 1287 1231.61523438 1291.92285156 1254 1277 c 6
 1338 1221 l 6
 1360.38476562 1206.07714844 1360 1192 1346 1172 c 4
 1255 1042 1108 843 940 603 c 6
 900 546 l 6
EndSplineSet
EndChar

StartChar: cent
Encoding: 162 162 201
Width: 1087
VWidth: 1920
Flags: HMW
LayerCount: 2
Fore
SplineSet
688 6 m 6
 688 -36 710 -67 710 -79 c 4
 710 -95 701 -105 677 -115 c 4
 644 -129 522 -150 501 -150 c 4
 487 -150 471 -142 471 -110 c 4
 471 -88 496 -12 496 132 c 6
 496 1030 l 6
 496 1072 474 1103 474 1115 c 4
 474 1131 483 1141 507 1151 c 4
 540 1165 662 1186 683 1186 c 4
 697 1186 713 1178 713 1146 c 4
 713 1124 688 1048 688 904 c 6
 688 6 l 6
EndSplineSet
Refer: 37 99 N 1 0 0 1 0 0 2
EndChar

StartChar: exclamdown
Encoding: 161 161 202
Width: 569
VWidth: 1920
Flags: HMW
LayerCount: 2
Fore
SplineSet
535 -340.935546875 m 4
 535 -507.935546875 452 -640.935546875 285 -640.935546875 c 4
 118 -640.935546875 35 -507.935546875 35 -340.935546875 c 4
 35 -39.845703125 149.83203125 156.044921875 175.2109375 194.064453125 c 4
 204.375 237.75390625 249.08984375 285.064453125 285 285.064453125 c 4
 320.91015625 285.064453125 356.1484375 238.098632812 384.7890625 194.064453125 c 4
 410.16796875 155.044921875 535 -49.845703125 535 -340.935546875 c 4
526.935546875 603.064453125 m 4
 526.935546875 468.8984375 417.166015625 359.12890625 283 359.12890625 c 4
 148.833984375 359.12890625 39.064453125 468.8984375 39.064453125 603.064453125 c 4
 39.064453125 737.23046875 148.833984375 847 283 847 c 4
 417.166015625 847 526.935546875 737.23046875 526.935546875 603.064453125 c 4
EndSplineSet
EndChar

StartChar: AE
Encoding: 198 198 203
Width: 2156
VWidth: 1920
Flags: HMW
LayerCount: 2
Fore
SplineSet
1114 -23 m 0
 1028 -23 946 -28 861 -28 c 0
 800 -28 781 20 781 64 c 0
 781 113 795 139 840 149 c 0
 871.9765625 156.10546875 891.03125 177.061523438 906 200 c 0
 912.241210938 209.563476562 931.260742188 243 933.260742188 265 c 0
 934.73046875 281.166992188 935.838867187 285.362286844 935.838867188 296 c 0
 935.838867188 315.734375 928.154296875 314.43359375 910 317.014648438 c 0
 889 320 827.436304692 323 787 323 c 0
 718 323 674 318 623 318 c 0
 556.654296875 318 540.30859375 303.15625 529 273 c 2
 526 265 l 2
 522.424804688 255.465820312 522 247 522 240 c 0
 522 225.939453125 528.388671875 217.086914062 541 211.444335938 c 0
 564.646484375 200.862304688 611 192 631 178.620117188 c 0
 648.139648438 167.153320312 658 144.29296875 658 111 c 0
 658 -6 536 -29 343 -29 c 0
 152 -29 30 -19 30 109 c 0
 30 151.11328125 48 175 68.7080078125 188 c 0
 96.8720703125 205.680664062 146 202 180.413085938 239 c 0
 217.00390625 278.340820312 262.027753454 358.705284905 334 472 c 2
 597 886 l 2
 697.031068526 1043.46335502 798 1137 798 1200 c 0
 798 1215.37606796 785.275390625 1223.59667969 754 1229.33691406 c 0
 719.517578125 1235.66601562 680 1235 657 1246.85449219 c 0
 638.095703125 1256.59765625 627 1273.66796875 627 1307 c 0
 627 1401 682 1434 839 1434 c 0
 907 1434 1137 1430 1199 1430 c 0
 1321 1430 1595 1430 1714 1430 c 0
 1857 1430 1836 1456 1913 1456 c 0
 2006 1456 2070 1308 2070 1118 c 0
 2070 1044 2022 1000 1954 1000 c 0
 1904 1000 1893.43554688 1017.33007812 1854 1087 c 0
 1824 1140 1787.44628906 1167.70800781 1714 1186 c 0
 1663.43066406 1198.59472656 1621 1200 1559 1200 c 0
 1434 1200 1407.89550781 1170.67382812 1399 1143 c 0
 1390 1115 1389 1021 1389 898 c 0
 1389 851 1389.24414062 832.657226562 1417 825 c 0
 1446 817 1473 817 1508 817 c 0
 1552 817 1578.22363281 847.982421875 1581 885 c 0
 1584 925 1587 946 1592 971 c 0
 1598.578125 1003.88964844 1618 1039 1676 1039 c 0
 1763 1039 1802 940 1802 716 c 0
 1802 470 1742 392 1658 392 c 0
 1609 392 1591 429 1591 497 c 0
 1591 543 1578 601 1489 601 c 0
 1434 601 1418.04003906 593.782226562 1409 570 c 0
 1398.62011719 542.69140625 1401 481 1401 446 c 0
 1401 385 1405 340 1423 244 c 0
 1427.07128906 222.288085938 1431.88867188 214.497070312 1458 209 c 0
 1496 201 1543 200 1599 200 c 0
 1684 200 1720.8671875 206.427734375 1764 216 c 0
 1803.28808594 224.71875 1862.24316406 271.819335938 1898 323 c 0
 1949 396 1945 474 2036 474 c 0
 2124 474 2141 407 2141 329 c 0
 2141 196 2032 -46 1966 -46 c 0
 1922 -46 1822 -21 1684 -21 c 0
 1567 -21 1456 -23 1371 -23 c 0
 1284 -23 1198 -23 1114 -23 c 0
950.716796875 642 m 0
 950.716796875 666.879882812 951.091970063 683.657136829 951.436759903 714 c 0
 951.729438713 739.75688741 952 818.083007812 952 850 c 0
 952 865 945.459960938 885 920 885 c 4
 902 885 875.064453125 849.884765625 848 810 c 2
 772 698 l 2
 756.669921875 675.408203125 749 646 749 631 c 0
 749 617 759 613 772 613 c 0
 784 613 802 614 869 614 c 0
 903.743243481 614 911 611.458984375 923 611.458984375 c 0
 939.327148438 611.458984375 950.716796875 630.084960938 950.716796875 642 c 0
EndSplineSet
EndChar

StartChar: sterling
Encoding: 163 163 208
Width: 1856
Flags: HMW
LayerCount: 2
Fore
SplineSet
335 678 m 0
 335 702 466 865 494 895 c 0
 508 910 521 918 542 918 c 0
 605 918 1346 903 1399 903 c 0
 1491 903 1510 919 1565 919 c 0
 1584 919 1597 902 1597 883 c 0
 1597 859 1549 698 1532 667 c 0
 1523 650 1509 641 1490 641 c 0
 1462 641 1413 660 1350 660 c 2
 555 660 l 2
 475 660 379 650 364 650 c 0
 350 650 335 660 335 678 c 0
1391 1460 m 0
 1641 1460 1773 1385 1773 1231 c 0
 1773 1114 1694 1051 1584 1051 c 0
 1384 1051 1385 1253 1301 1253 c 0
 1267 1253 1158.57421875 1259.63964844 1143 1086 c 0
 1126.25097656 899.262695312 1235.73339844 733.946289062 1173 605 c 0
 1114.45214844 484.65625 1062 416 1019 382 c 0
 985.206054688 355.279296875 983.384765625 311.311523438 1078 291 c 0
 1189.69238281 267.022460938 1269 177 1361 177 c 0
 1407.13574219 177 1436 204 1436 228 c 0
 1436 252 1423 287 1423 337 c 0
 1423 481.125 1524.85742188 530 1641 530 c 4
 1748 530 1831 458 1831 334 c 4
 1831 90 1440 -104 1130 -104 c 0
 910 -104 769 -23 676 47 c 0
 647.415317813 68.5153521837 593 73 557 52 c 0
 491.80859375 13.9716796875 355 -43 237 -43 c 0
 119 -43 25 37 25 156 c 0
 25 304 161.9296875 412.526367188 403 418 c 0
 466.265625 419.436523438 525 420 569 467 c 0
 628.955078125 531.041992188 630.802734375 561.221679688 672 654 c 0
 736.237304688 798.666015625 705.305664062 901.344726562 745 1076 c 0
 815 1384 1091 1460 1391 1460 c 0
EndSplineSet
EndChar

StartChar: yen
Encoding: 165 165 209
Width: 1527
VWidth: 1920
Flags: HMW
LayerCount: 2
Fore
SplineSet
740 335 m 2
 544 335 325 331 249 331 c 0
 222 331 209 334 209 355 c 2
 209 535 l 2
 209 556 222 559 249 559 c 0
 325 559 544 556 740 556 c 2
 761 556 l 2
 987 556 1177 559 1253 559 c 4
 1280 559 1293 556 1293 535 c 6
 1293 355 l 6
 1293 334 1280 331 1253 331 c 4
 1177 331 987 335 761 335 c 2
 740 335 l 2
740 635 m 2
 544 635 325 631 249 631 c 0
 222 631 209 634 209 655 c 2
 209 835 l 2
 209 856 222 859 249 859 c 0
 325 859 544 856 740 856 c 2
 761 856 l 2
 987 856 1177 859 1253 859 c 4
 1280 859 1293 856 1293 835 c 6
 1293 655 l 6
 1293 634 1280 631 1253 631 c 4
 1177 631 987 635 761 635 c 2
 740 635 l 2
EndSplineSet
Refer: 25 89 N 1 0 0 1 0 0 2
EndChar

StartChar: brokenbar
Encoding: 166 166 210
Width: 488
VWidth: 1920
Flags: HMW
LayerCount: 2
Fore
SplineSet
406 16 m 2
 406 -60 418 -244 418 -320 c 0
 418 -347 415 -360 394 -360 c 2
 94 -360 l 2
 73 -360 70 -347 70 -320 c 0
 70 -244 82 -60 82 16 c 2
 82 43 l 2
 82 119 70 304 70 380 c 4
 70 407 73 420 94 420 c 6
 394 420 l 6
 415 420 418 407 418 380 c 4
 418 304 406 119 406 43 c 2
 406 16 l 2
406 996 m 2
 406 920 418 736 418 660 c 0
 418 633 415 620 394 620 c 2
 94 620 l 2
 73 620 70 633 70 660 c 0
 70 736 82 920 82 996 c 2
 82 1023 l 2
 82 1099 70 1284 70 1360 c 0
 70 1387 73 1400 94 1400 c 2
 394 1400 l 2
 415 1400 418 1387 418 1360 c 0
 418 1284 406 1099 406 1023 c 2
 406 996 l 2
EndSplineSet
EndChar

StartChar: plusminus
Encoding: 177 177 211
Width: 1222
Flags: HMW
LayerCount: 2
Fore
SplineSet
576 8 m 2
 330 8 246 1 170 1 c 0
 143 1 130 4 130 25 c 2
 130 315 l 2
 130 336 143 339 170 339 c 0
 246 339 330 332 576 332 c 2
 597 332 l 2
 843 332 958 339 1034 339 c 0
 1061 339 1074 336 1074 315 c 2
 1074 25 l 2
 1074 4 1061 1 1034 1 c 0
 958 1 843 8 597 8 c 2
 576 8 l 2
767 831 m 2
 767 655 794 586 794 510 c 0
 794 483 791 470 770 470 c 2
 450 470 l 2
 429 470 426 483 426 510 c 0
 426 586 453 655 453 831 c 2
 453 848 l 2
 453 1024 426 1124 426 1200 c 0
 426 1227 429 1240 450 1240 c 2
 770 1240 l 2
 791 1240 794 1227 794 1200 c 0
 794 1124 767 1024 767 848 c 2
 767 831 l 2
102 713 m 0
 102 817 142 919 189 990 c 0
 200.326171875 1007.109375 223 1013 244 1013 c 0
 307 1013 872 998 925 998 c 0
 1017 998 1036 1014 1091 1014 c 0
 1110 1014 1123 997 1123 978 c 0
 1123 954 1080 815 1027 712 c 0
 1018.19921875 694.896484375 994 676 975 676 c 0
 947 676 898 695 835 695 c 2
 340 695 l 2
 230 695 178 665 143 665 c 0
 119 665 102 675 102 713 c 0
EndSplineSet
EndChar

StartChar: copyright
Encoding: 169 169 212
Width: 1572
Flags: MW
LayerCount: 2
Fore
SplineSet
531.200195312 700 m 0
 531.200195312 505.5 644.5 389.5 786 389.5 c 4
 913.318359375 389.5 988.203125 471.828125 1028.66601562 568.43359375 c 1
 1145.14355469 517.842773438 l 1
 1103.78027344 379.952148438 983.249023438 259 796 259 c 4
 563 259 366.400390625 431 366.400390625 700 c 0
 366.400390625 969 563 1141 796 1141 c 4
 983.416015625 1141 1114.06152344 1009.86523438 1155.35839844 871.743164062 c 1
 1028.8828125 831.153320312 l 1
 988.471679688 918.01953125 913.475585938 1010.5 786 1010.5 c 4
 644.5 1010.5 531.200195312 894.5 531.200195312 700 c 0
141.599609375 700 m 0
 141.599609375 326.5 421.5 28.5 786 28.5 c 0
 1150.5 28.5 1430.40039062 326.5 1430.40039062 700 c 0
 1430.40039062 1073.5 1150.5 1371.5 786 1371.5 c 0
 421.5 1371.5 141.599609375 1073.5 141.599609375 700 c 0
70 700 m 0
 70 1115 381 1435 786 1435 c 0
 1191 1435 1502 1115 1502 700 c 0
 1502 285 1191 -35 786 -35 c 0
 381 -35 70 285 70 700 c 0
EndSplineSet
EndChar

StartChar: registered
Encoding: 174 174 213
Width: 1572
Flags: MW
LayerCount: 2
Fore
SplineSet
70 700 m 0
 70 1115 381 1435 786 1435 c 0
 1191 1435 1502 1115 1502 700 c 0
 1502 285 1191 -35 786 -35 c 0
 381 -35 70 285 70 700 c 0
141.599609375 700 m 0
 141.599609375 326.5 421.5 28.5 786 28.5 c 0
 1150.5 28.5 1430.40039062 326.5 1430.40039062 700 c 0
 1430.40039062 1073.5 1150.5 1371.5 786 1371.5 c 0
 421.5 1371.5 141.599609375 1073.5 141.599609375 700 c 0
502 284 m 1
 502 1116 l 1
 845.758789062 1116 l 2
 1008.75878906 1116 1105.35839844 1024 1105.35839844 865 c 0
 1105.35839844 728.930664062 1040.03222656 668.11328125 948.657226562 635.528320312 c 1
 1158 284 l 1
 997 284 l 1
 816.188476562 608 l 1
 636 608 l 1
 636 284 l 1
 502 284 l 1
960.55859375 855 m 0
 960.55859375 949.5 917.258789062 995.5 815.758789062 995.5 c 2
 636 995.5 l 1
 636 718.5 l 1
 815.758789062 718.5 l 2
 917.258789062 718.5 960.55859375 760.5 960.55859375 855 c 0
EndSplineSet
EndChar

StartChar: uni00AD
Encoding: 173 173 214
Width: 702
Flags: HMW
LayerCount: 2
Fore
SplineSet
70 486 m 4
 70 540 98.3095703125 708.356445312 144 803 c 4
 158 832 181 846 212 846 c 4
 275 846 301 841 354 841 c 4
 446 841 525 857 580 857 c 4
 609 857 632 842 632 813 c 4
 632 759 579.049804688 611.97265625 542 507 c 4
 530 473 489 461 450 461 c 4
 400 461 328 474 262 474 c 4
 188 474 154 442 119 442 c 4
 95 442 70 458 70 486 c 4
EndSplineSet
EndChar

StartChar: logicalnot
Encoding: 172 172 215
Width: 1164
VWidth: 2048
Flags: HMW
LayerCount: 2
Fore
SplineSet
456 458 m 6
 280 458 246 451 170 451 c 4
 143 451 130 454 130 475 c 6
 130 765 l 2
 130 786 143 789 170 789 c 0
 246 789 280 782 556 782 c 2
 577 782 l 2
 846 782 914 789 988 789 c 0
 1031 789 1034 778 1034 750 c 0
 1034 674 1027 485 1027 409 c 0
 1027 317 1034 281 1034 200 c 0
 1034 173 1031 160 1010 160 c 2
 730 160 l 2
 709 160 706 173 706 200 c 0
 706 226 709 254 709 290 c 0
 709 324 709 406 708 452 c 5
 645 454 575 458 477 458 c 6
 456 458 l 6
EndSplineSet
EndChar

StartChar: degree
Encoding: 176 176 217
Width: 700
VWidth: 1920
Flags: HMW
LayerCount: 2
Fore
SplineSet
251 1115 m 4
 251 1053.79980469 293.299804688 1011.5 350 1011.5 c 4
 406.700195312 1011.5 449 1053.79980469 449 1115 c 4
 449 1176.20019531 406.700195312 1218.5 350 1218.5 c 4
 293.299804688 1218.5 251 1176.20019531 251 1115 c 4
50 1115 m 0
 50 1285 180 1415 350 1415 c 0
 520 1415 650 1285 650 1115 c 0
 650 945 520 815 350 815 c 0
 180 815 50 945 50 1115 c 0
EndSplineSet
EndChar

StartChar: questiondown
Encoding: 191 191 218
Width: 1121
VWidth: 1920
Flags: HMW
LayerCount: 2
Fore
SplineSet
560 306.4609375 m 4
 666 306.4609375 718 242.4609375 718 148.4609375 c 4
 718 -25.5390625 571 -132.5390625 571 -249.5390625 c 4
 571 -306.5390625 586 -362.5390625 630 -362.5390625 c 4
 664 -362.5390625 676 -333.5390625 676 -309.5390625 c 4
 676 -284.5390625 661 -267.5390625 661 -227.5390625 c 4
 661 -117.5390625 781 -28.5390625 890 -28.5390625 c 4
 1009 -28.5390625 1057 -107.5390625 1057 -207.5390625 c 4
 1057 -447.5390625 839 -629.5390625 521 -629.5390625 c 4
 263 -629.5390625 85 -426.5390625 85 -235.5390625 c 4
 85 -24.5390625 318.356445312 23.7421875 358 113.4609375 c 4
 377 156.4609375 374.455078125 183.91796875 384 214.4609375 c 4
 399 262.4609375 464 306.4609375 560 306.4609375 c 4
768.5390625 599.4609375 m 4
 768.5390625 462.368164062 672.368164062 353.921875 523 353.921875 c 4
 375.676757812 353.921875 277.4609375 462.368164062 277.4609375 599.4609375 c 4
 277.4609375 736.553710938 375.676757812 845 523 845 c 4
 672.368164062 845 768.5390625 736.553710938 768.5390625 599.4609375 c 4
EndSplineSet
EndChar

StartChar: currency
Encoding: 164 164 220
Width: 1248
VWidth: 1920
Flags: HMW
LayerCount: 2
Fore
SplineSet
456 695 m 0
 456 591 528 520 624 520 c 0
 720 520 791 591 791 695 c 0
 791 799 720 870 624 870 c 0
 528 870 456 799 456 695 c 0
396 1100 m 5
 454 1131 514 1156 624 1156 c 0
 734 1156 793 1130 851 1099 c 5
 925 1176 1000 1252 1023 1275 c 0
 1042 1294 1053 1301 1068 1286 c 2
 1210 1144 l 2
 1225 1129 1218 1118 1199 1099 c 0
 1176 1076 1100 1002 1024 928 c 5
 1058 869 1085 808 1085 695 c 0
 1085 585 1059 526 1028 468 c 5
 1102 396 1176 324 1199 301 c 0
 1218 282 1225 271 1210 256 c 2
 1068 114 l 2
 1053 99 1042 106 1023 125 c 0
 1000 148 929 221 857 295 c 5
 798 262 737 234 624 234 c 0
 511 234 450 262 391 295 c 5
 318 220 247 147 225 125 c 0
 206 106 195 99 180 114 c 2
 38 256 l 2
 23 271 30 282 49 301 c 0
 71 323 144 395 219 468 c 5
 188 526 163 585 163 695 c 0
 163 808 191 869 224 928 c 5
 147 1003 72 1076 49 1099 c 0
 30 1118 23 1129 38 1144 c 2
 180 1286 l 2
 195 1301 206 1294 225 1275 c 0
 248 1252 321 1177 396 1100 c 5
EndSplineSet
EndChar

StartChar: section
Encoding: 167 167 221
Width: 1034
Flags: HMW
LayerCount: 2
Fore
SplineSet
204 1122 m 0
 204 1338 382 1435 606 1435 c 0
 840 1435 934 1309 934 1217 c 0
 934 1135 892 1095 800 1095 c 0
 728 1095 679 1142 669 1202 c 0
 662.423828125 1241.45605469 641 1290 585 1290 c 0
 539 1290 514 1272 514 1240 c 0
 514 1202.50878906 625.916015625 1124.95703125 724.705078125 1068 c 0
 906.498046875 963.186523438 984 839.733398438 984 692 c 0
 984 520.373667969 897.489140264 444.43324579 822.093153375 409 c 0
 801.622367988 399.379509573 801.622367988 399.379509573 809.385977631 382 c 0
 822.870215896 351.814370018 830 317.89615519 830 278 c 0
 830 62 652 -35 428 -35 c 0
 194 -35 100 91 100 183 c 4
 100 255 142 305 234 305 c 0
 306 305 355 258 365 198 c 0
 371.576171875 158.543945312 393 110 449 110 c 0
 495 110 520 128 520 160 c 0
 520 197.491210938 408.083984375 275.04296875 309.294921875 332 c 0
 127.501953125 436.813476562 50 560.266601562 50 708 c 0
 50 881.978287864 138.898184415 957.630149592 214.999998094 992.434045059 c 0
 231.979015992 1000.19911576 231.979015992 1000.19911576 222.453132957 1023 c 0
 210.36925907 1051.9236188 204 1084.29166888 204 1122 c 0
670 545 m 0
 703 545 717 561 717 588 c 0
 717 649 665 680 537 761 c 0
 476 800 397 855 364 855 c 0
 335 855 317 839 317 812 c 0
 317 751 369 720 497 639 c 0
 558 600 631 545 670 545 c 0
EndSplineSet
EndChar

StartChar: dagger
Encoding: 8224 8224 222
Width: 912
Flags: MW
LayerCount: 2
Fore
SplineSet
242 916 m 0
 274 916 324 901 342 883 c 8
 360 865 366 838 366 792 c 0
 366 556 368.999023438 478.125976562 381 368 c 0
 398 212 424 56 428 0 c 0
 432 -56 466 -68 480 0 c 8
 494 68 518.116210938 218.091796875 526 360 c 0
 534 504 536.763671875 567.421875 552 806 c 0
 553.284179688 826.103515625 550 848 578 848 c 0
 610 848 666.573242188 826 750 826 c 0
 809 826 858 860 858 924 c 0
 858 968 830 992 788 992 c 0
 718 992 733 904 674 904 c 0
 602 904 534.149414062 925.750976562 515 952 c 0
 499.69921875 972.973632812 498 998 498 1020 c 8
 498 1042 532 1054 532 1100 c 0
 532 1138 484 1145 484 1159 c 0
 484 1173 510 1188 510 1220 c 0
 510 1252 474 1266 474 1286 c 0
 474 1296 501 1309 501 1338 c 0
 501 1358 486 1380 458 1380 c 8
 430 1380 412 1358 412 1338 c 8
 412 1318 432 1299 432 1283 c 8
 432 1267 388 1256 388 1220 c 0
 388 1184 421 1169 421 1157 c 0
 421 1145 378 1132 378 1096 c 0
 378 1050 418 1038 418 1010 c 8
 418 982 404 954 372 954 c 8
 340 954 266 990 180 990 c 8
 94 990 54 948 54 904 c 0
 54 860 84 834 128 834 c 0
 204 834 180 916 242 916 c 0
EndSplineSet
EndChar

StartChar: daggerdbl
Encoding: 8225 8225 223
Width: 912
Flags: MW
LayerCount: 2
Fore
SplineSet
472.01171875 665 m 0
 487.98046875 565.3984375 506 440.048828125 506 295 c 6
 506 267 l 6
 506 242.911132812 506 242.401367188 528 226.290039062 c 4
 541.237304688 216.595703125 557.267578125 209 575 209 c 4
 634 209 610 300 680 300 c 4
 710 300 731 280 731 245 c 4
 731 190 695 149 629 149 c 4
 593.280273438 149 556.234375 162.916992188 527 177.668945312 c 4
 490.734375 195.967773438 481 180.879882812 481 143 c 6
 481 107.734375 l 6
 481 87 501 80.6513671875 501 47 c 4
 501 13.3486328125 481 10 481 -9.734375 c 4
 481 -28 471 -38 456 -38 c 0
 441 -38 431 -28 431 -9.734375 c 0
 431 13 411 13.3486328125 411 47 c 0
 411 80.6513671875 431 86 431 107.734375 c 2
 431 139 l 2
 431 182.232421875 431 182.232421875 392 213.501953125 c 0
 375.942382812 226.376953125 352.845703125 240 327 240 c 0
 268 240 292 149 222 149 c 0
 192 149 171 169 171 204 c 0
 171 259 207 300 273 300 c 0
 307.91015625 300 344.28125 287.091796875 373 272.333007812 c 0
 397 260 406 265.927734375 406 286 c 2
 406 295 l 2
 406 440.048828125 419.01953125 565.3984375 434.98828125 665 c 0
 438.138671875 684.649414062 468.861328125 684.649414062 472.01171875 665 c 0
434.98828125 722 m 0
 419.01953125 821.6015625 406 946.951171875 406 1092 c 2
 406 1120 l 2
 406 1144.08886719 406 1144.59863281 384 1160.70996094 c 0
 370.762695312 1170.40429688 354.732421875 1178 337 1178 c 0
 278 1178 302 1087 232 1087 c 0
 202 1087 181 1107 181 1142 c 0
 181 1197 217 1238 283 1238 c 0
 318.719726562 1238 355.765625 1224.08300781 385 1209.33105469 c 0
 421.265625 1191.03222656 431 1206.12011719 431 1244 c 2
 431 1279.265625 l 2
 431 1300 411 1306.34863281 411 1340 c 0
 411 1373.65136719 431 1377 431 1396.734375 c 0
 431 1415 441 1425 456 1425 c 0
 471 1425 481 1415 481 1396.734375 c 4
 481 1374 501 1373.65136719 501 1340 c 4
 501 1306.34863281 481 1301 481 1279.265625 c 6
 481 1248 l 6
 481 1204.76757812 481 1204.76757812 520 1173.49804688 c 4
 536.057617188 1160.62304688 559.154296875 1147 585 1147 c 4
 644 1147 620 1238 690 1238 c 4
 720 1238 741 1218 741 1183 c 4
 741 1128 705 1087 639 1087 c 4
 604.08984375 1087 567.71875 1099.90820312 539 1114.66699219 c 4
 515 1127 506 1121.07226562 506 1101 c 6
 506 1092 l 6
 506 946.951171875 487.98046875 821.6015625 472.01171875 722 c 0
 468.861328125 702.350585938 438.138671875 702.350585938 434.98828125 722 c 0
EndSplineSet
EndChar

